<svg width="103" height="80" viewBox="0 0 103 80" fill="none" xmlns="http://www.w3.org/2000/svg">
<path d="M25.002 15.5078C26.1413 17.2982 27.0365 19.1699 27.6875 21.123C28.3711 23.0436 28.6803 25.2409 28.6152 27.7148C28.9408 28.3008 29.0872 29.0332 29.0547 29.9121C29.0221 30.7585 28.9408 31.5234 28.8105 32.207C28.8757 32.8581 28.9082 33.6068 28.9082 34.4531C28.9082 35.2995 28.8594 36.1621 28.7617 37.041C28.6641 37.8874 28.5339 38.75 28.3711 39.6289C28.2409 40.4753 28.0781 41.2402 27.8828 41.9238C27.7526 43.2585 27.541 44.5117 27.248 45.6836C26.9551 46.8229 26.6296 47.946 26.2715 49.0527C25.946 50.1595 25.5879 51.2826 25.1973 52.4219C24.8066 53.5286 24.4486 54.7493 24.123 56.084C23.9928 56.0189 23.9115 56.0352 23.8789 56.1328C23.8789 56.2305 23.8138 56.2793 23.6836 56.2793C22.8698 58.265 21.9746 60.3483 20.998 62.5293C20.054 64.7103 18.8496 66.5332 17.3848 67.998C16.929 68.4538 16.278 68.9095 15.4316 69.3652C14.6178 69.7884 13.7389 69.9349 12.7949 69.8047C12.2741 69.8047 11.8184 69.6582 11.4277 69.3652C11.0697 69.0397 10.6628 68.8118 10.207 68.6816C9.94661 68.6165 9.71875 68.6165 9.52344 68.6816C9.36068 68.7467 9.14909 68.7467 8.88867 68.6816C8.36784 68.5514 7.83073 68.2747 7.27734 67.8516C6.75651 67.4284 6.23568 67.0052 5.71484 66.582C5.0638 65.9961 4.3151 65.0684 3.46875 63.7988C2.6224 62.5293 2.23177 61.1621 2.29688 59.6973C1.97135 59.1764 1.74349 58.6068 1.61328 57.9883C1.48307 57.3372 1.40169 56.7025 1.36914 56.084C1.33659 55.4329 1.27148 54.7982 1.17383 54.1797C1.10872 53.5286 0.945964 52.9102 0.685547 52.3242C0.815755 52.3893 0.913411 52.3893 0.978516 52.3242C0.652995 50.1758 0.42513 47.8483 0.294922 45.3418C0.164714 42.8353 0.473958 40.6543 1.22266 38.7988C1.28776 38.6035 1.25521 38.457 1.125 38.3594C1.02734 38.2617 1.01107 38.1152 1.07617 37.9199C1.59701 36.7806 2.00391 35.5436 2.29688 34.209C2.6224 32.8743 3.12695 31.735 3.81055 30.791V29.7168C4.00586 29.7819 4.10352 29.7168 4.10352 29.5215C4.10352 29.2936 4.20117 29.1797 4.39648 29.1797C4.5918 28.1706 4.94987 27.1289 5.4707 26.0547C6.02409 24.9479 6.59375 24.0039 7.17969 23.2227C7.70052 22.0833 8.36784 20.9277 9.18164 19.7559C9.99544 18.584 10.972 17.5911 12.1113 16.7773C12.6322 15.8984 13.4622 15.2148 14.6016 14.7266C15.7409 14.2383 16.9616 13.929 18.2637 13.7988C19.5658 13.6686 20.819 13.7663 22.0234 14.0918C23.2604 14.3848 24.2533 14.8568 25.002 15.5078ZM28.6152 32.5C28.6152 32.3047 28.5664 32.1582 28.4688 32.0605C28.3711 31.9629 28.3223 31.849 28.3223 31.7188H28.6152C28.485 31.0677 28.3711 30.3516 28.2734 29.5703C28.2083 28.7891 28.1107 27.9915 27.9805 27.1777C27.9805 27.3079 28.013 27.373 28.0781 27.373C28.1432 27.3405 28.1758 27.2428 28.1758 27.0801C28.0456 26.8848 27.9316 26.5755 27.834 26.1523C27.7363 25.7292 27.7852 25.4036 27.9805 25.1758C27.6549 24.5247 27.4596 23.7598 27.3945 22.8809C27.3294 21.9694 27.069 21.2044 26.6133 20.5859V19.707C26.2878 19.2513 25.9622 18.763 25.6367 18.2422C25.3438 17.6888 25.0345 17.1842 24.709 16.7285C24.3835 16.2402 23.9766 15.8496 23.4883 15.5566C23.0326 15.2637 22.4629 15.1172 21.7793 15.1172C22.9837 15.9961 23.8626 17.168 24.416 18.6328C25.002 20.0651 25.4577 21.7253 25.7832 23.6133C26.0436 23.6133 26.1901 23.6784 26.2227 23.8086C26.0924 25.1432 26.1901 26.3151 26.5156 27.3242C26.8411 28.3008 27.1667 29.4564 27.4922 30.791C27.362 31.735 27.4108 32.7116 27.6387 33.7207C27.8665 34.6973 27.9154 35.6576 27.7852 36.6016C28.1107 36.4714 28.2897 36.2435 28.3223 35.918C28.3874 35.5599 28.4036 35.1855 28.3711 34.7949C28.3385 34.4043 28.3223 34.0137 28.3223 33.623C28.3223 33.1999 28.4199 32.8255 28.6152 32.5ZM20.0215 16.2891C19.9564 16.1589 19.8424 15.9798 19.6797 15.752C19.5495 15.5241 19.4518 15.5078 19.3867 15.7031C19.4518 15.7031 19.5169 15.8496 19.582 16.1426C19.6797 16.4355 19.8262 16.4844 20.0215 16.2891ZM18.0195 15.8008C17.4987 15.931 16.929 16.1263 16.3105 16.3867C15.6921 16.6471 15.4154 17.054 15.4805 17.6074C16.0013 17.0215 16.6361 16.7773 17.3848 16.875C18.1335 16.9727 18.8008 16.9401 19.3867 16.7773C19.1263 16.6471 18.8822 16.5169 18.6543 16.3867C18.4264 16.2565 18.2148 16.0612 18.0195 15.8008ZM20.998 16.7773C20.8678 16.8424 20.7376 16.7773 20.6074 16.582C20.4772 16.3867 20.3796 16.3542 20.3145 16.4844C20.3145 16.5495 20.3958 16.7122 20.5586 16.9727C20.7214 17.2331 20.8678 17.168 20.998 16.7773ZM16.4082 19.9023C16.7337 19.707 17.1569 19.6582 17.6777 19.7559C18.2311 19.8535 18.638 19.7396 18.8984 19.4141C18.5729 19.2839 18.0358 19.235 17.2871 19.2676C16.571 19.3001 16.278 19.5117 16.4082 19.9023ZM8.30273 57.5C8.56315 57.6302 8.80729 57.793 9.03516 57.9883C9.26302 58.1836 9.2793 58.4928 9.08398 58.916C9.60482 58.916 10.1094 58.9811 10.5977 59.1113C11.1185 59.2415 11.623 59.3555 12.1113 59.4531C12.6322 59.5508 13.1367 59.5671 13.625 59.502C14.1458 59.4368 14.6667 59.2415 15.1875 58.916C16.1315 57.5814 16.9453 56.1816 17.6289 54.7168C18.3451 53.252 19.0612 51.7871 19.7773 50.3223C19.7773 50.127 19.7285 50.013 19.6309 49.9805C19.5332 49.9154 19.5169 49.7526 19.582 49.4922C19.8424 49.5573 19.9564 49.4108 19.9238 49.0527C19.9238 48.6947 20.1191 48.5807 20.5098 48.7109C20.3796 47.7669 20.4121 46.5951 20.6074 45.1953C20.8027 43.7956 21.0306 42.6237 21.291 41.6797C21.291 40.1497 21.291 38.571 21.291 36.9434C21.291 35.3158 21.3561 33.737 21.4863 32.207C21.3561 32.1419 21.2259 32.0443 21.0957 31.9141C21.3561 29.9935 21.3073 28.138 20.9492 26.3477C20.5911 24.5247 20.2493 22.7344 19.9238 20.9766C19.8587 20.9115 19.7611 20.8626 19.6309 20.8301C19.5332 20.7975 19.4518 20.7161 19.3867 20.5859C18.2474 20.3906 17.2383 20.472 16.3594 20.8301C15.513 21.1556 14.7318 21.6602 14.0156 22.3438C13.332 22.9948 12.7135 23.7272 12.1602 24.541C11.6393 25.3223 11.151 26.071 10.6953 26.7871C10.6302 26.9173 10.5326 27.015 10.4023 27.0801C10.2721 27.1452 10.207 27.2591 10.207 27.4219C9.55599 28.6914 9.06771 30.0911 8.74219 31.6211C8.44922 33.151 8.04232 34.5508 7.52148 35.8203C7.13086 38.4896 6.69141 40.8822 6.20312 42.998C6.52865 43.4538 6.6263 43.9258 6.49609 44.4141C6.36589 44.8698 6.26823 45.2279 6.20312 45.4883C6.13802 46.0742 6.18685 46.6113 6.34961 47.0996C6.51237 47.5553 6.6263 48.0924 6.69141 48.7109C6.75651 49.0365 6.72396 49.3457 6.59375 49.6387C6.46354 49.9316 6.43099 50.2572 6.49609 50.6152C6.49609 51.0059 6.59375 51.3965 6.78906 51.7871C6.98438 52.1452 7.11458 52.487 7.17969 52.8125C7.3099 53.138 7.375 53.4961 7.375 53.8867C7.40755 54.2448 7.45638 54.554 7.52148 54.8145C7.7819 55.0749 8.04232 55.2051 8.30273 55.2051C8.17253 55.7259 8.17253 56.1165 8.30273 56.377C8.43294 56.6048 8.43294 56.9792 8.30273 57.5ZM21.4863 29.7168C21.7467 29.7168 21.8444 29.8145 21.7793 30.0098C21.9095 32.1582 21.9421 34.3555 21.877 36.6016C21.8118 38.8151 21.7793 40.9473 21.7793 42.998C21.9095 41.9889 22.0885 40.9798 22.3164 39.9707C22.5768 38.929 22.707 37.8711 22.707 36.7969C22.707 35.5924 22.7233 34.3229 22.7559 32.9883C22.7884 31.6536 22.7559 30.3516 22.6582 29.082C22.5605 27.8125 22.3815 26.6243 22.1211 25.5176C21.8932 24.3783 21.5514 23.3691 21.0957 22.4902C21.0957 23.0111 21.1445 23.597 21.2422 24.248C21.3398 24.8665 21.4375 25.5176 21.5352 26.2012C21.6328 26.8522 21.6979 27.5033 21.7305 28.1543C21.763 28.8053 21.6816 29.3262 21.4863 29.7168ZM25.1973 48.9062C25.3926 48.6458 25.5879 48.2715 25.7832 47.7832C25.9785 47.2624 26.125 46.7578 26.2227 46.2695C26.3529 45.7487 26.4668 45.293 26.5645 44.9023C26.6621 44.5117 26.7109 44.2513 26.7109 44.1211C26.9062 42.7865 27.0202 41.5495 27.0527 40.4102C27.0853 39.2708 27.1667 37.9362 27.2969 36.4062H26.8086C26.6784 38.5547 26.4668 40.7031 26.1738 42.8516C25.9134 44.9674 25.5879 46.9857 25.1973 48.9062ZM27.8828 37.9199C27.9479 37.7897 28.013 37.5456 28.0781 37.1875C28.1432 36.7969 28.0456 36.6341 27.7852 36.6992C27.9154 36.8945 27.9154 37.1224 27.7852 37.3828C27.6549 37.6107 27.6875 37.7897 27.8828 37.9199ZM23.293 38.6035C23.4232 38.6035 23.5534 38.6686 23.6836 38.7988C23.6185 38.6035 23.651 38.3757 23.7812 38.1152C23.9115 37.8223 23.8789 37.7572 23.6836 37.9199C23.8138 38.1803 23.765 38.278 23.5371 38.2129C23.3092 38.1478 23.2279 38.278 23.293 38.6035ZM5.71484 43.291C5.58464 43.0306 5.61719 42.9329 5.8125 42.998C6.00781 43.0632 6.10547 43.0306 6.10547 42.9004C5.91016 42.9655 5.79622 42.9492 5.76367 42.8516C5.73112 42.7539 5.61719 42.7376 5.42188 42.8027C5.42188 43.1283 5.51953 43.291 5.71484 43.291ZM2.88281 44.3164C2.88281 43.9909 2.89909 43.763 2.93164 43.6328C2.96419 43.4701 2.91536 43.2585 2.78516 42.998C2.65495 43.1283 2.58984 43.3887 2.58984 43.7793C2.58984 44.1374 2.6875 44.3164 2.88281 44.3164ZM22.1211 52.8125C22.8698 51.8685 23.5046 50.599 24.0254 49.0039C24.5462 47.4089 24.709 45.9766 24.5137 44.707C23.9277 47.6367 23.1302 50.3385 22.1211 52.8125ZM4.68945 51.2988C4.75456 49.6387 4.55924 48.1087 4.10352 46.709C3.97331 47.8483 3.98958 48.6947 4.15234 49.248C4.3151 49.8014 4.49414 50.485 4.68945 51.2988ZM5.42188 56.6211C5.42188 56.8164 5.50326 57.0443 5.66602 57.3047C5.82878 57.5651 6.00781 57.5326 6.20312 57.207C5.8776 56.7513 5.68229 56.2305 5.61719 55.6445C5.55208 55.026 5.24284 54.5703 4.68945 54.2773C4.68945 54.8633 4.72201 55.2865 4.78711 55.5469C4.88477 55.8073 5.09635 56.1654 5.42188 56.6211ZM2.49219 55.791C2.49219 55.5306 2.49219 55.2702 2.49219 55.0098C2.49219 54.7493 2.39453 54.5866 2.19922 54.5215C2.19922 54.847 2.19922 55.1237 2.19922 55.3516C2.19922 55.5794 2.29688 55.7259 2.49219 55.791ZM18.2148 62.2852C18.5404 62.1549 18.7682 61.9434 18.8984 61.6504C19.0286 61.3574 19.2565 61.1458 19.582 61.0156C19.9076 60.3646 20.347 59.6973 20.9004 59.0137C21.4863 58.3301 21.6816 57.6302 21.4863 56.9141C21.1608 57.8581 20.6562 58.7695 19.9727 59.6484C19.3216 60.5273 18.7357 61.4062 18.2148 62.2852ZM11.1836 61.7969C11.444 61.7969 11.6719 61.862 11.8672 61.9922C12.0951 62.1224 12.3392 62.2201 12.5996 62.2852C12.4694 62.6107 12.4694 62.806 12.5996 62.8711C12.7298 62.9036 12.7949 62.985 12.7949 63.1152C13.6087 63.2454 14.2435 63.1641 14.6992 62.8711C15.1549 62.5456 15.513 62.1387 15.7734 61.6504C16.0664 61.1621 16.2943 60.625 16.457 60.0391C16.6198 59.4206 16.8639 58.8672 17.1895 58.3789C16.6686 58.5742 16.1966 58.8835 15.7734 59.3066C15.3828 59.6973 14.9759 60.1042 14.5527 60.5273C14.1296 60.918 13.6576 61.2435 13.1367 61.5039C12.6484 61.7643 11.9974 61.862 11.1836 61.7969ZM9.62109 59.6973C9.7513 60.153 10.1094 60.4134 10.6953 60.4785C11.3138 60.5436 11.7858 60.4785 12.1113 60.2832C11.6556 60.2832 11.2487 60.1855 10.8906 59.9902C10.5651 59.7949 10.2396 59.6322 9.91406 59.502C9.91406 59.6973 9.88151 59.8112 9.81641 59.8438C9.7513 59.8763 9.6862 59.8275 9.62109 59.6973ZM17.2871 64.2871C17.3522 64.8079 17.2546 65.1986 16.9941 65.459C16.7337 65.6868 16.6686 65.931 16.7988 66.1914C17.8079 65.6706 18.6706 64.8568 19.3867 63.75C20.1354 62.6432 20.6725 61.5527 20.998 60.4785C20.4772 61.2272 19.9401 61.9596 19.3867 62.6758C18.8659 63.3594 18.166 63.8965 17.2871 64.2871ZM9.62109 61.9922C10.1419 61.9922 10.3698 62.1875 10.3047 62.5781C10.5 62.5781 10.6139 62.6432 10.6465 62.7734C10.679 62.8711 10.7604 62.7734 10.8906 62.4805C10.7604 62.3503 10.5977 62.2201 10.4023 62.0898C10.207 61.9596 10.207 61.7969 10.4023 61.6016C10.2721 61.6667 10.1257 61.6341 9.96289 61.5039C9.80013 61.3737 9.6862 61.4062 9.62109 61.6016C9.7513 61.6667 9.76758 61.7155 9.66992 61.748C9.57227 61.7806 9.55599 61.862 9.62109 61.9922ZM5.8125 63.7988C6.20312 63.7988 6.43099 63.6686 6.49609 63.4082C6.17057 63.4082 5.99154 63.278 5.95898 63.0176C5.92643 62.7246 5.7474 62.6595 5.42188 62.8223C5.42188 63.0176 5.53581 63.1478 5.76367 63.2129C5.99154 63.278 6.00781 63.4733 5.8125 63.7988ZM5.71484 64.1895C5.58464 63.9941 5.43815 63.8151 5.27539 63.6523C5.14518 63.4896 4.98242 63.3105 4.78711 63.1152C4.78711 63.4408 4.88477 63.7337 5.08008 63.9941C5.30794 64.2546 5.51953 64.3197 5.71484 64.1895ZM6.20312 64.8242C6.13802 64.7591 6.10547 64.6452 6.10547 64.4824H5.51953C5.38932 64.7428 5.45443 64.9056 5.71484 64.9707C5.97526 65.0033 6.13802 64.9544 6.20312 64.8242ZM7.27734 65.6055C7.47266 65.7357 7.61914 65.7357 7.7168 65.6055C7.84701 65.4753 7.91211 65.4753 7.91211 65.6055C7.7819 65.7357 7.81445 65.9635 8.00977 66.2891C8.20508 66.6146 8.36784 66.7122 8.49805 66.582C8.36784 66.1263 8.1888 65.7682 7.96094 65.5078C7.73307 65.2474 7.50521 64.9056 7.27734 64.4824C6.95182 64.4824 6.78906 64.515 6.78906 64.5801C7.11458 64.9382 7.27734 65.2799 7.27734 65.6055ZM13.7227 67.0215H15.4805C15.7409 66.2728 16.0827 65.6055 16.5059 65.0195C15.8548 65.0846 15.3177 65.3125 14.8945 65.7031C14.5039 66.0612 14.1133 66.5007 13.7227 67.0215ZM9.37695 66.582C9.50716 66.3867 9.78385 66.4518 10.207 66.7773C10.6628 67.0703 10.7279 67.3145 10.4023 67.5098C11.0534 67.5749 11.5254 67.2982 11.8184 66.6797C11.623 66.7448 11.3952 66.7285 11.1348 66.6309C10.9069 66.5332 10.679 66.4518 10.4512 66.3867C10.2233 66.3216 9.99544 66.2891 9.76758 66.2891C9.57227 66.2891 9.44206 66.3867 9.37695 66.582ZM15.1875 68.584C15.513 68.3236 15.9362 68.0794 16.457 67.8516C17.0104 67.6237 17.1569 67.347 16.8965 67.0215C16.571 67.2168 16.2292 67.3958 15.8711 67.5586C15.5456 67.7214 15.3177 68.0632 15.1875 68.584ZM11.623 68.3887C11.9486 68.7142 12.4857 68.8607 13.2344 68.8281C14.0156 68.7956 14.4714 68.4538 14.6016 67.8027C14.0156 67.6725 13.4134 67.5586 12.7949 67.4609C12.209 67.3307 11.8184 67.64 11.623 68.3887ZM41.9453 44.9023C42.0755 44.6419 42.0104 44.528 41.75 44.5605C41.4896 44.5931 41.3268 44.5443 41.2617 44.4141C41.3919 44.2188 41.5547 44.0723 41.75 43.9746C41.9453 43.8444 41.9779 43.5514 41.8477 43.0957C42.043 43.0957 42.2546 43.0632 42.4824 42.998C42.7428 42.9329 43.0033 42.8678 43.2637 42.8027C43.1335 42.6725 42.9382 42.5911 42.6777 42.5586C42.4499 42.526 42.2708 42.4447 42.1406 42.3145C42.4661 41.0449 42.6615 39.873 42.7266 38.7988C42.8242 37.7246 43.1986 36.7318 43.8496 35.8203C43.5892 35.2995 43.5566 34.7298 43.752 34.1113C43.9473 33.4928 44.2891 33.0534 44.7773 32.793C45.0378 33.1185 45.1029 33.4766 44.9727 33.8672C44.8424 34.2253 44.7448 34.5671 44.6797 34.8926C45.1354 34.7624 45.4447 34.3066 45.6074 33.5254C45.7702 32.7116 45.8516 31.9954 45.8516 31.377C45.5911 31.5723 45.4609 31.9466 45.4609 32.5C45.2656 32.6302 45.1191 32.6465 45.0215 32.5488C44.9238 32.4512 44.8099 32.4674 44.6797 32.5977C44.6797 31.849 44.7773 31.2142 44.9727 30.6934C45.168 30.1725 45.4284 29.6354 45.7539 29.082C45.5586 29.0169 45.4609 28.8542 45.4609 28.5938C45.0052 28.5938 44.6309 28.7077 44.3379 28.9355C44.0775 29.1634 43.8333 29.4238 43.6055 29.7168C43.3776 29.9772 43.1335 30.2376 42.873 30.498C42.6126 30.7585 42.2708 30.9212 41.8477 30.9863C40.5781 32.321 39.2272 33.5417 37.7949 34.6484C36.3626 35.7552 34.7839 36.6992 33.0586 37.4805C33.1237 37.806 33.2051 37.9036 33.3027 37.7734C33.4004 37.6432 33.612 37.6595 33.9375 37.8223C33.7422 38.1478 33.5306 38.3431 33.3027 38.4082C33.0749 38.4733 32.847 38.4733 32.6191 38.4082C32.3913 38.3431 32.1471 38.2454 31.8867 38.1152C31.5938 37.985 31.3496 37.9199 31.1543 37.9199C31.2845 37.334 31.431 36.7806 31.5938 36.2598C31.7565 35.7389 32.0169 35.5111 32.375 35.5762C32.375 34.0462 32.6191 32.793 33.1074 31.8164C33.5957 30.8073 34.0514 29.7331 34.4746 28.5938C36.623 25.7943 38.8366 23.1901 41.1152 20.7812C43.4264 18.3398 46.1771 16.2402 49.3672 14.4824C50.1159 13.7337 51.1087 13.2943 52.3457 13.1641C53.6152 13.0013 54.9173 12.985 56.252 13.1152C56.252 13.7663 56.1543 14.3685 55.959 14.9219C55.7637 15.4427 55.5684 15.9961 55.373 16.582C55.1777 17.1354 54.9987 17.6888 54.8359 18.2422C54.7057 18.763 54.7057 19.349 54.8359 20C54.7708 19.8698 54.5755 19.8047 54.25 19.8047C54.25 20.0651 54.25 20.3092 54.25 20.5371C54.25 20.765 54.3802 20.8789 54.6406 20.8789C54.3151 22.2135 54.0384 23.6947 53.8105 25.3223C53.5827 26.9173 53.3874 28.5612 53.2246 30.2539C53.0618 31.9466 52.8991 33.6556 52.7363 35.3809C52.6061 37.0736 52.4759 38.6523 52.3457 40.1172C52.3457 40.3125 52.2806 40.5892 52.1504 40.9473C52.0202 41.3053 52.0853 41.696 52.3457 42.1191C52.3457 42.4447 52.2806 42.5911 52.1504 42.5586C52.0202 42.526 51.9225 42.6074 51.8574 42.8027C51.7272 43.1283 51.7272 43.5026 51.8574 43.9258C51.9876 44.3164 52.0202 44.5768 51.9551 44.707C51.9551 44.9023 51.9062 45.1302 51.8086 45.3906C51.7109 45.651 51.6296 46.0254 51.5645 46.5137C51.3691 47.4577 51.125 48.4342 50.832 49.4434C50.5716 50.4199 50.3112 51.4128 50.0508 52.4219C49.3021 55.4818 48.3906 58.5254 47.3164 61.5527C46.2747 64.5801 45.0866 67.2982 43.752 69.707C43.4915 69.5768 43.1986 69.5117 42.873 69.5117C42.6777 68.8607 42.5312 68.3236 42.4336 67.9004C42.3685 67.4447 42.2708 66.9401 42.1406 66.3867C41.8151 66.3867 41.6035 66.5332 41.5059 66.8262C41.4082 67.0866 41.1966 67.1842 40.8711 67.1191C40.4154 66.3053 40.1224 65.4102 39.9922 64.4336C39.8945 63.4245 39.8945 62.3503 39.9922 61.2109C40.0898 60.0716 40.2201 58.9323 40.3828 57.793C40.5781 56.6536 40.7409 55.5957 40.8711 54.6191C40.8711 54.2936 40.8223 53.9681 40.7246 53.6426C40.627 53.2845 40.5781 52.9753 40.5781 52.7148C40.6432 52.3893 40.7572 52.1452 40.9199 51.9824C41.0827 51.7871 41.1641 51.5918 41.1641 51.3965C41.099 51.2012 41.0176 51.0547 40.9199 50.957C40.8223 50.8594 40.9362 50.7129 41.2617 50.5176C41.2617 50.3874 41.1966 50.3385 41.0664 50.3711C40.9362 50.4036 40.8711 50.3385 40.8711 50.1758C41.2617 49.6549 41.3757 49.0039 41.2129 48.2227C41.0501 47.4089 41.2617 46.7741 41.8477 46.3184C41.8477 46.1882 41.75 46.1393 41.5547 46.1719C41.3594 46.2044 41.2617 46.1393 41.2617 45.9766C41.3919 45.4557 41.5059 45.2279 41.6035 45.293C41.7012 45.3581 41.8151 45.2279 41.9453 44.9023ZM45.4609 30.5957C45.6562 30.5957 45.7865 30.6445 45.8516 30.7422C45.9167 30.8398 46.0143 30.9212 46.1445 30.9863C46.0143 30.791 46.0469 30.612 46.2422 30.4492C46.4375 30.2865 46.4049 30.1725 46.1445 30.1074C46.2096 30.4329 46.0957 30.5306 45.8027 30.4004C45.5098 30.2702 45.3958 30.3353 45.4609 30.5957ZM36.6719 32.5C36.8021 32.2396 36.9648 32.1094 37.1602 32.1094C37.3555 32.1094 37.4206 31.9466 37.3555 31.6211C37.0299 31.4258 36.7858 31.4909 36.623 31.8164C36.4603 32.1419 36.4766 32.3698 36.6719 32.5ZM42.5801 48.8086C42.7103 48.6133 42.8405 48.2227 42.9707 47.6367C43.1009 47.0182 43.0358 46.6439 42.7754 46.5137C42.7103 46.8392 42.5964 47.2461 42.4336 47.7344C42.2708 48.1901 42.3197 48.5482 42.5801 48.8086ZM43.459 48.3203C43.6543 48.3203 43.7357 48.418 43.7031 48.6133C43.6706 48.8086 43.8171 48.8737 44.1426 48.8086C44.2728 48.6784 44.3053 48.4831 44.2402 48.2227C44.1751 47.9297 44.0449 47.7181 43.8496 47.5879C43.9798 47.8483 43.931 47.9785 43.7031 47.9785C43.4753 47.946 43.3939 48.0599 43.459 48.3203ZM41.8477 64.5801C42.1732 62.8548 42.2871 61.1784 42.1895 59.5508C42.0918 57.9232 42.0755 56.3444 42.1406 54.8145C42.2057 53.6751 42.3848 52.6172 42.6777 51.6406C43.0033 50.6641 42.9382 49.8503 42.4824 49.1992C42.2871 50.3385 42.0592 51.5755 41.7988 52.9102C41.571 54.2448 41.3919 55.5957 41.2617 56.9629C41.1315 58.3301 41.099 59.681 41.1641 61.0156C41.2292 62.3177 41.457 63.5059 41.8477 64.5801ZM43.8496 63.7988C44.2402 63.7988 44.4355 63.8314 44.4355 63.8965C44.11 64.1569 43.931 64.3848 43.8984 64.5801C43.8659 64.7428 43.8822 64.8893 43.9473 65.0195C44.0124 65.1497 44.0612 65.2962 44.0938 65.459C44.1263 65.6217 44.0449 65.8659 43.8496 66.1914C44.1751 66.1914 44.3867 66.0775 44.4844 65.8496C44.6146 65.6217 44.696 65.3613 44.7285 65.0684C44.7611 64.7428 44.8099 64.4499 44.875 64.1895C44.9401 63.929 45.1029 63.7988 45.3633 63.7988C45.3633 63.3431 45.3307 63.0013 45.2656 62.7734C45.2005 62.513 45.2331 62.1875 45.3633 61.7969C44.8424 61.862 44.5169 62.1387 44.3867 62.627C44.2891 63.0827 44.11 63.4733 43.8496 63.7988ZM43.752 67.2168C43.4915 67.0866 43.4102 66.8587 43.5078 66.5332C43.6055 66.1751 43.6868 65.8333 43.752 65.5078C43.4915 65.5078 43.3125 65.6217 43.2148 65.8496C43.1172 66.0775 43.0846 66.3216 43.1172 66.582C43.1497 66.8099 43.2148 67.0052 43.3125 67.168C43.4102 67.3307 43.5566 67.347 43.752 67.2168ZM87.8926 16.1914C88.5436 15.3776 89.2435 14.401 89.9922 13.2617C90.7409 12.0898 91.4896 10.8529 92.2383 9.55078C93.0195 8.2487 93.7845 6.89779 94.5332 5.49805C95.3145 4.09831 96.0957 2.73112 96.877 1.39648C97.2025 1.52669 97.3815 1.78711 97.4141 2.17773C97.7396 2.04753 98 1.77083 98.1953 1.34766C98.3906 0.924479 98.6185 0.533854 98.8789 0.175781C99.1393 0.240885 99.4811 0.354818 99.9043 0.517578C99.7741 0.973307 99.6927 1.36393 99.6602 1.68945C99.6276 2.01497 99.6113 2.35677 99.6113 2.71484C99.6113 3.04036 99.5951 3.41471 99.5625 3.83789C99.5299 4.22852 99.3997 4.65169 99.1719 5.10742C99.237 5.49805 99.3346 5.66081 99.4648 5.5957C99.6276 5.5306 99.8392 5.43294 100.1 5.30273C99.3509 6.11654 98.8789 7.38607 98.6836 9.11133C99.0742 8.98112 99.416 8.7207 99.709 8.33008C100.035 7.9069 100.327 7.46745 100.588 7.01172C100.848 6.52344 101.125 6.10026 101.418 5.74219C101.743 5.38411 102.102 5.17253 102.492 5.10742C102.232 6.05143 102.102 6.66992 102.102 6.96289C102.102 7.25586 102.036 7.72786 101.906 8.37891C101.646 7.98828 101.369 7.98828 101.076 8.37891C100.816 8.73698 100.539 9.22526 100.246 9.84375C99.9531 10.4297 99.6439 11.0319 99.3184 11.6504C99.0254 12.2689 98.7812 12.6107 98.5859 12.6758C98.4557 13.0664 98.3255 13.5384 98.1953 14.0918C98.0651 14.6452 97.9349 15.1497 97.8047 15.6055C97.6745 16.0612 97.5768 16.4844 97.5117 16.875C97.4466 17.2331 97.4792 17.5098 97.6094 17.7051C97.4792 18.0306 97.3327 18.1934 97.1699 18.1934C97.0397 18.1934 96.9095 18.2259 96.7793 18.291C95.5749 22.2949 94.3216 25.8757 93.0195 29.0332C91.75 32.1582 90.3014 35.2832 88.6738 38.4082C88.6738 38.8639 88.7878 39.1243 89.0156 39.1895C88.0716 40.7194 87.1113 42.4284 86.1348 44.3164C85.1582 46.1719 84.3118 47.9948 83.5957 49.7852C82.9447 50.306 82.2611 51.1686 81.5449 52.373C80.8288 53.5775 80.4707 54.6191 80.4707 55.498C80.2754 55.8236 80.1615 55.8561 80.1289 55.5957C80.0964 55.3353 79.9499 55.3353 79.6895 55.5957C79.6895 56.4095 79.4616 57.1582 79.0059 57.8418C78.5827 58.4928 78.2734 58.9811 78.0781 59.3066C78.013 59.502 78.1595 59.6322 78.5176 59.6973C78.9082 59.7624 79.0059 60.1042 78.8105 60.7227C78.2897 60.4622 77.8665 60.4948 77.541 60.8203C77.248 61.1458 76.9551 61.6178 76.6621 62.2363C76.4017 62.8223 76.1413 63.4733 75.8809 64.1895C75.6204 64.873 75.2949 65.4102 74.9043 65.8008C74.9043 66.0612 74.9368 66.1263 75.002 65.9961C75.0671 65.8659 75.1322 65.7357 75.1973 65.6055C75.3926 65.7357 75.4089 65.9147 75.2461 66.1426C75.0833 66.3704 74.9368 66.7611 74.8066 67.3145C74.7415 67.054 74.6276 66.9727 74.4648 67.0703C74.3346 67.168 74.2207 67.3307 74.123 67.5586C74.0254 67.7865 73.9603 68.0469 73.9277 68.3398C73.8952 68.6328 73.8789 68.8932 73.8789 69.1211C73.6185 69.5117 73.5534 69.4792 73.6836 69.0234C73.8138 68.5352 73.8138 68.2585 73.6836 68.1934C73.3581 68.584 73.179 68.9909 73.1465 69.4141C73.1139 69.8047 72.9349 70.3743 72.6094 71.123C72.2839 70.9277 72.0397 71.0905 71.877 71.6113C71.7467 72.1322 71.6165 72.5553 71.4863 72.8809C71.3561 72.5553 71.2422 72.4251 71.1445 72.4902C71.0469 72.5553 70.9655 72.7018 70.9004 72.9297C70.8353 73.1901 70.7702 73.4505 70.7051 73.7109C70.64 73.9714 70.6074 74.1341 70.6074 74.1992C70.0866 75.1432 69.4518 75.8105 68.7031 76.2012C67.9544 76.5918 67.3197 77.2266 66.7988 78.1055C66.7337 77.8451 66.6035 77.6497 66.4082 77.5195C66.2129 77.3893 65.9688 77.487 65.6758 77.8125C65.6758 78.0078 65.7897 78.0892 66.0176 78.0566C66.278 78.0241 66.4733 78.138 66.6035 78.3984C66.0827 78.5938 65.6107 78.5775 65.1875 78.3496C64.7969 78.1217 64.4388 78.1706 64.1133 78.4961C64.1784 78.431 64.1133 78.6263 63.918 79.082C63.7552 79.5703 63.4785 79.6354 63.0879 79.2773C63.5436 78.3984 63.8203 77.5684 63.918 76.7871C64.0482 76.0059 64.3086 75.1432 64.6992 74.1992C64.3737 74.5898 63.9831 74.9479 63.5273 75.2734C63.1042 75.6315 62.7298 75.7129 62.4043 75.5176C62.6647 74.6387 62.9414 73.7598 63.2344 72.8809C63.5273 72.0345 63.8203 71.123 64.1133 70.1465C64.4388 69.1699 64.7806 68.1445 65.1387 67.0703C65.4967 65.9635 65.9525 64.7428 66.5059 63.4082C66.2454 63.8639 66.0664 63.9616 65.9688 63.7012C65.9036 63.4408 66.0176 63.0339 66.3105 62.4805C66.3105 63.1315 66.4082 63.2943 66.6035 62.9688C66.7988 62.6432 67.0104 62.1387 67.2383 61.4551C67.4661 60.7389 67.6777 60.0716 67.873 59.4531C68.1009 58.8021 68.2148 58.5254 68.2148 58.623C68.4102 58.1022 68.638 57.6953 68.8984 57.4023C69.1589 57.0768 69.3542 56.8164 69.4844 56.6211C69.6146 56.2956 69.582 56.0677 69.3867 55.9375C69.1914 55.7747 69.2565 55.4004 69.582 54.8145C69.6471 55.0749 69.6471 55.4004 69.582 55.791C69.7122 55.6608 69.8262 55.4004 69.9238 55.0098C70.0215 54.6191 70.2168 54.554 70.5098 54.8145C70.3796 54.4238 70.4609 53.9844 70.7539 53.4961C71.0469 52.9753 71.3561 52.6497 71.6816 52.5195C71.877 51.9987 71.9746 51.5755 71.9746 51.25C71.9746 50.8919 72.0072 50.5339 72.0723 50.1758C72.5931 49.7201 73.0488 49.069 73.4395 48.2227C73.8626 47.3438 74.2858 46.5299 74.709 45.7812C74.8392 45.8464 74.8717 46.0254 74.8066 46.3184C74.7415 46.5788 74.6764 46.8066 74.6113 47.002C74.7415 47.0671 74.8229 46.9043 74.8555 46.5137C74.888 46.0905 74.9368 45.7812 75.002 45.5859C75.1322 45.3255 75.0996 45.2441 74.9043 45.3418C74.709 45.4395 74.6113 45.5534 74.6113 45.6836C74.5462 45.6185 74.5625 45.5046 74.6602 45.3418C74.7578 45.179 74.8555 45.0163 74.9531 44.8535C75.0508 44.6908 75.1647 44.5931 75.2949 44.5605C75.4251 44.528 75.4902 44.6094 75.4902 44.8047C75.2298 44.056 75.4577 42.9167 76.1738 41.3867C76.304 41.5169 76.2878 41.875 76.125 42.4609C75.9622 43.0143 75.8158 43.3236 75.6855 43.3887C75.946 43.3236 76.1413 43.1445 76.2715 42.8516C76.4342 42.5586 76.5645 42.2656 76.6621 41.9727C76.7598 41.6471 76.8574 41.3542 76.9551 41.0938C77.0527 40.8333 77.2318 40.7031 77.4922 40.7031C77.6875 39.5638 77.9154 38.4733 78.1758 37.4316C78.4688 36.3574 78.9082 35.6413 79.4941 35.2832C79.4941 34.3392 79.7383 33.444 80.2266 32.5977C80.7474 31.7188 80.9427 30.8561 80.8125 30.0098C81.2031 29.6842 81.5938 29.2122 81.9844 28.5938C82.375 27.9427 82.6517 27.2103 82.8145 26.3965C83.7585 24.9967 84.6374 23.3854 85.4512 21.5625C86.265 19.707 87.0788 17.9167 87.8926 16.1914ZM94.875 21.123C95.0052 21.0579 95.1354 20.8952 95.2656 20.6348C95.4284 20.3418 95.5423 20.0488 95.6074 19.7559C95.6725 19.4629 95.6888 19.1699 95.6562 18.877C95.6237 18.5514 95.5423 18.3561 95.4121 18.291C95.4121 18.8118 95.2331 19.3652 94.875 19.9512C94.5495 20.5371 94.5495 20.9277 94.875 21.123ZM89.7969 34.5996C90.0573 33.7207 90.334 32.9069 90.627 32.1582C90.9525 31.377 91.2617 30.6445 91.5547 29.9609C91.8477 29.2448 92.1569 28.5124 92.4824 27.7637C92.8079 26.9824 93.1497 26.1198 93.5078 25.1758C93.638 25.1758 93.7031 25.3223 93.7031 25.6152C93.5729 25.4199 93.5566 25.1595 93.6543 24.834C93.752 24.4759 93.8659 24.1341 93.9961 23.8086C94.1263 23.4831 94.224 23.1738 94.2891 22.8809C94.3542 22.5553 94.3542 22.2949 94.2891 22.0996C94.1589 22.4251 93.9961 22.7832 93.8008 23.1738C93.6055 23.5319 93.4427 23.4668 93.3125 22.9785C92.4336 24.7038 91.6523 26.4453 90.9688 28.2031C90.3177 29.9284 89.6667 31.6862 89.0156 33.4766C88.3971 35.2344 87.7298 36.9922 87.0137 38.75C86.3301 40.5078 85.5163 42.2982 84.5723 44.1211C84.9629 43.9258 85.2884 43.584 85.5488 43.0957C85.8418 42.5749 86.1185 42.0052 86.3789 41.3867C86.6393 40.7357 86.8997 40.1009 87.1602 39.4824C87.4531 38.8314 87.7624 38.2292 88.0879 37.6758C88.2181 37.3503 88.4297 37.041 88.7227 36.748C89.0482 36.4551 89.276 35.9993 89.4062 35.3809C89.276 35.1855 89.2272 34.8275 89.2598 34.3066C89.2923 33.7533 89.4062 33.4115 89.6016 33.2812C89.4714 33.6068 89.4388 33.8835 89.5039 34.1113C89.569 34.3066 89.6667 34.4694 89.7969 34.5996ZM86.2812 21.9043C86.4115 21.6439 86.5417 21.416 86.6719 21.2207C86.8346 20.9928 86.7695 20.7812 86.4766 20.5859C86.3464 20.7161 86.2487 20.9603 86.1836 21.3184C86.1185 21.6439 86.151 21.8392 86.2812 21.9043ZM83.498 27.4219C83.498 27.3568 83.5306 27.2917 83.5957 27.2266C83.6608 27.1289 83.6934 27.1126 83.6934 27.1777C83.5632 27.8288 83.5957 28.138 83.791 28.1055C83.9863 27.2266 84.0514 26.5592 83.9863 26.1035C83.8561 26.1686 83.6934 26.3639 83.498 26.6895C83.3027 26.9824 83.3027 27.2266 83.498 27.4219ZM82.7168 28.4961C82.5866 28.8867 82.5866 29.1634 82.7168 29.3262C82.847 29.4564 82.9447 29.6517 83.0098 29.9121C83.2051 29.7168 83.2865 29.5052 83.2539 29.2773C83.2214 29.0169 83.2702 28.724 83.4004 28.3984C83.14 28.2031 82.9121 28.2357 82.7168 28.4961ZM82.1797 30.4004C81.9844 30.9212 81.7077 31.4746 81.3496 32.0605C80.9915 32.6139 80.8125 33.1999 80.8125 33.8184C81.138 33.2975 81.5124 32.6465 81.9355 31.8652C82.3587 31.084 82.6191 30.498 82.7168 30.1074C82.4238 30.6283 82.2448 30.7259 82.1797 30.4004ZM78.6152 38.4082C78.7454 38.0827 78.957 37.7734 79.25 37.4805C79.543 37.1549 79.6243 36.8294 79.4941 36.5039C79.3639 36.8294 79.1523 37.1549 78.8594 37.4805C78.5664 37.7734 78.485 38.0827 78.6152 38.4082ZM78.5176 46.3184C78.4525 46.3835 78.3548 46.5299 78.2246 46.7578C78.127 46.9857 78.0456 47.2298 77.9805 47.4902C77.9154 47.7507 77.8503 48.0111 77.7852 48.2715C77.7201 48.4993 77.7201 48.6458 77.7852 48.7109C78.1107 48.0599 78.4036 47.5391 78.6641 47.1484C78.957 46.7253 79.1361 46.237 79.2012 45.6836C79.071 45.7487 78.9733 45.9115 78.9082 46.1719C78.8431 46.3997 78.7129 46.4486 78.5176 46.3184ZM69.2891 59.6973C69.3542 59.502 69.5007 59.209 69.7285 58.8184C69.9564 58.3952 70.0052 58.0534 69.875 57.793C69.7448 57.9232 69.582 58.2487 69.3867 58.7695C69.1914 59.2578 69.1589 59.5671 69.2891 59.6973ZM66.6035 65.8008C67.1243 65.8659 67.401 65.5729 67.4336 64.9219C67.4661 64.2383 67.5475 63.571 67.6777 62.9199C67.9382 62.985 68.0846 63.1152 68.1172 63.3105C68.2474 62.7897 68.4427 62.2363 68.7031 61.6504C68.9635 61.0319 68.9635 60.5762 68.7031 60.2832C68.638 60.5436 68.5241 60.918 68.3613 61.4062C68.1986 61.862 68.0033 62.3665 67.7754 62.9199C67.5801 63.4408 67.3848 63.9616 67.1895 64.4824C66.9941 64.9707 66.7988 65.4102 66.6035 65.8008ZM64.3086 72.7832C64.5039 72.4577 64.7155 72.002 64.9434 71.416C65.1712 70.8626 65.3991 70.293 65.627 69.707C65.8874 69.0885 66.099 68.5352 66.2617 68.0469C66.4245 67.5586 66.4733 67.2168 66.4082 67.0215C66.278 67.4121 66.0664 67.8841 65.7734 68.4375C65.513 68.9583 65.2689 69.4792 65.041 70C64.8132 70.5208 64.6178 71.0254 64.4551 71.5137C64.2923 72.0345 64.2435 72.4577 64.3086 72.7832ZM67.0918 72.8809C67.0267 72.6204 67.0755 72.2786 67.2383 71.8555C67.401 71.4323 67.4173 71.1068 67.2871 70.8789C66.5384 71.3997 66.1966 72.0671 66.2617 72.8809C66.3594 73.6947 66.1966 74.5736 65.7734 75.5176C65.6432 75.1921 65.513 75.1107 65.3828 75.2734C65.2526 75.4362 65.1224 75.7454 64.9922 76.2012C65.2526 76.3314 65.4967 76.2174 65.7246 75.8594C65.985 75.5013 66.1966 75.0618 66.3594 74.541C66.5221 74.0527 66.6686 73.6133 66.7988 73.2227C66.929 72.8646 67.0267 72.7507 67.0918 72.8809Z" fill="#F5C231"/>
</svg>
