<svg width="116" height="80" viewBox="0 0 116 80" fill="none" xmlns="http://www.w3.org/2000/svg">
<path d="M25.002 15.5078C26.1413 17.2982 27.0365 19.1699 27.6875 21.123C28.3711 23.0436 28.6803 25.2409 28.6152 27.7148C28.9408 28.3008 29.0872 29.0332 29.0547 29.9121C29.0221 30.7585 28.9408 31.5234 28.8105 32.207C28.8757 32.8581 28.9082 33.6068 28.9082 34.4531C28.9082 35.2995 28.8594 36.1621 28.7617 37.041C28.6641 37.8874 28.5339 38.75 28.3711 39.6289C28.2409 40.4753 28.0781 41.2402 27.8828 41.9238C27.7526 43.2585 27.541 44.5117 27.248 45.6836C26.9551 46.8229 26.6296 47.946 26.2715 49.0527C25.946 50.1595 25.5879 51.2826 25.1973 52.4219C24.8066 53.5286 24.4486 54.7493 24.123 56.084C23.9928 56.0189 23.9115 56.0352 23.8789 56.1328C23.8789 56.2305 23.8138 56.2793 23.6836 56.2793C22.8698 58.265 21.9746 60.3483 20.998 62.5293C20.054 64.7103 18.8496 66.5332 17.3848 67.998C16.929 68.4538 16.278 68.9095 15.4316 69.3652C14.6178 69.7884 13.7389 69.9349 12.7949 69.8047C12.2741 69.8047 11.8184 69.6582 11.4277 69.3652C11.0697 69.0397 10.6628 68.8118 10.207 68.6816C9.94661 68.6165 9.71875 68.6165 9.52344 68.6816C9.36068 68.7467 9.14909 68.7467 8.88867 68.6816C8.36784 68.5514 7.83073 68.2747 7.27734 67.8516C6.75651 67.4284 6.23568 67.0052 5.71484 66.582C5.0638 65.9961 4.3151 65.0684 3.46875 63.7988C2.6224 62.5293 2.23177 61.1621 2.29688 59.6973C1.97135 59.1764 1.74349 58.6068 1.61328 57.9883C1.48307 57.3372 1.40169 56.7025 1.36914 56.084C1.33659 55.4329 1.27148 54.7982 1.17383 54.1797C1.10872 53.5286 0.945964 52.9102 0.685547 52.3242C0.815755 52.3893 0.913411 52.3893 0.978516 52.3242C0.652995 50.1758 0.42513 47.8483 0.294922 45.3418C0.164714 42.8353 0.473958 40.6543 1.22266 38.7988C1.28776 38.6035 1.25521 38.457 1.125 38.3594C1.02734 38.2617 1.01107 38.1152 1.07617 37.9199C1.59701 36.7806 2.00391 35.5436 2.29688 34.209C2.6224 32.8743 3.12695 31.735 3.81055 30.791V29.7168C4.00586 29.7819 4.10352 29.7168 4.10352 29.5215C4.10352 29.2936 4.20117 29.1797 4.39648 29.1797C4.5918 28.1706 4.94987 27.1289 5.4707 26.0547C6.02409 24.9479 6.59375 24.0039 7.17969 23.2227C7.70052 22.0833 8.36784 20.9277 9.18164 19.7559C9.99544 18.584 10.972 17.5911 12.1113 16.7773C12.6322 15.8984 13.4622 15.2148 14.6016 14.7266C15.7409 14.2383 16.9616 13.929 18.2637 13.7988C19.5658 13.6686 20.819 13.7663 22.0234 14.0918C23.2604 14.3848 24.2533 14.8568 25.002 15.5078ZM28.6152 32.5C28.6152 32.3047 28.5664 32.1582 28.4688 32.0605C28.3711 31.9629 28.3223 31.849 28.3223 31.7188H28.6152C28.485 31.0677 28.3711 30.3516 28.2734 29.5703C28.2083 28.7891 28.1107 27.9915 27.9805 27.1777C27.9805 27.3079 28.013 27.373 28.0781 27.373C28.1432 27.3405 28.1758 27.2428 28.1758 27.0801C28.0456 26.8848 27.9316 26.5755 27.834 26.1523C27.7363 25.7292 27.7852 25.4036 27.9805 25.1758C27.6549 24.5247 27.4596 23.7598 27.3945 22.8809C27.3294 21.9694 27.069 21.2044 26.6133 20.5859V19.707C26.2878 19.2513 25.9622 18.763 25.6367 18.2422C25.3438 17.6888 25.0345 17.1842 24.709 16.7285C24.3835 16.2402 23.9766 15.8496 23.4883 15.5566C23.0326 15.2637 22.4629 15.1172 21.7793 15.1172C22.9837 15.9961 23.8626 17.168 24.416 18.6328C25.002 20.0651 25.4577 21.7253 25.7832 23.6133C26.0436 23.6133 26.1901 23.6784 26.2227 23.8086C26.0924 25.1432 26.1901 26.3151 26.5156 27.3242C26.8411 28.3008 27.1667 29.4564 27.4922 30.791C27.362 31.735 27.4108 32.7116 27.6387 33.7207C27.8665 34.6973 27.9154 35.6576 27.7852 36.6016C28.1107 36.4714 28.2897 36.2435 28.3223 35.918C28.3874 35.5599 28.4036 35.1855 28.3711 34.7949C28.3385 34.4043 28.3223 34.0137 28.3223 33.623C28.3223 33.1999 28.4199 32.8255 28.6152 32.5ZM20.0215 16.2891C19.9564 16.1589 19.8424 15.9798 19.6797 15.752C19.5495 15.5241 19.4518 15.5078 19.3867 15.7031C19.4518 15.7031 19.5169 15.8496 19.582 16.1426C19.6797 16.4355 19.8262 16.4844 20.0215 16.2891ZM18.0195 15.8008C17.4987 15.931 16.929 16.1263 16.3105 16.3867C15.6921 16.6471 15.4154 17.054 15.4805 17.6074C16.0013 17.0215 16.6361 16.7773 17.3848 16.875C18.1335 16.9727 18.8008 16.9401 19.3867 16.7773C19.1263 16.6471 18.8822 16.5169 18.6543 16.3867C18.4264 16.2565 18.2148 16.0612 18.0195 15.8008ZM20.998 16.7773C20.8678 16.8424 20.7376 16.7773 20.6074 16.582C20.4772 16.3867 20.3796 16.3542 20.3145 16.4844C20.3145 16.5495 20.3958 16.7122 20.5586 16.9727C20.7214 17.2331 20.8678 17.168 20.998 16.7773ZM16.4082 19.9023C16.7337 19.707 17.1569 19.6582 17.6777 19.7559C18.2311 19.8535 18.638 19.7396 18.8984 19.4141C18.5729 19.2839 18.0358 19.235 17.2871 19.2676C16.571 19.3001 16.278 19.5117 16.4082 19.9023ZM8.30273 57.5C8.56315 57.6302 8.80729 57.793 9.03516 57.9883C9.26302 58.1836 9.2793 58.4928 9.08398 58.916C9.60482 58.916 10.1094 58.9811 10.5977 59.1113C11.1185 59.2415 11.623 59.3555 12.1113 59.4531C12.6322 59.5508 13.1367 59.5671 13.625 59.502C14.1458 59.4368 14.6667 59.2415 15.1875 58.916C16.1315 57.5814 16.9453 56.1816 17.6289 54.7168C18.3451 53.252 19.0612 51.7871 19.7773 50.3223C19.7773 50.127 19.7285 50.013 19.6309 49.9805C19.5332 49.9154 19.5169 49.7526 19.582 49.4922C19.8424 49.5573 19.9564 49.4108 19.9238 49.0527C19.9238 48.6947 20.1191 48.5807 20.5098 48.7109C20.3796 47.7669 20.4121 46.5951 20.6074 45.1953C20.8027 43.7956 21.0306 42.6237 21.291 41.6797C21.291 40.1497 21.291 38.571 21.291 36.9434C21.291 35.3158 21.3561 33.737 21.4863 32.207C21.3561 32.1419 21.2259 32.0443 21.0957 31.9141C21.3561 29.9935 21.3073 28.138 20.9492 26.3477C20.5911 24.5247 20.2493 22.7344 19.9238 20.9766C19.8587 20.9115 19.7611 20.8626 19.6309 20.8301C19.5332 20.7975 19.4518 20.7161 19.3867 20.5859C18.2474 20.3906 17.2383 20.472 16.3594 20.8301C15.513 21.1556 14.7318 21.6602 14.0156 22.3438C13.332 22.9948 12.7135 23.7272 12.1602 24.541C11.6393 25.3223 11.151 26.071 10.6953 26.7871C10.6302 26.9173 10.5326 27.015 10.4023 27.0801C10.2721 27.1452 10.207 27.2591 10.207 27.4219C9.55599 28.6914 9.06771 30.0911 8.74219 31.6211C8.44922 33.151 8.04232 34.5508 7.52148 35.8203C7.13086 38.4896 6.69141 40.8822 6.20312 42.998C6.52865 43.4538 6.6263 43.9258 6.49609 44.4141C6.36589 44.8698 6.26823 45.2279 6.20312 45.4883C6.13802 46.0742 6.18685 46.6113 6.34961 47.0996C6.51237 47.5553 6.6263 48.0924 6.69141 48.7109C6.75651 49.0365 6.72396 49.3457 6.59375 49.6387C6.46354 49.9316 6.43099 50.2572 6.49609 50.6152C6.49609 51.0059 6.59375 51.3965 6.78906 51.7871C6.98438 52.1452 7.11458 52.487 7.17969 52.8125C7.3099 53.138 7.375 53.4961 7.375 53.8867C7.40755 54.2448 7.45638 54.554 7.52148 54.8145C7.7819 55.0749 8.04232 55.2051 8.30273 55.2051C8.17253 55.7259 8.17253 56.1165 8.30273 56.377C8.43294 56.6048 8.43294 56.9792 8.30273 57.5ZM21.4863 29.7168C21.7467 29.7168 21.8444 29.8145 21.7793 30.0098C21.9095 32.1582 21.9421 34.3555 21.877 36.6016C21.8118 38.8151 21.7793 40.9473 21.7793 42.998C21.9095 41.9889 22.0885 40.9798 22.3164 39.9707C22.5768 38.929 22.707 37.8711 22.707 36.7969C22.707 35.5924 22.7233 34.3229 22.7559 32.9883C22.7884 31.6536 22.7559 30.3516 22.6582 29.082C22.5605 27.8125 22.3815 26.6243 22.1211 25.5176C21.8932 24.3783 21.5514 23.3691 21.0957 22.4902C21.0957 23.0111 21.1445 23.597 21.2422 24.248C21.3398 24.8665 21.4375 25.5176 21.5352 26.2012C21.6328 26.8522 21.6979 27.5033 21.7305 28.1543C21.763 28.8053 21.6816 29.3262 21.4863 29.7168ZM25.1973 48.9062C25.3926 48.6458 25.5879 48.2715 25.7832 47.7832C25.9785 47.2624 26.125 46.7578 26.2227 46.2695C26.3529 45.7487 26.4668 45.293 26.5645 44.9023C26.6621 44.5117 26.7109 44.2513 26.7109 44.1211C26.9062 42.7865 27.0202 41.5495 27.0527 40.4102C27.0853 39.2708 27.1667 37.9362 27.2969 36.4062H26.8086C26.6784 38.5547 26.4668 40.7031 26.1738 42.8516C25.9134 44.9674 25.5879 46.9857 25.1973 48.9062ZM27.8828 37.9199C27.9479 37.7897 28.013 37.5456 28.0781 37.1875C28.1432 36.7969 28.0456 36.6341 27.7852 36.6992C27.9154 36.8945 27.9154 37.1224 27.7852 37.3828C27.6549 37.6107 27.6875 37.7897 27.8828 37.9199ZM23.293 38.6035C23.4232 38.6035 23.5534 38.6686 23.6836 38.7988C23.6185 38.6035 23.651 38.3757 23.7812 38.1152C23.9115 37.8223 23.8789 37.7572 23.6836 37.9199C23.8138 38.1803 23.765 38.278 23.5371 38.2129C23.3092 38.1478 23.2279 38.278 23.293 38.6035ZM5.71484 43.291C5.58464 43.0306 5.61719 42.9329 5.8125 42.998C6.00781 43.0632 6.10547 43.0306 6.10547 42.9004C5.91016 42.9655 5.79622 42.9492 5.76367 42.8516C5.73112 42.7539 5.61719 42.7376 5.42188 42.8027C5.42188 43.1283 5.51953 43.291 5.71484 43.291ZM2.88281 44.3164C2.88281 43.9909 2.89909 43.763 2.93164 43.6328C2.96419 43.4701 2.91536 43.2585 2.78516 42.998C2.65495 43.1283 2.58984 43.3887 2.58984 43.7793C2.58984 44.1374 2.6875 44.3164 2.88281 44.3164ZM22.1211 52.8125C22.8698 51.8685 23.5046 50.599 24.0254 49.0039C24.5462 47.4089 24.709 45.9766 24.5137 44.707C23.9277 47.6367 23.1302 50.3385 22.1211 52.8125ZM4.68945 51.2988C4.75456 49.6387 4.55924 48.1087 4.10352 46.709C3.97331 47.8483 3.98958 48.6947 4.15234 49.248C4.3151 49.8014 4.49414 50.485 4.68945 51.2988ZM5.42188 56.6211C5.42188 56.8164 5.50326 57.0443 5.66602 57.3047C5.82878 57.5651 6.00781 57.5326 6.20312 57.207C5.8776 56.7513 5.68229 56.2305 5.61719 55.6445C5.55208 55.026 5.24284 54.5703 4.68945 54.2773C4.68945 54.8633 4.72201 55.2865 4.78711 55.5469C4.88477 55.8073 5.09635 56.1654 5.42188 56.6211ZM2.49219 55.791C2.49219 55.5306 2.49219 55.2702 2.49219 55.0098C2.49219 54.7493 2.39453 54.5866 2.19922 54.5215C2.19922 54.847 2.19922 55.1237 2.19922 55.3516C2.19922 55.5794 2.29688 55.7259 2.49219 55.791ZM18.2148 62.2852C18.5404 62.1549 18.7682 61.9434 18.8984 61.6504C19.0286 61.3574 19.2565 61.1458 19.582 61.0156C19.9076 60.3646 20.347 59.6973 20.9004 59.0137C21.4863 58.3301 21.6816 57.6302 21.4863 56.9141C21.1608 57.8581 20.6562 58.7695 19.9727 59.6484C19.3216 60.5273 18.7357 61.4062 18.2148 62.2852ZM11.1836 61.7969C11.444 61.7969 11.6719 61.862 11.8672 61.9922C12.0951 62.1224 12.3392 62.2201 12.5996 62.2852C12.4694 62.6107 12.4694 62.806 12.5996 62.8711C12.7298 62.9036 12.7949 62.985 12.7949 63.1152C13.6087 63.2454 14.2435 63.1641 14.6992 62.8711C15.1549 62.5456 15.513 62.1387 15.7734 61.6504C16.0664 61.1621 16.2943 60.625 16.457 60.0391C16.6198 59.4206 16.8639 58.8672 17.1895 58.3789C16.6686 58.5742 16.1966 58.8835 15.7734 59.3066C15.3828 59.6973 14.9759 60.1042 14.5527 60.5273C14.1296 60.918 13.6576 61.2435 13.1367 61.5039C12.6484 61.7643 11.9974 61.862 11.1836 61.7969ZM9.62109 59.6973C9.7513 60.153 10.1094 60.4134 10.6953 60.4785C11.3138 60.5436 11.7858 60.4785 12.1113 60.2832C11.6556 60.2832 11.2487 60.1855 10.8906 59.9902C10.5651 59.7949 10.2396 59.6322 9.91406 59.502C9.91406 59.6973 9.88151 59.8112 9.81641 59.8438C9.7513 59.8763 9.6862 59.8275 9.62109 59.6973ZM17.2871 64.2871C17.3522 64.8079 17.2546 65.1986 16.9941 65.459C16.7337 65.6868 16.6686 65.931 16.7988 66.1914C17.8079 65.6706 18.6706 64.8568 19.3867 63.75C20.1354 62.6432 20.6725 61.5527 20.998 60.4785C20.4772 61.2272 19.9401 61.9596 19.3867 62.6758C18.8659 63.3594 18.166 63.8965 17.2871 64.2871ZM9.62109 61.9922C10.1419 61.9922 10.3698 62.1875 10.3047 62.5781C10.5 62.5781 10.6139 62.6432 10.6465 62.7734C10.679 62.8711 10.7604 62.7734 10.8906 62.4805C10.7604 62.3503 10.5977 62.2201 10.4023 62.0898C10.207 61.9596 10.207 61.7969 10.4023 61.6016C10.2721 61.6667 10.1257 61.6341 9.96289 61.5039C9.80013 61.3737 9.6862 61.4062 9.62109 61.6016C9.7513 61.6667 9.76758 61.7155 9.66992 61.748C9.57227 61.7806 9.55599 61.862 9.62109 61.9922ZM5.8125 63.7988C6.20312 63.7988 6.43099 63.6686 6.49609 63.4082C6.17057 63.4082 5.99154 63.278 5.95898 63.0176C5.92643 62.7246 5.7474 62.6595 5.42188 62.8223C5.42188 63.0176 5.53581 63.1478 5.76367 63.2129C5.99154 63.278 6.00781 63.4733 5.8125 63.7988ZM5.71484 64.1895C5.58464 63.9941 5.43815 63.8151 5.27539 63.6523C5.14518 63.4896 4.98242 63.3105 4.78711 63.1152C4.78711 63.4408 4.88477 63.7337 5.08008 63.9941C5.30794 64.2546 5.51953 64.3197 5.71484 64.1895ZM6.20312 64.8242C6.13802 64.7591 6.10547 64.6452 6.10547 64.4824H5.51953C5.38932 64.7428 5.45443 64.9056 5.71484 64.9707C5.97526 65.0033 6.13802 64.9544 6.20312 64.8242ZM7.27734 65.6055C7.47266 65.7357 7.61914 65.7357 7.7168 65.6055C7.84701 65.4753 7.91211 65.4753 7.91211 65.6055C7.7819 65.7357 7.81445 65.9635 8.00977 66.2891C8.20508 66.6146 8.36784 66.7122 8.49805 66.582C8.36784 66.1263 8.1888 65.7682 7.96094 65.5078C7.73307 65.2474 7.50521 64.9056 7.27734 64.4824C6.95182 64.4824 6.78906 64.515 6.78906 64.5801C7.11458 64.9382 7.27734 65.2799 7.27734 65.6055ZM13.7227 67.0215H15.4805C15.7409 66.2728 16.0827 65.6055 16.5059 65.0195C15.8548 65.0846 15.3177 65.3125 14.8945 65.7031C14.5039 66.0612 14.1133 66.5007 13.7227 67.0215ZM9.37695 66.582C9.50716 66.3867 9.78385 66.4518 10.207 66.7773C10.6628 67.0703 10.7279 67.3145 10.4023 67.5098C11.0534 67.5749 11.5254 67.2982 11.8184 66.6797C11.623 66.7448 11.3952 66.7285 11.1348 66.6309C10.9069 66.5332 10.679 66.4518 10.4512 66.3867C10.2233 66.3216 9.99544 66.2891 9.76758 66.2891C9.57227 66.2891 9.44206 66.3867 9.37695 66.582ZM15.1875 68.584C15.513 68.3236 15.9362 68.0794 16.457 67.8516C17.0104 67.6237 17.1569 67.347 16.8965 67.0215C16.571 67.2168 16.2292 67.3958 15.8711 67.5586C15.5456 67.7214 15.3177 68.0632 15.1875 68.584ZM11.623 68.3887C11.9486 68.7142 12.4857 68.8607 13.2344 68.8281C14.0156 68.7956 14.4714 68.4538 14.6016 67.8027C14.0156 67.6725 13.4134 67.5586 12.7949 67.4609C12.209 67.3307 11.8184 67.64 11.623 68.3887ZM40.7734 39.6777C40.7083 40.4915 40.4154 41.3542 39.8945 42.2656C39.4062 43.1445 38.6901 43.6816 37.7461 43.877C37.4857 42.6725 37.681 41.5495 38.332 40.5078C39.0156 39.4336 39.6178 38.3919 40.1387 37.3828C40.0085 37.2526 39.8783 37.1061 39.748 36.9434C39.6178 36.7806 39.5527 36.6016 39.5527 36.4062C39.4225 36.1458 39.5202 35.9505 39.8457 35.8203C40.2038 35.6576 40.1387 35.5436 39.6504 35.4785C41.0501 33.5579 42.2708 31.3281 43.3125 28.7891C44.3542 26.25 45.4284 23.7923 46.5352 21.416C47.056 20.2767 47.7721 19.1211 48.6836 17.9492C49.5951 16.7773 50.4577 15.8984 51.2715 15.3125C51.6621 14.987 52.1504 14.7428 52.7363 14.5801C53.3548 14.3848 53.9245 14.222 54.4453 14.0918C55.3893 13.571 56.431 13.0013 57.5703 12.3828C58.7096 11.7318 59.9466 11.4388 61.2812 11.5039C61.5417 11.5039 61.9486 11.6341 62.502 11.8945C63.0879 12.1549 63.6738 12.4642 64.2598 12.8223C64.8457 13.1478 65.3665 13.5059 65.8223 13.8965C66.3105 14.2871 66.6198 14.6289 66.75 14.9219C66.8151 15.1172 66.7826 15.3125 66.6523 15.5078C66.5221 15.7031 66.5872 15.8659 66.8477 15.9961C66.5872 17.9167 66.4408 19.6745 66.4082 21.2695C66.3757 22.832 66.1966 24.5736 65.8711 26.4941C65.7409 27.373 65.4967 28.1543 65.1387 28.8379C64.8132 29.4889 64.4876 30.1725 64.1621 30.8887C63.3483 32.8092 62.4531 34.6973 61.4766 36.5527C60.5326 38.3757 59.5885 40.2311 58.6445 42.1191C58.6445 42.2493 58.6771 42.3633 58.7422 42.4609C58.8073 42.5586 58.8073 42.7051 58.7422 42.9004C57.668 44.6908 56.61 46.5462 55.5684 48.4668C54.5592 50.3548 53.4525 52.2266 52.248 54.082C53.778 53.6914 55.4707 53.0729 57.3262 52.2266C59.2142 51.3477 61.1185 50.6641 63.0391 50.1758C63.9831 50.0456 64.8945 49.834 65.7734 49.541C66.6849 49.248 67.5475 49.1341 68.3613 49.1992C68.9473 49.2643 69.4844 49.4108 69.9727 49.6387C70.4935 49.8665 71.0957 49.7526 71.7793 49.2969C71.0306 50.6966 70.0703 51.9824 68.8984 53.1543C67.7266 54.3262 66.4733 55.4492 65.1387 56.5234C63.804 57.5651 62.4694 58.623 61.1348 59.6973C59.8327 60.7715 58.612 61.9108 57.4727 63.1152C57.3424 63.1152 57.1797 63.099 56.9844 63.0664C56.8216 63.0339 56.6751 63.0501 56.5449 63.1152C55.7311 63.2454 54.9336 63.6035 54.1523 64.1895C53.3711 64.7428 52.5085 65.1823 51.5645 65.5078C51.0436 65.7031 50.4577 65.7845 49.8066 65.752C49.1882 65.7194 48.6022 65.7357 48.0488 65.8008C46.9095 65.9961 45.6725 66.4681 44.3379 67.2168C43.0033 67.9329 41.75 68.4538 40.5781 68.7793C40.0573 68.9095 39.5039 69.0234 38.918 69.1211C38.332 69.1862 37.8763 68.9421 37.5508 68.3887C37.681 66.9238 38.3483 65.931 39.5527 65.4102C39.3574 64.9544 39.0319 64.6777 38.5762 64.5801C38.7715 63.9941 39.0807 63.4082 39.5039 62.8223C39.9271 62.2038 40.334 61.6178 40.7246 61.0645C41.1478 60.4785 41.4896 59.8926 41.75 59.3066C42.0104 58.6882 42.1081 58.0534 42.043 57.4023C42.4336 57.5326 42.6126 57.4349 42.5801 57.1094C42.5801 56.7839 42.7428 56.6211 43.0684 56.6211C43.3939 55.4818 43.8333 54.375 44.3867 53.3008C44.9727 52.2266 45.526 51.1849 46.0469 50.1758C47.1862 47.8971 48.4232 45.7324 49.7578 43.6816C51.0924 41.6309 52.362 39.5312 53.5664 37.3828V36.5039C54.1523 35.4948 54.7871 34.388 55.4707 33.1836C56.1868 31.9792 56.8379 30.7422 57.4238 29.4727C58.0423 28.1706 58.5143 26.8197 58.8398 25.4199C59.1979 24.0202 59.3118 22.6204 59.1816 21.2207C58.791 21.3509 58.4004 21.3346 58.0098 21.1719C57.6517 20.9766 57.2611 20.7812 56.8379 20.5859C56.0892 21.9206 55.0475 23.1738 53.7129 24.3457C52.4108 25.5176 51.2878 26.8359 50.3438 28.3008C49.7578 28.3008 49.1719 28.4473 48.5859 28.7402C48.0326 29.0332 47.5931 29.4564 47.2676 30.0098C47.5931 29.9447 47.8372 29.8145 48 29.6191C48.1628 29.3913 48.4557 29.2773 48.8789 29.2773C48.6836 29.4727 48.5046 29.7005 48.3418 29.9609C48.2116 30.1888 48.0814 30.4329 47.9512 30.6934C47.0723 31.2142 46.3398 31.8164 45.7539 32.5C45.168 33.151 44.6309 33.8672 44.1426 34.6484C43.6868 35.4297 43.2148 36.2109 42.7266 36.9922C42.2708 37.7409 41.7174 38.4408 41.0664 39.0918C40.9362 38.9616 40.806 38.7988 40.6758 38.6035C40.5456 38.4082 40.334 38.4733 40.041 38.7988C40.041 38.929 40.1061 38.9941 40.2363 38.9941C40.3991 38.9941 40.4805 38.929 40.4805 38.7988C40.4154 39.1243 40.1712 39.5801 39.748 40.166C39.3574 40.7194 39.0645 41.224 38.8691 41.6797C39.1296 41.6797 39.4225 41.4355 39.748 40.9473C40.1061 40.4264 40.4479 40.0033 40.7734 39.6777ZM48.4395 20.8789C49.1882 20.293 49.8392 19.5768 50.3926 18.7305C50.9785 17.8516 51.5645 17.0378 52.1504 16.2891C51.9551 16.2891 51.8574 16.3542 51.8574 16.4844C51.1087 17.0052 50.36 17.6237 49.6113 18.3398C48.8952 19.0234 48.5046 19.8698 48.4395 20.8789ZM60.7441 18.877C60.8743 18.3561 60.7116 18.0306 60.2559 17.9004C60.2559 18.2259 60.2559 18.4863 60.2559 18.6816C60.2559 18.877 60.4186 18.9421 60.7441 18.877ZM57.4727 20C57.7982 20.0651 58.1074 20.1465 58.4004 20.2441C58.6934 20.3418 58.9049 20.1953 59.0352 19.8047C58.8398 19.4141 58.5469 19.2188 58.1562 19.2188C57.7656 19.2188 57.5378 19.4792 57.4727 20ZM49.9531 26.7871C50.474 26.3314 50.9785 25.9082 51.4668 25.5176C51.9876 25.0944 52.3457 24.5247 52.541 23.8086C51.89 24.0039 51.2552 24.4596 50.6367 25.1758C50.0508 25.8594 49.8229 26.3965 49.9531 26.7871ZM50.3438 45.1953C52.069 42.6562 53.778 40.166 55.4707 37.7246C57.196 35.2507 58.4329 32.2396 59.1816 28.6914C59.3118 28.6914 59.3607 28.6589 59.3281 28.5938C59.2956 28.5286 59.1979 28.5286 59.0352 28.5938C57.7005 31.3932 56.252 34.1764 54.6895 36.9434C53.127 39.7103 51.6784 42.4609 50.3438 45.1953ZM41.2617 37.8223C41.3919 37.5618 41.5384 37.3014 41.7012 37.041C41.8639 36.748 42.0104 36.4714 42.1406 36.2109C41.8151 36.2109 41.5384 36.4062 41.3105 36.7969C41.0827 37.1549 41.0664 37.4967 41.2617 37.8223ZM53.1758 47.1973C53.5013 46.3184 54.0059 45.472 54.6895 44.6582C55.4056 43.8118 55.7962 42.9655 55.8613 42.1191C55.4707 42.998 54.9173 43.8281 54.2012 44.6094C53.5176 45.3906 53.1758 46.2533 53.1758 47.1973ZM49.1719 49.1992C49.4323 48.9388 49.6927 48.6133 49.9531 48.2227C50.2135 47.7995 50.3112 47.4577 50.2461 47.1973C50.1159 47.5228 49.8717 47.8809 49.5137 48.2715C49.1556 48.6296 49.0417 48.9388 49.1719 49.1992ZM50.3438 52.7148C50.6693 52.4544 50.8971 52.194 51.0273 51.9336C51.1901 51.6406 51.3691 51.3639 51.5645 51.1035C51.4342 51.1035 51.3691 51.071 51.3691 51.0059C51.3691 50.9408 51.304 50.9082 51.1738 50.9082C51.0436 51.2337 50.8483 51.4941 50.5879 51.6895C50.36 51.8522 50.2786 52.194 50.3438 52.7148ZM55.4707 55.9863C56.8053 55.5306 58.0423 55.0423 59.1816 54.5215C60.3535 53.9681 61.5091 53.3659 62.6484 52.7148C61.3789 53.1706 60.1094 53.6263 58.8398 54.082C57.6029 54.5378 56.4798 55.1725 55.4707 55.9863ZM49.1719 59.502C50.2461 59.1764 51.1738 58.7695 51.9551 58.2812C52.7689 57.7604 53.5339 57.207 54.25 56.6211C53.2409 56.9466 52.3294 57.3698 51.5156 57.8906C50.7018 58.3789 49.9206 58.916 49.1719 59.502ZM49.8555 61.5039C50.3112 61.5039 50.7507 61.3086 51.1738 60.918C50.8483 60.9831 50.5553 61.0319 50.2949 61.0645C50.0671 61.097 49.9206 61.2435 49.8555 61.5039ZM54.9824 62.9199C55.5033 62.5293 56.0566 62.2201 56.6426 61.9922C57.2611 61.7318 57.7331 61.3737 58.0586 60.918C57.8633 61.1133 57.5866 61.276 57.2285 61.4062C56.903 61.5365 56.5775 61.6667 56.252 61.7969C55.9264 61.9271 55.6335 62.0898 55.373 62.2852C55.1126 62.4479 54.9824 62.6595 54.9824 62.9199ZM51.2715 64.1895C52.4759 63.9941 53.5664 63.571 54.543 62.9199C54.0221 63.1152 53.4688 63.3105 52.8828 63.5059C52.3294 63.7012 51.7923 63.929 51.2715 64.1895ZM43.0684 65.5078C43.5892 65.8333 44.2402 65.8984 45.0215 65.7031C45.8353 65.5078 46.3398 65.1335 46.5352 64.5801C45.8841 64.5801 45.2168 64.6126 44.5332 64.6777C43.8822 64.7103 43.3939 64.987 43.0684 65.5078ZM38.9668 67.8027C39.7155 67.9329 40.4479 67.8678 41.1641 67.6074C41.8802 67.347 42.515 67.0378 43.0684 66.6797C42.9382 66.5495 42.6777 66.5007 42.2871 66.5332C41.929 66.5658 41.6849 66.5169 41.5547 66.3867C41.5547 65.9961 41.5384 65.752 41.5059 65.6543C41.4733 65.5566 41.4896 65.3451 41.5547 65.0195C40.806 65.2148 40.2689 65.5892 39.9434 66.1426C39.6178 66.6634 39.2923 67.2168 38.9668 67.8027ZM101.369 16.1914C102.02 15.3776 102.72 14.401 103.469 13.2617C104.217 12.0898 104.966 10.8529 105.715 9.55078C106.496 8.2487 107.261 6.89779 108.01 5.49805C108.791 4.09831 109.572 2.73112 110.354 1.39648C110.679 1.52669 110.858 1.78711 110.891 2.17773C111.216 2.04753 111.477 1.77083 111.672 1.34766C111.867 0.924479 112.095 0.533854 112.355 0.175781C112.616 0.240885 112.958 0.354818 113.381 0.517578C113.251 0.973307 113.169 1.36393 113.137 1.68945C113.104 2.01497 113.088 2.35677 113.088 2.71484C113.088 3.04036 113.072 3.41471 113.039 3.83789C113.007 4.22852 112.876 4.65169 112.648 5.10742C112.714 5.49805 112.811 5.66081 112.941 5.5957C113.104 5.5306 113.316 5.43294 113.576 5.30273C112.827 6.11654 112.355 7.38607 112.16 9.11133C112.551 8.98112 112.893 8.7207 113.186 8.33008C113.511 7.9069 113.804 7.46745 114.064 7.01172C114.325 6.52344 114.602 6.10026 114.895 5.74219C115.22 5.38411 115.578 5.17253 115.969 5.10742C115.708 6.05143 115.578 6.66992 115.578 6.96289C115.578 7.25586 115.513 7.72786 115.383 8.37891C115.122 7.98828 114.846 7.98828 114.553 8.37891C114.292 8.73698 114.016 9.22526 113.723 9.84375C113.43 10.4297 113.12 11.0319 112.795 11.6504C112.502 12.2689 112.258 12.6107 112.062 12.6758C111.932 13.0664 111.802 13.5384 111.672 14.0918C111.542 14.6452 111.411 15.1497 111.281 15.6055C111.151 16.0612 111.053 16.4844 110.988 16.875C110.923 17.2331 110.956 17.5098 111.086 17.7051C110.956 18.0306 110.809 18.1934 110.646 18.1934C110.516 18.1934 110.386 18.2259 110.256 18.291C109.051 22.2949 107.798 25.8757 106.496 29.0332C105.227 32.1582 103.778 35.2832 102.15 38.4082C102.15 38.8639 102.264 39.1243 102.492 39.1895C101.548 40.7194 100.588 42.4284 99.6113 44.3164C98.6348 46.1719 97.7884 47.9948 97.0723 49.7852C96.4212 50.306 95.7376 51.1686 95.0215 52.373C94.3053 53.5775 93.9473 54.6191 93.9473 55.498C93.752 55.8236 93.638 55.8561 93.6055 55.5957C93.5729 55.3353 93.4264 55.3353 93.166 55.5957C93.166 56.4095 92.9382 57.1582 92.4824 57.8418C92.0592 58.4928 91.75 58.9811 91.5547 59.3066C91.4896 59.502 91.6361 59.6322 91.9941 59.6973C92.3848 59.7624 92.4824 60.1042 92.2871 60.7227C91.7663 60.4622 91.3431 60.4948 91.0176 60.8203C90.7246 61.1458 90.4316 61.6178 90.1387 62.2363C89.8783 62.8223 89.6178 63.4733 89.3574 64.1895C89.097 64.873 88.7715 65.4102 88.3809 65.8008C88.3809 66.0612 88.4134 66.1263 88.4785 65.9961C88.5436 65.8659 88.6087 65.7357 88.6738 65.6055C88.8691 65.7357 88.8854 65.9147 88.7227 66.1426C88.5599 66.3704 88.4134 66.7611 88.2832 67.3145C88.2181 67.054 88.1042 66.9727 87.9414 67.0703C87.8112 67.168 87.6973 67.3307 87.5996 67.5586C87.502 67.7865 87.4368 68.0469 87.4043 68.3398C87.3717 68.6328 87.3555 68.8932 87.3555 69.1211C87.0951 69.5117 87.0299 69.4792 87.1602 69.0234C87.2904 68.5352 87.2904 68.2585 87.1602 68.1934C86.8346 68.584 86.6556 68.9909 86.623 69.4141C86.5905 69.8047 86.4115 70.3743 86.0859 71.123C85.7604 70.9277 85.5163 71.0905 85.3535 71.6113C85.2233 72.1322 85.0931 72.5553 84.9629 72.8809C84.8327 72.5553 84.7188 72.4251 84.6211 72.4902C84.5234 72.5553 84.4421 72.7018 84.377 72.9297C84.3118 73.1901 84.2467 73.4505 84.1816 73.7109C84.1165 73.9714 84.084 74.1341 84.084 74.1992C83.5632 75.1432 82.9284 75.8105 82.1797 76.2012C81.431 76.5918 80.7962 77.2266 80.2754 78.1055C80.2103 77.8451 80.0801 77.6497 79.8848 77.5195C79.6895 77.3893 79.4453 77.487 79.1523 77.8125C79.1523 78.0078 79.2663 78.0892 79.4941 78.0566C79.7546 78.0241 79.9499 78.138 80.0801 78.3984C79.5592 78.5938 79.0872 78.5775 78.6641 78.3496C78.2734 78.1217 77.9154 78.1706 77.5898 78.4961C77.6549 78.431 77.5898 78.6263 77.3945 79.082C77.2318 79.5703 76.9551 79.6354 76.5645 79.2773C77.0202 78.3984 77.2969 77.5684 77.3945 76.7871C77.5247 76.0059 77.7852 75.1432 78.1758 74.1992C77.8503 74.5898 77.4596 74.9479 77.0039 75.2734C76.5807 75.6315 76.2064 75.7129 75.8809 75.5176C76.1413 74.6387 76.418 73.7598 76.7109 72.8809C77.0039 72.0345 77.2969 71.123 77.5898 70.1465C77.9154 69.1699 78.2572 68.1445 78.6152 67.0703C78.9733 65.9635 79.429 64.7428 79.9824 63.4082C79.722 63.8639 79.543 63.9616 79.4453 63.7012C79.3802 63.4408 79.4941 63.0339 79.7871 62.4805C79.7871 63.1315 79.8848 63.2943 80.0801 62.9688C80.2754 62.6432 80.487 62.1387 80.7148 61.4551C80.9427 60.7389 81.1543 60.0716 81.3496 59.4531C81.5775 58.8021 81.6914 58.5254 81.6914 58.623C81.8867 58.1022 82.1146 57.6953 82.375 57.4023C82.6354 57.0768 82.8307 56.8164 82.9609 56.6211C83.0911 56.2956 83.0586 56.0677 82.8633 55.9375C82.668 55.7747 82.7331 55.4004 83.0586 54.8145C83.1237 55.0749 83.1237 55.4004 83.0586 55.791C83.1888 55.6608 83.3027 55.4004 83.4004 55.0098C83.498 54.6191 83.6934 54.554 83.9863 54.8145C83.8561 54.4238 83.9375 53.9844 84.2305 53.4961C84.5234 52.9753 84.8327 52.6497 85.1582 52.5195C85.3535 51.9987 85.4512 51.5755 85.4512 51.25C85.4512 50.8919 85.4837 50.5339 85.5488 50.1758C86.0697 49.7201 86.5254 49.069 86.916 48.2227C87.3392 47.3438 87.7624 46.5299 88.1855 45.7812C88.3158 45.8464 88.3483 46.0254 88.2832 46.3184C88.2181 46.5788 88.153 46.8066 88.0879 47.002C88.2181 47.0671 88.2995 46.9043 88.332 46.5137C88.3646 46.0905 88.4134 45.7812 88.4785 45.5859C88.6087 45.3255 88.5762 45.2441 88.3809 45.3418C88.1855 45.4395 88.0879 45.5534 88.0879 45.6836C88.0228 45.6185 88.0391 45.5046 88.1367 45.3418C88.2344 45.179 88.332 45.0163 88.4297 44.8535C88.5273 44.6908 88.6413 44.5931 88.7715 44.5605C88.9017 44.528 88.9668 44.6094 88.9668 44.8047C88.7064 44.056 88.9342 42.9167 89.6504 41.3867C89.7806 41.5169 89.7643 41.875 89.6016 42.4609C89.4388 43.0143 89.2923 43.3236 89.1621 43.3887C89.4225 43.3236 89.6178 43.1445 89.748 42.8516C89.9108 42.5586 90.041 42.2656 90.1387 41.9727C90.2363 41.6471 90.334 41.3542 90.4316 41.0938C90.5293 40.8333 90.7083 40.7031 90.9688 40.7031C91.1641 39.5638 91.3919 38.4733 91.6523 37.4316C91.9453 36.3574 92.3848 35.6413 92.9707 35.2832C92.9707 34.3392 93.2148 33.444 93.7031 32.5977C94.224 31.7188 94.4193 30.8561 94.2891 30.0098C94.6797 29.6842 95.0703 29.2122 95.4609 28.5938C95.8516 27.9427 96.1283 27.2103 96.291 26.3965C97.235 24.9967 98.1139 23.3854 98.9277 21.5625C99.7415 19.707 100.555 17.9167 101.369 16.1914ZM108.352 21.123C108.482 21.0579 108.612 20.8952 108.742 20.6348C108.905 20.3418 109.019 20.0488 109.084 19.7559C109.149 19.4629 109.165 19.1699 109.133 18.877C109.1 18.5514 109.019 18.3561 108.889 18.291C108.889 18.8118 108.71 19.3652 108.352 19.9512C108.026 20.5371 108.026 20.9277 108.352 21.123ZM103.273 34.5996C103.534 33.7207 103.811 32.9069 104.104 32.1582C104.429 31.377 104.738 30.6445 105.031 29.9609C105.324 29.2448 105.633 28.5124 105.959 27.7637C106.285 26.9824 106.626 26.1198 106.984 25.1758C107.115 25.1758 107.18 25.3223 107.18 25.6152C107.049 25.4199 107.033 25.1595 107.131 24.834C107.229 24.4759 107.342 24.1341 107.473 23.8086C107.603 23.4831 107.701 23.1738 107.766 22.8809C107.831 22.5553 107.831 22.2949 107.766 22.0996C107.635 22.4251 107.473 22.7832 107.277 23.1738C107.082 23.5319 106.919 23.4668 106.789 22.9785C105.91 24.7038 105.129 26.4453 104.445 28.2031C103.794 29.9284 103.143 31.6862 102.492 33.4766C101.874 35.2344 101.206 36.9922 100.49 38.75C99.8066 40.5078 98.9928 42.2982 98.0488 44.1211C98.4395 43.9258 98.765 43.584 99.0254 43.0957C99.3184 42.5749 99.5951 42.0052 99.8555 41.3867C100.116 40.7357 100.376 40.1009 100.637 39.4824C100.93 38.8314 101.239 38.2292 101.564 37.6758C101.695 37.3503 101.906 37.041 102.199 36.748C102.525 36.4551 102.753 35.9993 102.883 35.3809C102.753 35.1855 102.704 34.8275 102.736 34.3066C102.769 33.7533 102.883 33.4115 103.078 33.2812C102.948 33.6068 102.915 33.8835 102.98 34.1113C103.046 34.3066 103.143 34.4694 103.273 34.5996ZM99.7578 21.9043C99.888 21.6439 100.018 21.416 100.148 21.2207C100.311 20.9928 100.246 20.7812 99.9531 20.5859C99.8229 20.7161 99.7253 20.9603 99.6602 21.3184C99.5951 21.6439 99.6276 21.8392 99.7578 21.9043ZM96.9746 27.4219C96.9746 27.3568 97.0072 27.2917 97.0723 27.2266C97.1374 27.1289 97.1699 27.1126 97.1699 27.1777C97.0397 27.8288 97.0723 28.138 97.2676 28.1055C97.4629 27.2266 97.528 26.5592 97.4629 26.1035C97.3327 26.1686 97.1699 26.3639 96.9746 26.6895C96.7793 26.9824 96.7793 27.2266 96.9746 27.4219ZM96.1934 28.4961C96.0632 28.8867 96.0632 29.1634 96.1934 29.3262C96.3236 29.4564 96.4212 29.6517 96.4863 29.9121C96.6816 29.7168 96.763 29.5052 96.7305 29.2773C96.6979 29.0169 96.7467 28.724 96.877 28.3984C96.6165 28.2031 96.3887 28.2357 96.1934 28.4961ZM95.6562 30.4004C95.4609 30.9212 95.1842 31.4746 94.8262 32.0605C94.4681 32.6139 94.2891 33.1999 94.2891 33.8184C94.6146 33.2975 94.9889 32.6465 95.4121 31.8652C95.8353 31.084 96.0957 30.498 96.1934 30.1074C95.9004 30.6283 95.7214 30.7259 95.6562 30.4004ZM92.0918 38.4082C92.222 38.0827 92.4336 37.7734 92.7266 37.4805C93.0195 37.1549 93.1009 36.8294 92.9707 36.5039C92.8405 36.8294 92.6289 37.1549 92.3359 37.4805C92.043 37.7734 91.9616 38.0827 92.0918 38.4082ZM91.9941 46.3184C91.929 46.3835 91.8314 46.5299 91.7012 46.7578C91.6035 46.9857 91.5221 47.2298 91.457 47.4902C91.3919 47.7507 91.3268 48.0111 91.2617 48.2715C91.1966 48.4993 91.1966 48.6458 91.2617 48.7109C91.5872 48.0599 91.8802 47.5391 92.1406 47.1484C92.4336 46.7253 92.6126 46.237 92.6777 45.6836C92.5475 45.7487 92.4499 45.9115 92.3848 46.1719C92.3197 46.3997 92.1895 46.4486 91.9941 46.3184ZM82.7656 59.6973C82.8307 59.502 82.9772 59.209 83.2051 58.8184C83.4329 58.3952 83.4818 58.0534 83.3516 57.793C83.2214 57.9232 83.0586 58.2487 82.8633 58.7695C82.668 59.2578 82.6354 59.5671 82.7656 59.6973ZM80.0801 65.8008C80.6009 65.8659 80.8776 65.5729 80.9102 64.9219C80.9427 64.2383 81.0241 63.571 81.1543 62.9199C81.4147 62.985 81.5612 63.1152 81.5938 63.3105C81.724 62.7897 81.9193 62.2363 82.1797 61.6504C82.4401 61.0319 82.4401 60.5762 82.1797 60.2832C82.1146 60.5436 82.0007 60.918 81.8379 61.4062C81.6751 61.862 81.4798 62.3665 81.252 62.9199C81.0566 63.4408 80.8613 63.9616 80.666 64.4824C80.4707 64.9707 80.2754 65.4102 80.0801 65.8008ZM77.7852 72.7832C77.9805 72.4577 78.1921 72.002 78.4199 71.416C78.6478 70.8626 78.8757 70.293 79.1035 69.707C79.3639 69.0885 79.5755 68.5352 79.7383 68.0469C79.901 67.5586 79.9499 67.2168 79.8848 67.0215C79.7546 67.4121 79.543 67.8841 79.25 68.4375C78.9896 68.9583 78.7454 69.4792 78.5176 70C78.2897 70.5208 78.0944 71.0254 77.9316 71.5137C77.7689 72.0345 77.7201 72.4577 77.7852 72.7832ZM80.5684 72.8809C80.5033 72.6204 80.5521 72.2786 80.7148 71.8555C80.8776 71.4323 80.8939 71.1068 80.7637 70.8789C80.015 71.3997 79.6732 72.0671 79.7383 72.8809C79.8359 73.6947 79.6732 74.5736 79.25 75.5176C79.1198 75.1921 78.9896 75.1107 78.8594 75.2734C78.7292 75.4362 78.599 75.7454 78.4688 76.2012C78.7292 76.3314 78.9733 76.2174 79.2012 75.8594C79.4616 75.5013 79.6732 75.0618 79.8359 74.541C79.9987 74.0527 80.1452 73.6133 80.2754 73.2227C80.4056 72.8646 80.5033 72.7507 80.5684 72.8809Z" fill="#F5C231"/>
</svg>
