<svg width="117" height="80" viewBox="0 0 117 80" fill="none" xmlns="http://www.w3.org/2000/svg">
<path d="M25.002 15.5078C26.1413 17.2982 27.0365 19.1699 27.6875 21.123C28.3711 23.0436 28.6803 25.2409 28.6152 27.7148C28.9408 28.3008 29.0872 29.0332 29.0547 29.9121C29.0221 30.7585 28.9408 31.5234 28.8105 32.207C28.8757 32.8581 28.9082 33.6068 28.9082 34.4531C28.9082 35.2995 28.8594 36.1621 28.7617 37.041C28.6641 37.8874 28.5339 38.75 28.3711 39.6289C28.2409 40.4753 28.0781 41.2402 27.8828 41.9238C27.7526 43.2585 27.541 44.5117 27.248 45.6836C26.9551 46.8229 26.6296 47.946 26.2715 49.0527C25.946 50.1595 25.5879 51.2826 25.1973 52.4219C24.8066 53.5286 24.4486 54.7493 24.123 56.084C23.9928 56.0189 23.9115 56.0352 23.8789 56.1328C23.8789 56.2305 23.8138 56.2793 23.6836 56.2793C22.8698 58.265 21.9746 60.3483 20.998 62.5293C20.054 64.7103 18.8496 66.5332 17.3848 67.998C16.929 68.4538 16.278 68.9095 15.4316 69.3652C14.6178 69.7884 13.7389 69.9349 12.7949 69.8047C12.2741 69.8047 11.8184 69.6582 11.4277 69.3652C11.0697 69.0397 10.6628 68.8118 10.207 68.6816C9.94661 68.6165 9.71875 68.6165 9.52344 68.6816C9.36068 68.7467 9.14909 68.7467 8.88867 68.6816C8.36784 68.5514 7.83073 68.2747 7.27734 67.8516C6.75651 67.4284 6.23568 67.0052 5.71484 66.582C5.0638 65.9961 4.3151 65.0684 3.46875 63.7988C2.6224 62.5293 2.23177 61.1621 2.29688 59.6973C1.97135 59.1764 1.74349 58.6068 1.61328 57.9883C1.48307 57.3372 1.40169 56.7025 1.36914 56.084C1.33659 55.4329 1.27148 54.7982 1.17383 54.1797C1.10872 53.5286 0.945964 52.9102 0.685547 52.3242C0.815755 52.3893 0.913411 52.3893 0.978516 52.3242C0.652995 50.1758 0.42513 47.8483 0.294922 45.3418C0.164714 42.8353 0.473958 40.6543 1.22266 38.7988C1.28776 38.6035 1.25521 38.457 1.125 38.3594C1.02734 38.2617 1.01107 38.1152 1.07617 37.9199C1.59701 36.7806 2.00391 35.5436 2.29688 34.209C2.6224 32.8743 3.12695 31.735 3.81055 30.791V29.7168C4.00586 29.7819 4.10352 29.7168 4.10352 29.5215C4.10352 29.2936 4.20117 29.1797 4.39648 29.1797C4.5918 28.1706 4.94987 27.1289 5.4707 26.0547C6.02409 24.9479 6.59375 24.0039 7.17969 23.2227C7.70052 22.0833 8.36784 20.9277 9.18164 19.7559C9.99544 18.584 10.972 17.5911 12.1113 16.7773C12.6322 15.8984 13.4622 15.2148 14.6016 14.7266C15.7409 14.2383 16.9616 13.929 18.2637 13.7988C19.5658 13.6686 20.819 13.7663 22.0234 14.0918C23.2604 14.3848 24.2533 14.8568 25.002 15.5078ZM28.6152 32.5C28.6152 32.3047 28.5664 32.1582 28.4688 32.0605C28.3711 31.9629 28.3223 31.849 28.3223 31.7188H28.6152C28.485 31.0677 28.3711 30.3516 28.2734 29.5703C28.2083 28.7891 28.1107 27.9915 27.9805 27.1777C27.9805 27.3079 28.013 27.373 28.0781 27.373C28.1432 27.3405 28.1758 27.2428 28.1758 27.0801C28.0456 26.8848 27.9316 26.5755 27.834 26.1523C27.7363 25.7292 27.7852 25.4036 27.9805 25.1758C27.6549 24.5247 27.4596 23.7598 27.3945 22.8809C27.3294 21.9694 27.069 21.2044 26.6133 20.5859V19.707C26.2878 19.2513 25.9622 18.763 25.6367 18.2422C25.3438 17.6888 25.0345 17.1842 24.709 16.7285C24.3835 16.2402 23.9766 15.8496 23.4883 15.5566C23.0326 15.2637 22.4629 15.1172 21.7793 15.1172C22.9837 15.9961 23.8626 17.168 24.416 18.6328C25.002 20.0651 25.4577 21.7253 25.7832 23.6133C26.0436 23.6133 26.1901 23.6784 26.2227 23.8086C26.0924 25.1432 26.1901 26.3151 26.5156 27.3242C26.8411 28.3008 27.1667 29.4564 27.4922 30.791C27.362 31.735 27.4108 32.7116 27.6387 33.7207C27.8665 34.6973 27.9154 35.6576 27.7852 36.6016C28.1107 36.4714 28.2897 36.2435 28.3223 35.918C28.3874 35.5599 28.4036 35.1855 28.3711 34.7949C28.3385 34.4043 28.3223 34.0137 28.3223 33.623C28.3223 33.1999 28.4199 32.8255 28.6152 32.5ZM20.0215 16.2891C19.9564 16.1589 19.8424 15.9798 19.6797 15.752C19.5495 15.5241 19.4518 15.5078 19.3867 15.7031C19.4518 15.7031 19.5169 15.8496 19.582 16.1426C19.6797 16.4355 19.8262 16.4844 20.0215 16.2891ZM18.0195 15.8008C17.4987 15.931 16.929 16.1263 16.3105 16.3867C15.6921 16.6471 15.4154 17.054 15.4805 17.6074C16.0013 17.0215 16.6361 16.7773 17.3848 16.875C18.1335 16.9727 18.8008 16.9401 19.3867 16.7773C19.1263 16.6471 18.8822 16.5169 18.6543 16.3867C18.4264 16.2565 18.2148 16.0612 18.0195 15.8008ZM20.998 16.7773C20.8678 16.8424 20.7376 16.7773 20.6074 16.582C20.4772 16.3867 20.3796 16.3542 20.3145 16.4844C20.3145 16.5495 20.3958 16.7122 20.5586 16.9727C20.7214 17.2331 20.8678 17.168 20.998 16.7773ZM16.4082 19.9023C16.7337 19.707 17.1569 19.6582 17.6777 19.7559C18.2311 19.8535 18.638 19.7396 18.8984 19.4141C18.5729 19.2839 18.0358 19.235 17.2871 19.2676C16.571 19.3001 16.278 19.5117 16.4082 19.9023ZM8.30273 57.5C8.56315 57.6302 8.80729 57.793 9.03516 57.9883C9.26302 58.1836 9.2793 58.4928 9.08398 58.916C9.60482 58.916 10.1094 58.9811 10.5977 59.1113C11.1185 59.2415 11.623 59.3555 12.1113 59.4531C12.6322 59.5508 13.1367 59.5671 13.625 59.502C14.1458 59.4368 14.6667 59.2415 15.1875 58.916C16.1315 57.5814 16.9453 56.1816 17.6289 54.7168C18.3451 53.252 19.0612 51.7871 19.7773 50.3223C19.7773 50.127 19.7285 50.013 19.6309 49.9805C19.5332 49.9154 19.5169 49.7526 19.582 49.4922C19.8424 49.5573 19.9564 49.4108 19.9238 49.0527C19.9238 48.6947 20.1191 48.5807 20.5098 48.7109C20.3796 47.7669 20.4121 46.5951 20.6074 45.1953C20.8027 43.7956 21.0306 42.6237 21.291 41.6797C21.291 40.1497 21.291 38.571 21.291 36.9434C21.291 35.3158 21.3561 33.737 21.4863 32.207C21.3561 32.1419 21.2259 32.0443 21.0957 31.9141C21.3561 29.9935 21.3073 28.138 20.9492 26.3477C20.5911 24.5247 20.2493 22.7344 19.9238 20.9766C19.8587 20.9115 19.7611 20.8626 19.6309 20.8301C19.5332 20.7975 19.4518 20.7161 19.3867 20.5859C18.2474 20.3906 17.2383 20.472 16.3594 20.8301C15.513 21.1556 14.7318 21.6602 14.0156 22.3438C13.332 22.9948 12.7135 23.7272 12.1602 24.541C11.6393 25.3223 11.151 26.071 10.6953 26.7871C10.6302 26.9173 10.5326 27.015 10.4023 27.0801C10.2721 27.1452 10.207 27.2591 10.207 27.4219C9.55599 28.6914 9.06771 30.0911 8.74219 31.6211C8.44922 33.151 8.04232 34.5508 7.52148 35.8203C7.13086 38.4896 6.69141 40.8822 6.20312 42.998C6.52865 43.4538 6.6263 43.9258 6.49609 44.4141C6.36589 44.8698 6.26823 45.2279 6.20312 45.4883C6.13802 46.0742 6.18685 46.6113 6.34961 47.0996C6.51237 47.5553 6.6263 48.0924 6.69141 48.7109C6.75651 49.0365 6.72396 49.3457 6.59375 49.6387C6.46354 49.9316 6.43099 50.2572 6.49609 50.6152C6.49609 51.0059 6.59375 51.3965 6.78906 51.7871C6.98438 52.1452 7.11458 52.487 7.17969 52.8125C7.3099 53.138 7.375 53.4961 7.375 53.8867C7.40755 54.2448 7.45638 54.554 7.52148 54.8145C7.7819 55.0749 8.04232 55.2051 8.30273 55.2051C8.17253 55.7259 8.17253 56.1165 8.30273 56.377C8.43294 56.6048 8.43294 56.9792 8.30273 57.5ZM21.4863 29.7168C21.7467 29.7168 21.8444 29.8145 21.7793 30.0098C21.9095 32.1582 21.9421 34.3555 21.877 36.6016C21.8118 38.8151 21.7793 40.9473 21.7793 42.998C21.9095 41.9889 22.0885 40.9798 22.3164 39.9707C22.5768 38.929 22.707 37.8711 22.707 36.7969C22.707 35.5924 22.7233 34.3229 22.7559 32.9883C22.7884 31.6536 22.7559 30.3516 22.6582 29.082C22.5605 27.8125 22.3815 26.6243 22.1211 25.5176C21.8932 24.3783 21.5514 23.3691 21.0957 22.4902C21.0957 23.0111 21.1445 23.597 21.2422 24.248C21.3398 24.8665 21.4375 25.5176 21.5352 26.2012C21.6328 26.8522 21.6979 27.5033 21.7305 28.1543C21.763 28.8053 21.6816 29.3262 21.4863 29.7168ZM25.1973 48.9062C25.3926 48.6458 25.5879 48.2715 25.7832 47.7832C25.9785 47.2624 26.125 46.7578 26.2227 46.2695C26.3529 45.7487 26.4668 45.293 26.5645 44.9023C26.6621 44.5117 26.7109 44.2513 26.7109 44.1211C26.9062 42.7865 27.0202 41.5495 27.0527 40.4102C27.0853 39.2708 27.1667 37.9362 27.2969 36.4062H26.8086C26.6784 38.5547 26.4668 40.7031 26.1738 42.8516C25.9134 44.9674 25.5879 46.9857 25.1973 48.9062ZM27.8828 37.9199C27.9479 37.7897 28.013 37.5456 28.0781 37.1875C28.1432 36.7969 28.0456 36.6341 27.7852 36.6992C27.9154 36.8945 27.9154 37.1224 27.7852 37.3828C27.6549 37.6107 27.6875 37.7897 27.8828 37.9199ZM23.293 38.6035C23.4232 38.6035 23.5534 38.6686 23.6836 38.7988C23.6185 38.6035 23.651 38.3757 23.7812 38.1152C23.9115 37.8223 23.8789 37.7572 23.6836 37.9199C23.8138 38.1803 23.765 38.278 23.5371 38.2129C23.3092 38.1478 23.2279 38.278 23.293 38.6035ZM5.71484 43.291C5.58464 43.0306 5.61719 42.9329 5.8125 42.998C6.00781 43.0632 6.10547 43.0306 6.10547 42.9004C5.91016 42.9655 5.79622 42.9492 5.76367 42.8516C5.73112 42.7539 5.61719 42.7376 5.42188 42.8027C5.42188 43.1283 5.51953 43.291 5.71484 43.291ZM2.88281 44.3164C2.88281 43.9909 2.89909 43.763 2.93164 43.6328C2.96419 43.4701 2.91536 43.2585 2.78516 42.998C2.65495 43.1283 2.58984 43.3887 2.58984 43.7793C2.58984 44.1374 2.6875 44.3164 2.88281 44.3164ZM22.1211 52.8125C22.8698 51.8685 23.5046 50.599 24.0254 49.0039C24.5462 47.4089 24.709 45.9766 24.5137 44.707C23.9277 47.6367 23.1302 50.3385 22.1211 52.8125ZM4.68945 51.2988C4.75456 49.6387 4.55924 48.1087 4.10352 46.709C3.97331 47.8483 3.98958 48.6947 4.15234 49.248C4.3151 49.8014 4.49414 50.485 4.68945 51.2988ZM5.42188 56.6211C5.42188 56.8164 5.50326 57.0443 5.66602 57.3047C5.82878 57.5651 6.00781 57.5326 6.20312 57.207C5.8776 56.7513 5.68229 56.2305 5.61719 55.6445C5.55208 55.026 5.24284 54.5703 4.68945 54.2773C4.68945 54.8633 4.72201 55.2865 4.78711 55.5469C4.88477 55.8073 5.09635 56.1654 5.42188 56.6211ZM2.49219 55.791C2.49219 55.5306 2.49219 55.2702 2.49219 55.0098C2.49219 54.7493 2.39453 54.5866 2.19922 54.5215C2.19922 54.847 2.19922 55.1237 2.19922 55.3516C2.19922 55.5794 2.29688 55.7259 2.49219 55.791ZM18.2148 62.2852C18.5404 62.1549 18.7682 61.9434 18.8984 61.6504C19.0286 61.3574 19.2565 61.1458 19.582 61.0156C19.9076 60.3646 20.347 59.6973 20.9004 59.0137C21.4863 58.3301 21.6816 57.6302 21.4863 56.9141C21.1608 57.8581 20.6562 58.7695 19.9727 59.6484C19.3216 60.5273 18.7357 61.4062 18.2148 62.2852ZM11.1836 61.7969C11.444 61.7969 11.6719 61.862 11.8672 61.9922C12.0951 62.1224 12.3392 62.2201 12.5996 62.2852C12.4694 62.6107 12.4694 62.806 12.5996 62.8711C12.7298 62.9036 12.7949 62.985 12.7949 63.1152C13.6087 63.2454 14.2435 63.1641 14.6992 62.8711C15.1549 62.5456 15.513 62.1387 15.7734 61.6504C16.0664 61.1621 16.2943 60.625 16.457 60.0391C16.6198 59.4206 16.8639 58.8672 17.1895 58.3789C16.6686 58.5742 16.1966 58.8835 15.7734 59.3066C15.3828 59.6973 14.9759 60.1042 14.5527 60.5273C14.1296 60.918 13.6576 61.2435 13.1367 61.5039C12.6484 61.7643 11.9974 61.862 11.1836 61.7969ZM9.62109 59.6973C9.7513 60.153 10.1094 60.4134 10.6953 60.4785C11.3138 60.5436 11.7858 60.4785 12.1113 60.2832C11.6556 60.2832 11.2487 60.1855 10.8906 59.9902C10.5651 59.7949 10.2396 59.6322 9.91406 59.502C9.91406 59.6973 9.88151 59.8112 9.81641 59.8438C9.7513 59.8763 9.6862 59.8275 9.62109 59.6973ZM17.2871 64.2871C17.3522 64.8079 17.2546 65.1986 16.9941 65.459C16.7337 65.6868 16.6686 65.931 16.7988 66.1914C17.8079 65.6706 18.6706 64.8568 19.3867 63.75C20.1354 62.6432 20.6725 61.5527 20.998 60.4785C20.4772 61.2272 19.9401 61.9596 19.3867 62.6758C18.8659 63.3594 18.166 63.8965 17.2871 64.2871ZM9.62109 61.9922C10.1419 61.9922 10.3698 62.1875 10.3047 62.5781C10.5 62.5781 10.6139 62.6432 10.6465 62.7734C10.679 62.8711 10.7604 62.7734 10.8906 62.4805C10.7604 62.3503 10.5977 62.2201 10.4023 62.0898C10.207 61.9596 10.207 61.7969 10.4023 61.6016C10.2721 61.6667 10.1257 61.6341 9.96289 61.5039C9.80013 61.3737 9.6862 61.4062 9.62109 61.6016C9.7513 61.6667 9.76758 61.7155 9.66992 61.748C9.57227 61.7806 9.55599 61.862 9.62109 61.9922ZM5.8125 63.7988C6.20312 63.7988 6.43099 63.6686 6.49609 63.4082C6.17057 63.4082 5.99154 63.278 5.95898 63.0176C5.92643 62.7246 5.7474 62.6595 5.42188 62.8223C5.42188 63.0176 5.53581 63.1478 5.76367 63.2129C5.99154 63.278 6.00781 63.4733 5.8125 63.7988ZM5.71484 64.1895C5.58464 63.9941 5.43815 63.8151 5.27539 63.6523C5.14518 63.4896 4.98242 63.3105 4.78711 63.1152C4.78711 63.4408 4.88477 63.7337 5.08008 63.9941C5.30794 64.2546 5.51953 64.3197 5.71484 64.1895ZM6.20312 64.8242C6.13802 64.7591 6.10547 64.6452 6.10547 64.4824H5.51953C5.38932 64.7428 5.45443 64.9056 5.71484 64.9707C5.97526 65.0033 6.13802 64.9544 6.20312 64.8242ZM7.27734 65.6055C7.47266 65.7357 7.61914 65.7357 7.7168 65.6055C7.84701 65.4753 7.91211 65.4753 7.91211 65.6055C7.7819 65.7357 7.81445 65.9635 8.00977 66.2891C8.20508 66.6146 8.36784 66.7122 8.49805 66.582C8.36784 66.1263 8.1888 65.7682 7.96094 65.5078C7.73307 65.2474 7.50521 64.9056 7.27734 64.4824C6.95182 64.4824 6.78906 64.515 6.78906 64.5801C7.11458 64.9382 7.27734 65.2799 7.27734 65.6055ZM13.7227 67.0215H15.4805C15.7409 66.2728 16.0827 65.6055 16.5059 65.0195C15.8548 65.0846 15.3177 65.3125 14.8945 65.7031C14.5039 66.0612 14.1133 66.5007 13.7227 67.0215ZM9.37695 66.582C9.50716 66.3867 9.78385 66.4518 10.207 66.7773C10.6628 67.0703 10.7279 67.3145 10.4023 67.5098C11.0534 67.5749 11.5254 67.2982 11.8184 66.6797C11.623 66.7448 11.3952 66.7285 11.1348 66.6309C10.9069 66.5332 10.679 66.4518 10.4512 66.3867C10.2233 66.3216 9.99544 66.2891 9.76758 66.2891C9.57227 66.2891 9.44206 66.3867 9.37695 66.582ZM15.1875 68.584C15.513 68.3236 15.9362 68.0794 16.457 67.8516C17.0104 67.6237 17.1569 67.347 16.8965 67.0215C16.571 67.2168 16.2292 67.3958 15.8711 67.5586C15.5456 67.7214 15.3177 68.0632 15.1875 68.584ZM11.623 68.3887C11.9486 68.7142 12.4857 68.8607 13.2344 68.8281C14.0156 68.7956 14.4714 68.4538 14.6016 67.8027C14.0156 67.6725 13.4134 67.5586 12.7949 67.4609C12.209 67.3307 11.8184 67.64 11.623 68.3887ZM55.5684 38.8965C54.2988 38.9616 53.1921 39.1732 52.248 39.5312C51.3366 39.8568 50.4414 40.2637 49.5625 40.752C48.6836 41.2402 47.8372 41.7448 47.0234 42.2656C46.2422 42.7539 45.347 43.1608 44.3379 43.4863C44.403 42.9004 44.5983 42.4772 44.9238 42.2168C45.2819 41.9238 45.6562 41.6797 46.0469 41.4844C46.4701 41.2891 46.877 41.0938 47.2676 40.8984C47.6582 40.7031 47.9512 40.3776 48.1465 39.9219C48.0163 39.7917 47.821 39.8079 47.5605 39.9707C47.3001 40.1335 47.0397 40.0846 46.7793 39.8242C47.9186 37.2852 49.0579 34.7624 50.1973 32.2559C51.3691 29.7493 52.5247 27.2266 53.6641 24.6875C53.4036 24.362 53.1595 24.0365 52.9316 23.7109C52.7363 23.3854 52.4434 23.1087 52.0527 22.8809C51.1087 23.4017 50.2135 23.9551 49.3672 24.541C48.5534 25.127 47.9186 25.8757 47.4629 26.7871C45.9329 27.666 44.6146 28.7728 43.5078 30.1074C42.401 31.4421 41.1803 32.6465 39.8457 33.7207C41.1152 33.916 42.4499 33.7858 43.8496 33.3301C45.2493 32.8418 46.2259 32.3372 46.7793 31.8164C46.8444 32.4674 46.6003 33.0046 46.0469 33.4277C45.526 33.8184 44.8587 34.1276 44.0449 34.3555C43.2637 34.5833 42.4499 34.7786 41.6035 34.9414C40.7897 35.1042 40.1387 35.2507 39.6504 35.3809C39.7155 35.3809 39.5365 35.3971 39.1133 35.4297C38.6901 35.4622 38.446 35.3158 38.3809 34.9902C37.9251 34.9902 37.5996 35.2018 37.4043 35.625C37.2415 36.0156 36.9323 36.0482 36.4766 35.7227C36.3464 35.2018 36.4766 34.86 36.8672 34.6973C37.2578 34.502 37.4857 34.1764 37.5508 33.7207C37.0299 33.8509 36.5742 34.0625 36.1836 34.3555C35.8255 34.6484 35.3861 34.86 34.8652 34.9902C34.5397 34.5345 34.5234 33.9811 34.8164 33.3301C35.1094 32.6465 35.4837 32.1419 35.9395 31.8164C35.8092 31.0677 35.972 30.498 36.4277 30.1074C36.916 29.7168 37.3229 29.2773 37.6484 28.7891C38.5273 27.4544 39.2598 26.2663 39.8457 25.2246C40.4642 24.1504 41.3431 23.1738 42.4824 22.2949C43.0684 21.8392 43.7031 21.416 44.3867 21.0254C45.1029 20.6022 45.8353 20.2116 46.584 19.8535C47.3652 19.4954 48.0814 19.0885 48.7324 18.6328C49.416 18.1445 49.9857 17.6074 50.4414 17.0215C51.0924 16.7611 51.9388 16.4681 52.9805 16.1426C54.0221 15.7845 55.0638 15.5078 56.1055 15.3125C57.1471 15.1172 58.1237 15.0846 59.0352 15.2148C59.9792 15.3451 60.7604 15.7357 61.3789 16.3867C61.5091 16.7773 61.5905 17.1517 61.623 17.5098C61.6556 17.8353 61.5742 18.1608 61.3789 18.4863C61.6393 18.6165 61.8346 18.7956 61.9648 19.0234C62.0951 19.2188 62.2253 19.4141 62.3555 19.6094C62.3555 20.944 62.1276 22.0508 61.6719 22.9297C61.2487 23.776 60.7441 24.5247 60.1582 25.1758C60.0931 26.4453 59.8815 27.5846 59.5234 28.5938C59.1979 29.6029 58.8724 30.5794 58.5469 31.5234C59.7513 31.3932 61.0534 31.2793 62.4531 31.1816C63.8529 31.0514 65.2201 31.2305 66.5547 31.7188C66.9453 32.1745 67.4499 32.5488 68.0684 32.8418C68.7194 33.1348 69.3216 33.4603 69.875 33.8184C70.2656 34.209 70.5586 34.681 70.7539 35.2344C70.9492 35.7552 71.3236 36.1784 71.877 36.5039C72.821 40.638 72.7396 44.4466 71.6328 47.9297C70.526 51.3802 68.8333 54.196 66.5547 56.377C66.2943 57.2559 65.9199 58.151 65.4316 59.0625C64.9759 59.9414 64.4876 60.7878 63.9668 61.6016C62.4368 63.9453 60.5163 65.931 58.2051 67.5586C55.8939 69.1862 53.485 70.6022 50.9785 71.8066C50.4577 72.002 49.7415 72.2135 48.8301 72.4414C47.9186 72.6693 47.0885 72.6204 46.3398 72.2949C46.3398 72.0345 46.2422 71.8717 46.0469 71.8066C45.8516 71.7415 45.7865 71.5462 45.8516 71.2207C45.0378 70.8952 44.3053 70.7324 43.6543 70.7324C43.0033 70.765 42.3034 70.651 41.5547 70.3906C41.4245 70.0651 41.4408 69.7721 41.6035 69.5117C41.7663 69.2513 41.9453 68.9421 42.1406 68.584C41.5547 68.0632 41.1478 67.3958 40.9199 66.582C40.6921 65.7357 40.9036 64.9382 41.5547 64.1895C41.4896 62.985 41.3268 61.7806 41.0664 60.5762C40.806 59.3392 40.6432 58.0859 40.5781 56.8164C40.1875 56.6211 40.0247 56.1328 40.0898 55.3516C40.1875 54.5703 40.4479 54.082 40.8711 53.8867C41.6198 53.7565 42.1569 53.8542 42.4824 54.1797C42.8079 54.4727 43.0358 54.8633 43.166 55.3516C43.2962 55.8398 43.3776 56.4095 43.4102 57.0605C43.4427 57.679 43.5241 58.265 43.6543 58.8184C43.9798 58.4928 44.3216 58.1836 44.6797 57.8906C45.0703 57.5651 45.5586 57.3372 46.1445 57.207C46.4701 57.6628 46.8118 58.0859 47.1699 58.4766C47.5605 58.8346 48.0488 59.1113 48.6348 59.3066C49.5137 58.4928 50.6367 57.6628 52.0039 56.8164C53.3711 55.9375 54.7383 55.026 56.1055 54.082C57.4727 53.1055 58.7422 52.0801 59.9141 51.0059C61.0859 49.9316 61.8997 48.8249 62.3555 47.6855C62.4857 47.2298 62.4694 46.8555 62.3066 46.5625C62.1439 46.2695 62.0299 45.8789 61.9648 45.3906C61.7695 44.5768 61.623 43.763 61.5254 42.9492C61.4277 42.1029 61.0697 41.4193 60.4512 40.8984C60.1257 41.0286 59.8652 40.931 59.6699 40.6055C59.5397 40.6055 59.4746 40.7031 59.4746 40.8984C59.4095 40.5729 59.1979 40.3451 58.8398 40.2148C58.5143 40.0846 58.14 39.987 57.7168 39.9219C57.2936 39.8568 56.8704 39.7591 56.4473 39.6289C56.0566 39.4661 55.7637 39.222 55.5684 38.8965ZM58.7422 17.7051C59.0677 17.64 59.3281 17.6562 59.5234 17.7539C59.7513 17.8516 60.028 17.8678 60.3535 17.8027V16.7773C60.028 16.7122 59.8001 16.5658 59.6699 16.3379C59.5397 16.11 59.1328 16.0286 58.4492 16.0938C58.3841 16.4193 58.4329 16.6797 58.5957 16.875C58.7585 17.0378 58.8073 17.3145 58.7422 17.7051ZM55.2754 17.1191C55.6009 17.3145 55.9915 17.3958 56.4473 17.3633C56.9355 17.3307 57.3099 17.4447 57.5703 17.7051C57.6354 17.3145 57.5703 17.0378 57.375 16.875C57.1797 16.6797 56.9193 16.5658 56.5938 16.5332C56.3008 16.5007 56.0241 16.5495 55.7637 16.6797C55.5033 16.7773 55.3405 16.9238 55.2754 17.1191ZM58.8398 20.3906C59.1654 20.5208 59.3607 20.4232 59.4258 20.0977C59.5234 19.7721 59.4421 19.6094 59.1816 19.6094C59.2467 19.8047 59.1816 19.9349 58.9863 20C58.8236 20.0651 58.7747 20.1953 58.8398 20.3906ZM60.1582 23.9062C60.4186 23.3203 60.7279 22.5716 61.0859 21.6602C61.4766 20.7487 61.3952 20.0651 60.8418 19.6094C60.8418 20.3581 60.6953 21.123 60.4023 21.9043C60.1094 22.653 60.028 23.3203 60.1582 23.9062ZM36.7695 31.5234C37.5833 31.0026 38.2832 30.3516 38.8691 29.5703C39.4551 28.7891 39.9922 27.9915 40.4805 27.1777C41.0013 26.3314 41.5221 25.5339 42.043 24.7852C42.5964 24.0039 43.2311 23.304 43.9473 22.6855C44.0124 22.5553 44.0612 22.474 44.0938 22.4414C44.1263 22.4089 44.0449 22.3926 43.8496 22.3926C42.3197 23.597 40.985 24.9967 39.8457 26.5918C38.7389 28.1543 37.7135 29.7982 36.7695 31.5234ZM56.1543 25.8105C56.2194 25.6152 56.3171 25.4036 56.4473 25.1758C56.5775 24.9154 56.6914 24.6387 56.7891 24.3457C56.8867 24.0527 56.9355 23.7923 56.9355 23.5645C56.9355 23.3366 56.8379 23.1087 56.6426 22.8809C56.7728 23.4668 56.6589 23.9876 56.3008 24.4434C55.9427 24.8991 55.8939 25.3548 56.1543 25.8105ZM56.252 29.1797C56.3822 28.9844 56.5612 28.724 56.7891 28.3984C57.0495 28.0729 57.0983 27.7799 56.9355 27.5195C56.8704 27.7799 56.7077 28.0729 56.4473 28.3984C56.1868 28.724 56.1217 28.9844 56.252 29.1797ZM58.7422 33.0859C59.6862 33.2161 60.6139 33.265 61.5254 33.2324C62.4694 33.1999 63.4134 32.9883 64.3574 32.5977C63.4785 32.4674 62.502 32.3535 61.4277 32.2559C60.3861 32.1582 59.4909 32.4349 58.7422 33.0859ZM62.7461 34.0137C64.0807 34.209 65.1387 34.5833 65.9199 35.1367C66.7337 35.6576 67.5801 36.276 68.459 36.9922C68.5241 35.9831 68.3939 35.2507 68.0684 34.7949C67.7428 34.3392 67.2871 34.0462 66.7012 33.916C66.1478 33.7858 65.513 33.7695 64.7969 33.8672C64.0807 33.9648 63.3971 34.0137 62.7461 34.0137ZM69.2402 39.4824C69.696 40.0033 69.9564 40.6217 70.0215 41.3379C70.1191 42.054 70.1191 42.819 70.0215 43.6328C69.9238 44.4141 69.7611 45.2116 69.5332 46.0254C69.3379 46.8066 69.2402 47.5716 69.2402 48.3203C68.9798 48.8411 68.7682 49.5573 68.6055 50.4688C68.4427 51.3477 68.3288 52.0638 68.2637 52.6172C69.0124 51.543 69.6471 50.2897 70.168 48.8574C70.6888 47.4251 71.0306 45.9766 71.1934 44.5117C71.3561 43.0469 71.3561 41.582 71.1934 40.1172C71.0306 38.6523 70.6237 37.3177 69.9727 36.1133H69.582C69.4518 36.6992 69.3704 37.3014 69.3379 37.9199C69.3379 38.5059 69.3053 39.0267 69.2402 39.4824ZM66.6523 41.4844C66.5872 41.3542 66.5384 41.1589 66.5059 40.8984C66.4733 40.638 66.5221 40.4427 66.6523 40.3125C66.2617 40.1823 66.0013 39.9382 65.8711 39.5801C65.7409 39.1895 65.5944 38.7988 65.4316 38.4082C65.3014 38.0176 65.1387 37.6758 64.9434 37.3828C64.748 37.0573 64.4225 36.8945 63.9668 36.8945C64.2923 37.7734 64.6341 38.6361 64.9922 39.4824C65.3503 40.2962 65.9036 40.9635 66.6523 41.4844ZM62.4531 38.2129C62.5833 38.2129 62.7135 38.3431 62.8438 38.6035C62.974 38.8639 63.153 38.8639 63.3809 38.6035C63.2507 38.6035 63.1693 38.5221 63.1367 38.3594C63.1367 38.1966 63.1367 38.0501 63.1367 37.9199C62.7461 37.9199 62.5182 38.0176 62.4531 38.2129ZM60.3535 39.5801V38.7988C59.6048 38.7988 59.0189 38.7012 58.5957 38.5059C58.1725 38.3105 57.6191 38.3431 56.9355 38.6035C57.5866 38.7337 58.2051 38.8477 58.791 38.9453C59.377 39.043 59.8978 39.2546 60.3535 39.5801ZM68.5566 42.6074C68.4915 43.1934 68.4915 43.584 68.5566 43.7793C68.6217 43.9421 68.6868 43.9583 68.752 43.8281C68.8171 43.6654 68.8496 43.4701 68.8496 43.2422C68.8496 43.0143 68.752 42.8027 68.5566 42.6074ZM65.9688 45.9766C66.1641 45.651 66.2943 45.2116 66.3594 44.6582C66.4245 44.0723 66.1966 43.7467 65.6758 43.6816C65.6107 44.0723 65.5618 44.4792 65.5293 44.9023C65.4967 45.293 65.6432 45.651 65.9688 45.9766ZM49.6602 59.9902C50.4089 60.5762 51.125 60.8854 51.8086 60.918C52.5247 60.918 53.2083 60.7389 53.8594 60.3809C54.5104 59.9902 55.1289 59.502 55.7148 58.916C56.3333 58.2975 56.9193 57.6953 57.4727 57.1094C58.4818 55.9049 59.4258 54.6029 60.3047 53.2031C61.2161 51.8034 61.7044 50.7292 61.7695 49.9805C60.1094 52.0312 58.2051 53.8379 56.0566 55.4004C53.9408 56.9303 51.8086 58.4603 49.6602 59.9902ZM66.5547 52.8125C66.5547 52.6823 66.6035 52.4707 66.7012 52.1777C66.7988 51.8522 66.7826 51.6569 66.6523 51.5918C66.6523 51.722 66.571 51.9336 66.4082 52.2266C66.2454 52.487 66.2943 52.6823 66.5547 52.8125ZM60.8418 54.082C60.0931 55.2214 59.3118 56.2305 58.498 57.1094C57.6842 57.9557 56.8379 58.8509 55.959 59.7949C56.61 59.6647 57.2285 59.388 57.8145 58.9648C58.4329 58.5091 58.9538 58.0046 59.377 57.4512C59.8327 56.8978 60.1908 56.3118 60.4512 55.6934C60.7116 55.0749 60.8418 54.5378 60.8418 54.082ZM42.5801 59.7949C42.6452 59.1439 42.5801 58.3464 42.3848 57.4023C42.222 56.4583 41.9779 55.6283 41.6523 54.9121C41.1966 55.7259 41.1315 56.6211 41.457 57.5977C41.8151 58.5417 42.1895 59.2741 42.5801 59.7949ZM63.3809 57.5C63.8366 57.4349 64.1784 57.1257 64.4062 56.5723C64.6341 55.9863 64.6829 55.5306 64.5527 55.2051C64.3574 55.5957 64.1458 55.9863 63.918 56.377C63.6901 56.735 63.5111 57.1094 63.3809 57.5ZM43.9473 60.4785C44.1426 60.6087 44.2891 60.804 44.3867 61.0645C44.5169 61.2923 44.6471 61.5039 44.7773 61.6992C45.7214 61.6992 46.2747 61.2923 46.4375 60.4785C46.2422 60.6087 46.0306 60.6087 45.8027 60.4785C45.5749 60.3483 45.3307 60.2181 45.0703 60.0879C44.8099 59.9577 44.5658 59.8926 44.3379 59.8926C44.1426 59.8926 44.0124 60.0879 43.9473 60.4785ZM45.168 62.9199C45.6888 62.8548 46.1934 62.8385 46.6816 62.8711C47.2025 62.9036 47.5931 62.7409 47.8535 62.3828C47.528 62.4479 47.3652 62.3177 47.3652 61.9922C47.3652 61.6667 47.1699 61.5365 46.7793 61.6016C46.7142 61.9271 46.4538 62.1387 45.998 62.2363C45.5749 62.3014 45.2982 62.5293 45.168 62.9199ZM49.3672 62.5781C49.6276 62.5781 49.9043 62.5781 50.1973 62.5781C50.4902 62.5781 50.6367 62.4154 50.6367 62.0898C50.2461 62.2201 49.9368 62.1549 49.709 61.8945C49.4811 61.6341 49.237 61.6667 48.9766 61.9922C49.1068 62.0573 49.1719 62.1387 49.1719 62.2363C49.1719 62.334 49.237 62.4479 49.3672 62.5781ZM53.1758 62.5781C52.7201 62.9688 52.2318 63.3594 51.7109 63.75C51.2227 64.1081 50.7669 64.4987 50.3438 64.9219C52.3945 64.401 54.1035 63.5221 55.4707 62.2852C54.9499 62.2201 54.5592 62.3177 54.2988 62.5781C54.071 62.8385 53.6966 62.8385 53.1758 62.5781ZM56.9355 64.3848C56.8053 64.3848 56.7565 64.3359 56.7891 64.2383C56.8216 64.1406 56.7728 64.0592 56.6426 63.9941C56.4473 64.3848 56.1868 64.7266 55.8613 65.0195C55.5358 65.2799 55.3079 65.6706 55.1777 66.1914C56.1217 65.931 56.8379 65.459 57.3262 64.7754C57.8145 64.0592 58.319 63.3268 58.8398 62.5781C58.1888 62.7083 57.7331 63.0013 57.4727 63.457C57.2448 63.8802 57.0658 64.1895 56.9355 64.3848ZM48.9766 63.7012C49.0417 63.9616 49.0417 64.1732 48.9766 64.3359C48.9115 64.4987 48.8464 64.694 48.7812 64.9219C49.1719 64.7917 49.4811 64.5801 49.709 64.2871C49.9368 63.9616 50.1484 63.6361 50.3438 63.3105C50.0182 63.3105 49.7578 63.3594 49.5625 63.457C49.3672 63.5547 49.1719 63.6361 48.9766 63.7012ZM52.9805 68.1934C53.4362 68.3236 53.7454 68.2747 53.9082 68.0469C54.071 67.819 54.2826 67.6074 54.543 67.4121C54.1523 67.4121 53.8594 67.5098 53.6641 67.7051C53.4688 67.9004 53.2409 68.0632 52.9805 68.1934ZM42.9707 69.707C43.7194 69.707 44.11 69.5443 44.1426 69.2188C43.4915 69.2188 43.1009 69.3815 42.9707 69.707ZM49.6602 70.6836C49.8555 70.8138 50.1322 70.8626 50.4902 70.8301C50.8809 70.7975 51.2064 70.7161 51.4668 70.5859C51.7272 70.4557 51.9388 70.3092 52.1016 70.1465C52.2643 69.9837 52.248 69.8372 52.0527 69.707C51.6621 69.8372 51.1901 69.9349 50.6367 70C50.1159 70.0651 49.7904 70.293 49.6602 70.6836ZM101.955 16.1914C102.606 15.3776 103.306 14.401 104.055 13.2617C104.803 12.0898 105.552 10.8529 106.301 9.55078C107.082 8.2487 107.847 6.89779 108.596 5.49805C109.377 4.09831 110.158 2.73112 110.939 1.39648C111.265 1.52669 111.444 1.78711 111.477 2.17773C111.802 2.04753 112.062 1.77083 112.258 1.34766C112.453 0.924479 112.681 0.533854 112.941 0.175781C113.202 0.240885 113.544 0.354818 113.967 0.517578C113.837 0.973307 113.755 1.36393 113.723 1.68945C113.69 2.01497 113.674 2.35677 113.674 2.71484C113.674 3.04036 113.658 3.41471 113.625 3.83789C113.592 4.22852 113.462 4.65169 113.234 5.10742C113.299 5.49805 113.397 5.66081 113.527 5.5957C113.69 5.5306 113.902 5.43294 114.162 5.30273C113.413 6.11654 112.941 7.38607 112.746 9.11133C113.137 8.98112 113.479 8.7207 113.771 8.33008C114.097 7.9069 114.39 7.46745 114.65 7.01172C114.911 6.52344 115.188 6.10026 115.48 5.74219C115.806 5.38411 116.164 5.17253 116.555 5.10742C116.294 6.05143 116.164 6.66992 116.164 6.96289C116.164 7.25586 116.099 7.72786 115.969 8.37891C115.708 7.98828 115.432 7.98828 115.139 8.37891C114.878 8.73698 114.602 9.22526 114.309 9.84375C114.016 10.4297 113.706 11.0319 113.381 11.6504C113.088 12.2689 112.844 12.6107 112.648 12.6758C112.518 13.0664 112.388 13.5384 112.258 14.0918C112.128 14.6452 111.997 15.1497 111.867 15.6055C111.737 16.0612 111.639 16.4844 111.574 16.875C111.509 17.2331 111.542 17.5098 111.672 17.7051C111.542 18.0306 111.395 18.1934 111.232 18.1934C111.102 18.1934 110.972 18.2259 110.842 18.291C109.637 22.2949 108.384 25.8757 107.082 29.0332C105.812 32.1582 104.364 35.2832 102.736 38.4082C102.736 38.8639 102.85 39.1243 103.078 39.1895C102.134 40.7194 101.174 42.4284 100.197 44.3164C99.2207 46.1719 98.3743 47.9948 97.6582 49.7852C97.0072 50.306 96.3236 51.1686 95.6074 52.373C94.8913 53.5775 94.5332 54.6191 94.5332 55.498C94.3379 55.8236 94.224 55.8561 94.1914 55.5957C94.1589 55.3353 94.0124 55.3353 93.752 55.5957C93.752 56.4095 93.5241 57.1582 93.0684 57.8418C92.6452 58.4928 92.3359 58.9811 92.1406 59.3066C92.0755 59.502 92.222 59.6322 92.5801 59.6973C92.9707 59.7624 93.0684 60.1042 92.873 60.7227C92.3522 60.4622 91.929 60.4948 91.6035 60.8203C91.3105 61.1458 91.0176 61.6178 90.7246 62.2363C90.4642 62.8223 90.2038 63.4733 89.9434 64.1895C89.6829 64.873 89.3574 65.4102 88.9668 65.8008C88.9668 66.0612 88.9993 66.1263 89.0645 65.9961C89.1296 65.8659 89.1947 65.7357 89.2598 65.6055C89.4551 65.7357 89.4714 65.9147 89.3086 66.1426C89.1458 66.3704 88.9993 66.7611 88.8691 67.3145C88.804 67.054 88.6901 66.9727 88.5273 67.0703C88.3971 67.168 88.2832 67.3307 88.1855 67.5586C88.0879 67.7865 88.0228 68.0469 87.9902 68.3398C87.9577 68.6328 87.9414 68.8932 87.9414 69.1211C87.681 69.5117 87.6159 69.4792 87.7461 69.0234C87.8763 68.5352 87.8763 68.2585 87.7461 68.1934C87.4206 68.584 87.2415 68.9909 87.209 69.4141C87.1764 69.8047 86.9974 70.3743 86.6719 71.123C86.3464 70.9277 86.1022 71.0905 85.9395 71.6113C85.8092 72.1322 85.679 72.5553 85.5488 72.8809C85.4186 72.5553 85.3047 72.4251 85.207 72.4902C85.1094 72.5553 85.028 72.7018 84.9629 72.9297C84.8978 73.1901 84.8327 73.4505 84.7676 73.7109C84.7025 73.9714 84.6699 74.1341 84.6699 74.1992C84.1491 75.1432 83.5143 75.8105 82.7656 76.2012C82.0169 76.5918 81.3822 77.2266 80.8613 78.1055C80.7962 77.8451 80.666 77.6497 80.4707 77.5195C80.2754 77.3893 80.0312 77.487 79.7383 77.8125C79.7383 78.0078 79.8522 78.0892 80.0801 78.0566C80.3405 78.0241 80.5358 78.138 80.666 78.3984C80.1452 78.5938 79.6732 78.5775 79.25 78.3496C78.8594 78.1217 78.5013 78.1706 78.1758 78.4961C78.2409 78.431 78.1758 78.6263 77.9805 79.082C77.8177 79.5703 77.541 79.6354 77.1504 79.2773C77.6061 78.3984 77.8828 77.5684 77.9805 76.7871C78.1107 76.0059 78.3711 75.1432 78.7617 74.1992C78.4362 74.5898 78.0456 74.9479 77.5898 75.2734C77.1667 75.6315 76.7923 75.7129 76.4668 75.5176C76.7272 74.6387 77.0039 73.7598 77.2969 72.8809C77.5898 72.0345 77.8828 71.123 78.1758 70.1465C78.5013 69.1699 78.8431 68.1445 79.2012 67.0703C79.5592 65.9635 80.015 64.7428 80.5684 63.4082C80.3079 63.8639 80.1289 63.9616 80.0312 63.7012C79.9661 63.4408 80.0801 63.0339 80.373 62.4805C80.373 63.1315 80.4707 63.2943 80.666 62.9688C80.8613 62.6432 81.0729 62.1387 81.3008 61.4551C81.5286 60.7389 81.7402 60.0716 81.9355 59.4531C82.1634 58.8021 82.2773 58.5254 82.2773 58.623C82.4727 58.1022 82.7005 57.6953 82.9609 57.4023C83.2214 57.0768 83.4167 56.8164 83.5469 56.6211C83.6771 56.2956 83.6445 56.0677 83.4492 55.9375C83.2539 55.7747 83.319 55.4004 83.6445 54.8145C83.7096 55.0749 83.7096 55.4004 83.6445 55.791C83.7747 55.6608 83.8887 55.4004 83.9863 55.0098C84.084 54.6191 84.2793 54.554 84.5723 54.8145C84.4421 54.4238 84.5234 53.9844 84.8164 53.4961C85.1094 52.9753 85.4186 52.6497 85.7441 52.5195C85.9395 51.9987 86.0371 51.5755 86.0371 51.25C86.0371 50.8919 86.0697 50.5339 86.1348 50.1758C86.6556 49.7201 87.1113 49.069 87.502 48.2227C87.9251 47.3438 88.3483 46.5299 88.7715 45.7812C88.9017 45.8464 88.9342 46.0254 88.8691 46.3184C88.804 46.5788 88.7389 46.8066 88.6738 47.002C88.804 47.0671 88.8854 46.9043 88.918 46.5137C88.9505 46.0905 88.9993 45.7812 89.0645 45.5859C89.1947 45.3255 89.1621 45.2441 88.9668 45.3418C88.7715 45.4395 88.6738 45.5534 88.6738 45.6836C88.6087 45.6185 88.625 45.5046 88.7227 45.3418C88.8203 45.179 88.918 45.0163 89.0156 44.8535C89.1133 44.6908 89.2272 44.5931 89.3574 44.5605C89.4876 44.528 89.5527 44.6094 89.5527 44.8047C89.2923 44.056 89.5202 42.9167 90.2363 41.3867C90.3665 41.5169 90.3503 41.875 90.1875 42.4609C90.0247 43.0143 89.8783 43.3236 89.748 43.3887C90.0085 43.3236 90.2038 43.1445 90.334 42.8516C90.4967 42.5586 90.627 42.2656 90.7246 41.9727C90.8223 41.6471 90.9199 41.3542 91.0176 41.0938C91.1152 40.8333 91.2943 40.7031 91.5547 40.7031C91.75 39.5638 91.9779 38.4733 92.2383 37.4316C92.5312 36.3574 92.9707 35.6413 93.5566 35.2832C93.5566 34.3392 93.8008 33.444 94.2891 32.5977C94.8099 31.7188 95.0052 30.8561 94.875 30.0098C95.2656 29.6842 95.6562 29.2122 96.0469 28.5938C96.4375 27.9427 96.7142 27.2103 96.877 26.3965C97.821 24.9967 98.6999 23.3854 99.5137 21.5625C100.327 19.707 101.141 17.9167 101.955 16.1914ZM108.938 21.123C109.068 21.0579 109.198 20.8952 109.328 20.6348C109.491 20.3418 109.605 20.0488 109.67 19.7559C109.735 19.4629 109.751 19.1699 109.719 18.877C109.686 18.5514 109.605 18.3561 109.475 18.291C109.475 18.8118 109.296 19.3652 108.938 19.9512C108.612 20.5371 108.612 20.9277 108.938 21.123ZM103.859 34.5996C104.12 33.7207 104.396 32.9069 104.689 32.1582C105.015 31.377 105.324 30.6445 105.617 29.9609C105.91 29.2448 106.219 28.5124 106.545 27.7637C106.87 26.9824 107.212 26.1198 107.57 25.1758C107.701 25.1758 107.766 25.3223 107.766 25.6152C107.635 25.4199 107.619 25.1595 107.717 24.834C107.814 24.4759 107.928 24.1341 108.059 23.8086C108.189 23.4831 108.286 23.1738 108.352 22.8809C108.417 22.5553 108.417 22.2949 108.352 22.0996C108.221 22.4251 108.059 22.7832 107.863 23.1738C107.668 23.5319 107.505 23.4668 107.375 22.9785C106.496 24.7038 105.715 26.4453 105.031 28.2031C104.38 29.9284 103.729 31.6862 103.078 33.4766C102.46 35.2344 101.792 36.9922 101.076 38.75C100.393 40.5078 99.5788 42.2982 98.6348 44.1211C99.0254 43.9258 99.3509 43.584 99.6113 43.0957C99.9043 42.5749 100.181 42.0052 100.441 41.3867C100.702 40.7357 100.962 40.1009 101.223 39.4824C101.516 38.8314 101.825 38.2292 102.15 37.6758C102.281 37.3503 102.492 37.041 102.785 36.748C103.111 36.4551 103.339 35.9993 103.469 35.3809C103.339 35.1855 103.29 34.8275 103.322 34.3066C103.355 33.7533 103.469 33.4115 103.664 33.2812C103.534 33.6068 103.501 33.8835 103.566 34.1113C103.632 34.3066 103.729 34.4694 103.859 34.5996ZM100.344 21.9043C100.474 21.6439 100.604 21.416 100.734 21.2207C100.897 20.9928 100.832 20.7812 100.539 20.5859C100.409 20.7161 100.311 20.9603 100.246 21.3184C100.181 21.6439 100.214 21.8392 100.344 21.9043ZM97.5605 27.4219C97.5605 27.3568 97.5931 27.2917 97.6582 27.2266C97.7233 27.1289 97.7559 27.1126 97.7559 27.1777C97.6257 27.8288 97.6582 28.138 97.8535 28.1055C98.0488 27.2266 98.1139 26.5592 98.0488 26.1035C97.9186 26.1686 97.7559 26.3639 97.5605 26.6895C97.3652 26.9824 97.3652 27.2266 97.5605 27.4219ZM96.7793 28.4961C96.6491 28.8867 96.6491 29.1634 96.7793 29.3262C96.9095 29.4564 97.0072 29.6517 97.0723 29.9121C97.2676 29.7168 97.349 29.5052 97.3164 29.2773C97.2839 29.0169 97.3327 28.724 97.4629 28.3984C97.2025 28.2031 96.9746 28.2357 96.7793 28.4961ZM96.2422 30.4004C96.0469 30.9212 95.7702 31.4746 95.4121 32.0605C95.054 32.6139 94.875 33.1999 94.875 33.8184C95.2005 33.2975 95.5749 32.6465 95.998 31.8652C96.4212 31.084 96.6816 30.498 96.7793 30.1074C96.4863 30.6283 96.3073 30.7259 96.2422 30.4004ZM92.6777 38.4082C92.8079 38.0827 93.0195 37.7734 93.3125 37.4805C93.6055 37.1549 93.6868 36.8294 93.5566 36.5039C93.4264 36.8294 93.2148 37.1549 92.9219 37.4805C92.6289 37.7734 92.5475 38.0827 92.6777 38.4082ZM92.5801 46.3184C92.515 46.3835 92.4173 46.5299 92.2871 46.7578C92.1895 46.9857 92.1081 47.2298 92.043 47.4902C91.9779 47.7507 91.9128 48.0111 91.8477 48.2715C91.7826 48.4993 91.7826 48.6458 91.8477 48.7109C92.1732 48.0599 92.4661 47.5391 92.7266 47.1484C93.0195 46.7253 93.1986 46.237 93.2637 45.6836C93.1335 45.7487 93.0358 45.9115 92.9707 46.1719C92.9056 46.3997 92.7754 46.4486 92.5801 46.3184ZM83.3516 59.6973C83.4167 59.502 83.5632 59.209 83.791 58.8184C84.0189 58.3952 84.0677 58.0534 83.9375 57.793C83.8073 57.9232 83.6445 58.2487 83.4492 58.7695C83.2539 59.2578 83.2214 59.5671 83.3516 59.6973ZM80.666 65.8008C81.1868 65.8659 81.4635 65.5729 81.4961 64.9219C81.5286 64.2383 81.61 63.571 81.7402 62.9199C82.0007 62.985 82.1471 63.1152 82.1797 63.3105C82.3099 62.7897 82.5052 62.2363 82.7656 61.6504C83.026 61.0319 83.026 60.5762 82.7656 60.2832C82.7005 60.5436 82.5866 60.918 82.4238 61.4062C82.2611 61.862 82.0658 62.3665 81.8379 62.9199C81.6426 63.4408 81.4473 63.9616 81.252 64.4824C81.0566 64.9707 80.8613 65.4102 80.666 65.8008ZM78.3711 72.7832C78.5664 72.4577 78.778 72.002 79.0059 71.416C79.2337 70.8626 79.4616 70.293 79.6895 69.707C79.9499 69.0885 80.1615 68.5352 80.3242 68.0469C80.487 67.5586 80.5358 67.2168 80.4707 67.0215C80.3405 67.4121 80.1289 67.8841 79.8359 68.4375C79.5755 68.9583 79.3314 69.4792 79.1035 70C78.8757 70.5208 78.6803 71.0254 78.5176 71.5137C78.3548 72.0345 78.306 72.4577 78.3711 72.7832ZM81.1543 72.8809C81.0892 72.6204 81.138 72.2786 81.3008 71.8555C81.4635 71.4323 81.4798 71.1068 81.3496 70.8789C80.6009 71.3997 80.2591 72.0671 80.3242 72.8809C80.4219 73.6947 80.2591 74.5736 79.8359 75.5176C79.7057 75.1921 79.5755 75.1107 79.4453 75.2734C79.3151 75.4362 79.1849 75.7454 79.0547 76.2012C79.3151 76.3314 79.5592 76.2174 79.7871 75.8594C80.0475 75.5013 80.2591 75.0618 80.4219 74.541C80.5846 74.0527 80.7311 73.6133 80.8613 73.2227C80.9915 72.8646 81.0892 72.7507 81.1543 72.8809Z" fill="#F5C231"/>
</svg>
