<svg width="46" height="46" viewBox="0 0 46 46" fill="none" xmlns="http://www.w3.org/2000/svg">
<path d="M45.2856 0.719971C45.2856 0.719971 41.2183 0.73557 39.0694 2.42347C39.2912 2.98198 39.4631 3.57396 39.5176 4.21663C39.5741 4.57621 39.6389 5.40609 39.4879 6.57762C39.859 6.53747 40.2372 6.51786 40.6236 6.51786C41.1515 6.51786 41.5553 6.5566 41.7294 6.57762C42.3701 6.62449 42.992 6.80787 43.5524 7.02591C45.2958 4.89803 45.2856 0.719971 45.2856 0.719971ZM36.1704 1.22803C34.7101 1.48722 32.6812 3.28586 31.9266 5.38218C32.772 6.24767 33.6727 7.46965 34.1681 9.05815C34.2867 9.43686 34.3574 9.82586 34.4071 10.2237L37.4555 7.17534C37.4659 7.11988 37.4748 7.08136 37.4852 7.02591C37.8132 5.40394 37.6048 4.45572 37.6048 4.45572C37.5081 2.82992 36.1704 1.22803 36.1704 1.22803ZM29.1173 5.53161C28.0921 6.0796 26.9696 7.69177 26.5173 9.44667C27.4937 10.2883 28.839 11.7421 29.476 13.7801C29.5936 14.1588 29.6653 14.5478 29.7151 14.9457L32.4646 12.1962C32.631 11.3785 32.6128 10.4781 32.345 9.62599C31.5245 6.99889 29.1173 5.53161 29.1173 5.53161ZM40.6832 8.43055C40.1582 8.42803 39.4509 8.48362 38.7107 8.66963L35.8716 11.5088C36.0494 11.5404 36.2084 11.5506 36.3796 11.5985C38.0198 12.0087 39.6126 13.0466 40.743 14.1388C42.7943 13.3546 44.5261 11.3613 44.7776 9.92485C44.7776 9.92485 43.1757 8.58596 41.5499 8.49033C41.5499 8.49033 41.2082 8.43303 40.6832 8.43055ZM24.3954 10.2237C23.4333 10.7373 22.3822 12.2122 21.8849 13.8399C22.869 14.6633 24.2995 16.1399 24.9632 18.263C25.0818 18.6417 25.1525 19.0606 25.2023 19.4585L27.7426 16.9182C27.908 16.1005 27.9188 15.201 27.6529 14.348C26.8324 11.7209 24.3954 10.2237 24.3954 10.2237ZM34.9451 13.302C34.621 13.293 34.2831 13.3343 33.9589 13.3916L31.1795 16.2009C31.5926 16.2621 31.9711 16.3525 32.345 16.4998C33.7432 17.0487 35.3896 18.2982 36.4693 19.4286C38.2605 18.9934 39.9164 17.8429 40.474 16.7986C40.474 16.7977 38.7227 14.1419 35.9014 13.4514C35.594 13.3634 35.2692 13.3111 34.9451 13.302ZM19.8826 14.7365C18.8966 15.2625 17.8551 16.7967 17.3722 18.4722C18.3543 19.3023 19.7365 20.7758 20.3906 22.8655C20.5102 23.2442 20.579 23.6322 20.6297 24.031L23.2597 21.401C23.4261 20.5843 23.406 19.7138 23.1401 18.8607C22.3196 16.2336 19.8826 14.7365 19.8826 14.7365ZM30.4622 18.0239C30.0491 18.0069 29.6225 18.0544 29.207 18.1435L26.6667 20.6838C27.0798 20.745 27.4882 20.8353 27.8621 20.9826C29.3139 21.5526 31.0002 22.869 32.076 24.031C33.7334 23.5423 35.2308 22.497 35.752 21.5206C35.753 21.5196 33.9165 19.1505 31.6576 18.263C31.2832 18.1157 30.8753 18.0412 30.4622 18.0239ZM15.31 19.309C14.3154 19.8398 13.246 21.381 12.7697 23.0747C13.7509 23.9076 15.1369 25.3869 15.7882 27.4679C15.9068 27.8466 15.9776 28.2356 16.0273 28.6334L18.6871 25.9736C18.8545 25.155 18.8354 24.2873 18.5676 23.4333C17.7461 20.8052 15.31 19.309 15.31 19.309ZM25.3517 22.5367C25.1423 22.556 24.9319 22.6118 24.7241 22.6562L22.0941 25.2563C22.5082 25.3175 22.9156 25.4079 23.2896 25.5552C25.1095 26.2696 26.6186 27.6661 27.4736 28.5737C29.1816 28.1022 30.7355 27.0356 31.2691 26.0333C31.271 26.0333 29.4038 23.6633 27.1449 22.7758C26.5832 22.5548 25.98 22.4784 25.3517 22.5367ZM10.7076 23.9115C9.27306 24.6765 7.64033 27.5576 7.92819 29.9484C8.32099 32.3877 9.68036 33.5954 10.7375 33.8934L0.994653 43.6661C0.62072 44.041 0.62072 44.6361 0.994653 45.0109C1.18114 45.1965 1.4372 45.2799 1.68203 45.2799C1.9259 45.2799 2.15303 45.1974 2.33952 45.0109L12.1421 35.2382C12.4709 36.3066 13.6672 37.6784 16.0572 37.9878C18.448 38.2737 21.3291 36.6429 22.0941 35.2084C22.0941 35.2074 20.2288 32.8383 17.9699 31.9508C17.2211 31.6562 16.3513 31.6553 15.5192 31.8313L12.172 35.1785V33.8336H10.8271L14.0548 30.5761C14.2212 29.7584 14.232 28.8898 13.9652 28.0357C13.1437 25.4086 10.7076 23.9115 10.7076 23.9115ZM20.7792 27.1093C20.5699 27.1286 20.3593 27.1848 20.1515 27.2288L17.4917 29.8886C17.9048 29.9499 18.2833 30.0402 18.6573 30.1875C19.7733 30.6255 21.642 31.8984 22.8413 33.1761C24.5713 32.7142 26.1562 31.6196 26.6966 30.6059C26.6966 30.6059 24.8312 28.2358 22.5723 27.3483C22.0107 27.1267 21.4069 27.0513 20.7792 27.1093Z" fill="#F5C231"/>
</svg>
