<svg width="46" height="46" viewBox="0 0 46 46" fill="none" xmlns="http://www.w3.org/2000/svg">
<path d="M37.8287 15.6096V14.2111C39.5897 13.1753 40.7291 11.259 40.7291 9.18724V6.70119C40.7291 3.49003 38.1395 0.900391 34.9283 0.900391C31.7171 0.900391 29.0757 3.49003 29.0757 6.70119V9.18724C29.0757 11.2072 30.1116 13.0717 31.8725 14.1076V15.6096C31.0956 15.8167 30.3705 16.1275 29.6454 16.5418C28.506 13.9004 25.8646 12.0358 22.8088 12.0358C19.8048 12.0358 17.2669 13.7968 16.0757 16.3864C15.4024 16.0757 14.7291 15.7649 14.0558 15.6096V14.2111C15.8167 13.1753 16.9562 11.259 16.9562 9.18724V6.70119C16.9562 3.49003 14.3665 0.900391 11.1554 0.900391C7.94423 0.900391 5.35459 3.49003 5.35459 6.70119V9.18724C5.35459 11.2072 6.39045 13.0717 8.15141 14.1076V15.6096C3.49005 16.9562 0.330688 21.1514 0.330688 26.0199C0.330688 26.4343 0.693238 26.7968 1.10758 26.7968H16.4383C16.4901 26.7968 16.5418 26.7968 16.5936 26.7968C17.2152 27.7809 18.0956 28.6096 19.1315 29.2311V31.5617C12.9681 33.2191 8.77292 38.7609 8.77292 45.1833C8.77292 45.5976 9.13547 45.9602 9.54981 45.9602H36.2231C36.6375 45.9602 37 45.5976 37 45.1833C37 38.8127 32.5976 33.1673 26.4861 31.5617V29.3347C27.5737 28.7131 28.4542 27.8845 29.1275 26.8486H45.0279C45.4422 26.8486 45.8048 26.486 45.8048 26.0717C45.753 21.2032 42.4383 16.9044 37.8287 15.6096ZM1.88447 25.2948C2.19523 21.255 5.09563 17.9402 9.08368 17.008C9.44623 16.9044 9.70519 16.5936 9.70519 16.2311V13.6414C9.70519 13.3307 9.54981 13.0717 9.29085 12.9681C7.84065 12.243 6.90838 10.7928 6.90838 9.18724V6.70119C6.90838 4.37051 8.82471 2.45418 11.1554 2.45418C13.4861 2.45418 15.4024 4.37051 15.4024 6.70119V9.18724C15.4024 10.7928 14.4183 12.2948 12.9681 13.0199C12.7092 13.1235 12.502 13.4343 12.502 13.745V16.2311C12.502 16.5936 12.761 16.9044 13.1235 17.008C14.004 17.2151 14.8327 17.5259 15.6096 17.9402C15.506 18.4582 15.4542 18.9761 15.4542 19.5458V22.8606C15.4542 23.6892 15.6096 24.5179 15.8685 25.2948H1.88447ZM25.3466 28.1434C25.0877 28.247 24.8805 28.5578 24.8805 28.8685V32.1833C24.8805 32.5458 25.1395 32.8566 25.502 32.9602C30.992 34.1514 35.0319 38.9163 35.3944 44.4582H10.3267C10.6375 38.9163 14.5737 34.255 20.0638 33.0119C20.4263 32.9084 20.6853 32.5976 20.6853 32.2351V28.8167C20.6853 28.506 20.5299 28.247 20.2709 28.1434C18.251 27.1594 17.008 25.1394 17.008 22.9123V19.5976C17.008 16.3347 19.6494 13.745 22.8606 13.745C26.0717 13.745 28.7132 16.3864 28.7132 19.5976V22.8606C28.7132 25.0876 27.4183 27.1594 25.3466 28.1434ZM29.8526 25.2948C30.1116 24.5179 30.2669 23.6892 30.2669 22.8606V19.5458C30.2669 19.0797 30.2152 18.5617 30.1116 18.1474C30.9403 17.6295 31.8725 17.2669 32.8048 17.0598C33.1673 16.9562 33.4263 16.6454 33.4263 16.2829V13.6932C33.4263 13.3825 33.2709 13.1235 33.012 13.0199C31.5618 12.2948 30.6295 10.8446 30.6295 9.23904V6.75298C30.6295 4.4223 32.5458 2.50597 34.8765 2.50597C37.2072 2.50597 39.1235 4.4223 39.1235 6.75298V9.23904C39.1235 10.8446 38.1395 12.3466 36.6893 13.0717C36.4303 13.1753 36.2231 13.486 36.2231 13.7968V16.2829C36.2231 16.6454 36.4821 16.9562 36.8446 17.0598C40.8327 17.9402 43.7849 21.3586 44.1474 25.3466L29.8526 25.2948Z" fill="#F5C231"/>
</svg>
