<svg width="45" height="45" viewBox="0 0 45 45" fill="none" xmlns="http://www.w3.org/2000/svg">
<path d="M45 14.5949C45 13.1434 44.4234 11.7513 43.397 10.7249C42.3706 9.69853 40.9785 9.12191 39.527 9.12191C39.0349 9.1226 38.5447 9.18387 38.0676 9.30434C36.5547 6.49244 34.3085 4.1428 31.5675 2.50498C28.8265 0.867158 25.693 0.00231934 22.5 0.00231934C19.307 0.00231934 16.1735 0.867158 13.4325 2.50498C10.6915 4.1428 8.4453 6.49244 6.93243 9.30434C6.45528 9.18387 5.9651 9.1226 5.47297 9.12191C4.02145 9.12191 2.62938 9.69853 1.603 10.7249C0.576615 11.7513 0 13.1434 0 14.5949C0.0021938 15.5937 0.274692 16.5733 0.78859 17.4298C1.30249 18.2863 2.03863 18.9878 2.91892 19.4597C2.61178 19.791 2.43844 20.2243 2.43243 20.676V21.8922C2.43243 22.376 2.62464 22.84 2.96676 23.1822C3.30889 23.5243 3.77292 23.7165 4.25676 23.7165H4.31757L6.99324 42.3854C7.10375 43.1128 7.47121 43.7765 8.02902 44.2562C8.58683 44.7359 9.29807 44.9999 10.0338 45.0003H35.027C35.7631 45.0012 36.475 44.7376 37.0331 44.2577C37.5911 43.7778 37.9583 43.1133 38.0676 42.3854L40.7432 23.7165H40.8041C41.2879 23.7165 41.7519 23.5243 42.094 23.1822C42.4362 22.84 42.6284 22.376 42.6284 21.8922V20.676C42.6319 20.4511 42.5908 20.2278 42.5072 20.019C42.4237 19.8102 42.2995 19.6201 42.1419 19.4597C43.0062 18.9743 43.7262 18.2682 44.2283 17.4135C44.7305 16.5588 44.9967 15.5862 45 14.5949ZM8.20946 42.203L5.59459 23.7165H12.8311L14.5338 43.7841H10.0338C9.58928 43.788 9.15862 43.6296 8.8227 43.3384C8.48678 43.0473 8.26871 42.6436 8.20946 42.203ZM30.9527 23.7165L29.25 43.7841H23.1081V23.7165H30.9527ZM21.8919 43.7841H15.75L14.0473 23.7165H21.8919V43.7841ZM36.7905 42.203C36.7313 42.6436 36.5132 43.0473 36.1773 43.3384C35.8414 43.6296 35.4107 43.788 34.9662 43.7841H30.4662L32.1689 23.7165H39.4054L36.7905 42.203ZM40.7432 20.0679C40.8245 20.0625 40.906 20.0745 40.9822 20.1032C41.0584 20.1318 41.1276 20.1765 41.1852 20.234C41.2428 20.2916 41.2874 20.3608 41.316 20.437C41.3447 20.5133 41.3567 20.5947 41.3514 20.676V21.8922C41.3567 21.9734 41.3447 22.0549 41.316 22.1311C41.2874 22.2073 41.2428 22.2765 41.1852 22.3341C41.1276 22.3917 41.0584 22.4363 40.9822 22.465C40.906 22.4936 40.8245 22.5057 40.7432 22.5003H4.25676C4.17551 22.5057 4.09405 22.4936 4.01783 22.465C3.94162 22.4363 3.8724 22.3917 3.81483 22.3341C3.75725 22.2765 3.71264 22.2073 3.68398 22.1311C3.65532 22.0549 3.64327 21.9734 3.64865 21.8922V20.676C3.64327 20.5947 3.65532 20.5133 3.68398 20.437C3.71264 20.3608 3.75725 20.2916 3.81483 20.234C3.8724 20.1765 3.94162 20.1318 4.01783 20.1032C4.09405 20.0745 4.17551 20.0625 4.25676 20.0679H40.7432ZM39.527 18.8516H5.47297C4.34401 18.8516 3.26129 18.4032 2.46299 17.6049C1.66469 16.8066 1.21622 15.7238 1.21622 14.5949C1.21622 13.4659 1.66469 12.3832 2.46299 11.5849C3.26129 10.7866 4.34401 10.3381 5.47297 10.3381C6.01323 10.351 6.54757 10.4537 7.05405 10.6422C7.19949 10.7042 7.36338 10.7072 7.51096 10.6504C7.65855 10.5937 7.77821 10.4816 7.84459 10.3381C9.20197 7.59466 11.2992 5.28524 13.8996 3.67057C16.5 2.0559 19.4999 1.20027 22.5608 1.20027C25.6217 1.20027 28.6217 2.0559 31.222 3.67057C33.8224 5.28524 35.9197 7.59466 37.277 10.3381C37.3434 10.4816 37.4631 10.5937 37.6107 10.6504C37.7582 10.7072 37.9221 10.7042 38.0676 10.6422C38.553 10.4539 39.0673 10.351 39.5878 10.3381C40.7168 10.3381 41.7995 10.7866 42.5978 11.5849C43.3961 12.3832 43.8446 13.4659 43.8446 14.5949C43.8447 15.159 43.7326 15.7176 43.5149 16.238C43.2971 16.7585 42.9781 17.2305 42.5764 17.6266C42.1747 18.0227 41.6982 18.3349 41.1747 18.5452C40.6512 18.7555 40.0911 18.8597 39.527 18.8516Z" fill="#F5C231"/>
<path d="M22.5 4.50002C22.1129 4.29288 21.6711 4.21089 21.2354 4.26535C20.7998 4.3198 20.3918 4.50802 20.0676 4.80408C19.6844 5.19408 19.4666 5.71688 19.4594 6.26353C19.4549 6.53556 19.5066 6.80559 19.6112 7.05672C19.7158 7.30786 19.8712 7.53468 20.0676 7.72299L22.0743 9.72975C22.188 9.84117 22.3408 9.90358 22.5 9.90358C22.6592 9.90358 22.812 9.84117 22.9257 9.72975L24.9324 7.72299C25.1203 7.53547 25.2694 7.31272 25.3711 7.0675C25.4729 6.82229 25.5252 6.55942 25.5252 6.29394C25.5252 6.02846 25.4729 5.76559 25.3711 5.52038C25.2694 5.27516 25.1203 5.05241 24.9324 4.86489C24.6385 4.52186 24.2309 4.29617 23.7842 4.22917C23.3375 4.16216 22.8816 4.25832 22.5 4.50002ZM24.0811 6.81083L22.5 8.39191L20.9189 6.81083C20.7723 6.65421 20.6907 6.44768 20.6907 6.23313C20.6907 6.01857 20.7723 5.81205 20.9189 5.65543C20.9882 5.57907 21.0727 5.518 21.1669 5.47612C21.2611 5.43424 21.3631 5.41246 21.4662 5.41218C21.6929 5.41091 21.9111 5.49819 22.0743 5.65543C22.188 5.76685 22.3408 5.82926 22.5 5.82926C22.6592 5.82926 22.812 5.76685 22.9257 5.65543C23.0789 5.50221 23.2867 5.41613 23.5034 5.41613C23.72 5.41613 23.9278 5.50221 24.0811 5.65543C24.2343 5.80864 24.3204 6.01645 24.3204 6.23313C24.3204 6.44981 24.2343 6.65762 24.0811 6.81083Z" fill="#F5C231"/>
<path d="M31.6216 11.1891C31.313 11.0102 30.9626 10.916 30.6058 10.916C30.2491 10.9161 29.8987 11.0104 29.5901 11.1893C29.2815 11.3683 29.0256 11.6257 28.8485 11.9353C28.6713 12.2449 28.579 12.5959 28.5811 12.9526C28.5765 13.2246 28.6282 13.4947 28.7328 13.7458C28.8375 13.9969 28.9928 14.2238 29.1892 14.4121L31.196 16.4188C31.3096 16.5303 31.4625 16.5927 31.6216 16.5927C31.7808 16.5927 31.9336 16.5303 32.0473 16.4188L34.0541 14.4121C34.242 14.2246 34.3911 14.0018 34.4928 13.7566C34.5945 13.5114 34.6469 13.2485 34.6469 12.983C34.6469 12.7176 34.5945 12.4547 34.4928 12.2095C34.3911 11.9642 34.242 11.7415 34.0541 11.554C33.7602 11.2109 33.3525 10.9853 32.9058 10.9183C32.4591 10.8512 32.0032 10.9474 31.6216 11.1891ZM33.2027 13.4999L31.6216 15.081L30.0405 13.4999C29.8939 13.3433 29.8123 13.1368 29.8123 12.9222C29.8123 12.7077 29.8939 12.5011 30.0405 12.3445C30.1099 12.2682 30.1943 12.2071 30.2886 12.1652C30.3828 12.1233 30.4847 12.1016 30.5878 12.1013C30.8145 12.1 31.0327 12.1873 31.196 12.3445C31.3096 12.4559 31.4625 12.5183 31.6216 12.5183C31.7808 12.5183 31.9336 12.4559 32.0473 12.3445C32.1232 12.2686 32.2132 12.2085 32.3124 12.1674C32.4115 12.1264 32.5177 12.1052 32.625 12.1052C32.7323 12.1052 32.8385 12.1264 32.9377 12.1674C33.0368 12.2085 33.1268 12.2686 33.2027 12.3445C33.2786 12.4204 33.3388 12.5104 33.3798 12.6096C33.4209 12.7087 33.442 12.8149 33.442 12.9222C33.442 13.0295 33.4209 13.1357 33.3798 13.2349C33.3388 13.334 33.2786 13.4241 33.2027 13.4999Z" fill="#F5C231"/>
<path d="M14.5946 11.1891C14.286 11.0102 13.9355 10.916 13.5788 10.916C13.222 10.9161 12.8716 11.0104 12.563 11.1893C12.2544 11.3683 11.9986 11.6257 11.8214 11.9353C11.6442 12.2449 11.552 12.5959 11.554 12.9526C11.5495 13.2246 11.6012 13.4947 11.7058 13.7458C11.8104 13.9969 11.9658 14.2238 12.1622 14.4121L14.1689 16.4188C14.2826 16.5303 14.4354 16.5927 14.5946 16.5927C14.7538 16.5927 14.9066 16.5303 15.0203 16.4188L17.027 14.4121C17.2149 14.2246 17.364 14.0018 17.4657 13.7566C17.5675 13.5114 17.6198 13.2485 17.6198 12.983C17.6198 12.7176 17.5675 12.4547 17.4657 12.2095C17.364 11.9642 17.2149 11.7415 17.027 11.554C16.7331 11.2109 16.3255 10.9853 15.8788 10.9183C15.4321 10.8512 14.9762 10.9474 14.5946 11.1891ZM16.1757 13.4999L14.5946 15.081L13.0135 13.4999C12.8669 13.3433 12.7853 13.1368 12.7853 12.9222C12.7853 12.7077 12.8669 12.5011 13.0135 12.3445C13.0828 12.2682 13.1673 12.2071 13.2615 12.1652C13.3558 12.1233 13.4577 12.1016 13.5608 12.1013C13.7875 12.1 14.0057 12.1873 14.1689 12.3445C14.2826 12.4559 14.4354 12.5183 14.5946 12.5183C14.7538 12.5183 14.9066 12.4559 15.0203 12.3445C15.0961 12.2686 15.1862 12.2085 15.2853 12.1674C15.3844 12.1264 15.4907 12.1052 15.598 12.1052C15.7053 12.1052 15.8115 12.1264 15.9106 12.1674C16.0097 12.2085 16.0998 12.2686 16.1757 12.3445C16.2515 12.4204 16.3117 12.5104 16.3528 12.6096C16.3938 12.7087 16.415 12.8149 16.415 12.9222C16.415 13.0295 16.3938 13.1357 16.3528 13.2349C16.3117 13.334 16.2515 13.4241 16.1757 13.4999Z" fill="#F5C231"/>
</svg>
