<svg width="42" height="42" viewBox="0 0 42 42" fill="none" xmlns="http://www.w3.org/2000/svg">
<path d="M15.475 18.725L17.5875 21L1.825 35.7875C0.525002 37.0875 0.362502 39.2 1.6625 40.5C2.9625 41.8 5.075 41.6375 6.375 40.3375L21.1625 24.7375L35.4625 40.3375C36.925 41.8 39.2 41.8 40.5 40.3375C41.9625 38.875 41.9625 36.7625 40.5 35.3L24.7375 20.8375L25.55 20.025L26.3625 20.8375C26.85 21.325 27.6625 21.65 28.475 21.65C29.2875 21.65 30.1 21.325 30.5875 20.8375L41.3125 10.1125C41.6375 9.78749 41.6375 9.13749 41.3125 8.81249L40.0125 7.51249C39.6875 7.18749 39.0375 7.18749 38.7125 7.51249L31.075 15.15C30.9125 15.3125 30.5875 15.475 30.2625 15.3125C29.9375 15.15 29.9375 14.6625 30.1 14.5L37.7375 6.86249C37.9 6.69999 38.0625 6.53749 38.0625 6.21249C38.0625 6.04999 37.9 5.72499 37.7375 5.56249L36.4375 4.26249C36.1125 3.93749 35.4625 3.93749 35.1375 4.26249L27.5 11.9C27.3375 12.0625 27.0125 12.225 26.6875 12.0625C26.3625 11.9 26.3625 11.4125 26.525 11.25L34.1625 3.61249C34.4875 3.28749 34.4875 2.63749 34.1625 2.31249L32.8625 1.01249C32.5375 0.687487 31.8875 0.687487 31.5625 1.01249L20.8375 11.7375C19.7 12.875 19.7 14.825 20.8375 15.9625L21.65 16.775L21 17.5875L18.725 15.475C20.025 12.3875 19.05 8.16249 15.9625 5.07499C12.3875 1.49999 5.4 -1.10001 2.15 2.14999C-1.1 5.39999 1.6625 12.55 4.9125 15.9625C7.675 18.725 12.0625 20.1875 15.475 18.725ZM5.4 39.525C4.5875 40.3375 3.2875 40.3375 2.475 39.525C1.6625 38.7125 1.6625 37.4125 2.475 36.6L18.2375 21.8125L18.4 21.975L20.025 23.7625C20.1875 23.7625 5.4 39.525 5.4 39.525ZM22.7875 17.5875C22.95 17.425 23.1125 17.1 23.1125 16.775C23.1125 16.45 22.95 16.125 22.7875 15.9625L21.975 15.15C21.325 14.5 21.325 13.3625 21.975 12.7125L32.5375 2.14999L33.35 2.96249L25.875 10.275C25.0625 11.0875 25.225 12.55 26.2 13.0375C26.85 13.525 27.825 13.3625 28.475 12.7125L35.95 5.23749L36.7625 6.04999L29.125 13.6875C28.3125 14.5 28.475 15.9625 29.45 16.45C30.1 16.9375 31.075 16.775 31.725 16.125L39.2 8.64999L40.0125 9.46249L29.45 20.025C28.8 20.675 27.6625 20.675 27.0125 20.025L26.2 19.2125C26.0375 19.05 25.7125 18.8875 25.3875 18.8875C25.0625 18.8875 24.7375 19.05 24.575 19.2125L23.7625 20.025L23.275 19.7L21.975 18.4L22.7875 17.5875ZM39.3625 36.1125C40.3375 37.0875 40.3375 38.55 39.3625 39.525C38.3875 40.5 36.925 40.5 36.1125 39.525C34.65 37.9 18.075 19.8625 16.45 18.2375C17.1 17.75 17.5875 17.2625 18.075 16.6125C25.7125 23.6 31.725 28.9625 39.3625 36.1125ZM2.9625 2.96249C5.5625 0.362487 11.9 2.79999 14.9875 5.72499C20.025 10.7625 18.5625 17.9125 12.55 17.9125C10.275 17.9125 7.8375 16.775 5.8875 14.825C2.9625 12.0625 0.200003 5.72499 2.9625 2.96249Z" fill="#F5C231"/>
</svg>
