<svg width="45" height="45" viewBox="0 0 45 45" fill="none" xmlns="http://www.w3.org/2000/svg">
<path d="M43.9871 1.01298C43.5109 0.536853 42.7399 0.536853 42.2638 1.01298L28.0206 15.2561C26.3217 15.8208 22.7483 17.0412 18.8483 18.5687C16.1443 19.6282 13.2884 20.8323 10.7948 22.0705C8.29719 23.3153 6.17169 24.5682 4.85869 25.8373C1.92801 28.6932 0.361506 32.33 0.358256 35.7173C0.355006 38.08 1.13826 40.3388 2.78438 42.028C4.49713 43.7903 6.85257 44.6304 9.32501 44.628C12.627 44.6247 16.1776 43.1622 19.0254 40.394C20.3401 39.1054 21.6157 36.9775 22.8791 34.4612C25.9496 28.3195 28.8006 19.8833 29.7529 16.9705L43.9871 2.7371C44.4624 2.26098 44.4624 1.4891 43.9871 1.01298ZM13.9262 35.1534C12.0461 36.984 10.1245 38.483 8.44263 39.5076C7.60251 40.0211 6.82169 40.4152 6.14732 40.6752C5.47376 40.936 4.90419 41.0554 4.52394 41.053C4.34601 41.053 4.21276 41.0294 4.12419 40.9985C4.03401 40.9669 3.98769 40.9335 3.94951 40.8954C3.91376 40.858 3.88369 40.8133 3.85526 40.7312C3.82763 40.6492 3.80569 40.5289 3.80569 40.3688C3.80326 40.0032 3.92594 39.441 4.19894 38.7747C5.01144 36.7605 7.10363 33.8502 9.95876 31.0787C11.0963 29.9705 12.9211 28.4763 14.9979 26.8822C18.1146 24.4894 21.8107 21.856 24.7235 19.8248C25.2906 19.4291 25.8163 19.0651 26.3144 18.7214C25.0956 20.5252 23.5096 22.8367 21.8261 25.1962C20.4181 27.1706 18.9426 29.175 17.5678 30.9317C16.1939 32.685 14.9126 34.1939 13.9262 35.1534ZM5.99213 27.0024C7.04757 25.9673 9.09182 24.7258 11.5171 23.5265C15.1604 21.7163 19.6819 19.945 23.2813 18.632C23.5039 18.5508 23.7111 18.4769 23.9264 18.3989C22.9149 19.1041 21.8074 19.8825 20.6569 20.7015C18.4575 22.268 16.1094 23.9799 14.0074 25.5935C11.9047 27.208 10.0554 28.7184 8.82532 29.9136C6.84363 31.8433 5.20807 33.8242 4.05188 35.6198C3.47419 36.5184 3.01594 37.3715 2.69338 38.1621C2.62676 38.327 2.56907 38.4879 2.51382 38.6488C2.16282 37.7502 1.98488 36.7622 1.98326 35.7181C1.97919 32.837 3.34582 29.574 5.99213 27.0024ZM20.9673 34.6293C19.9005 36.6663 18.8118 38.3408 17.892 39.2289C15.3269 41.7282 12.1419 43.0054 9.32419 43.003C8.18913 43.0014 7.12313 42.7925 6.16357 42.3887C6.34882 42.3302 6.53651 42.2652 6.72907 42.1913C9.10076 41.2724 12.1127 39.1769 15.058 36.3177C16.2971 35.1103 17.8246 33.2652 19.4488 31.1543C21.8968 27.9709 24.548 24.1903 26.5801 21.2174C25.8756 23.1934 25.0225 25.483 24.0865 27.7792C23.1074 30.1833 22.039 32.5908 20.9673 34.6293Z" fill="#F5C231"/>
</svg>
