<svg width="34" height="46" viewBox="0 0 34 46" fill="none" xmlns="http://www.w3.org/2000/svg">
<path d="M10.6355 14.2251C10.5561 14.2328 10.4784 14.2531 10.4054 14.2854C7.775 15.4505 5.49642 17.2856 3.79743 19.6072C2.09844 21.9289 1.03855 24.6558 0.723689 27.5155C0.711064 27.5723 0.704689 27.6303 0.704677 27.6885C0.487492 29.8741 0.712881 32.081 1.36739 34.1775C2.0219 36.274 3.09211 38.2172 4.51413 39.891C5.93616 41.5648 7.68085 42.9349 9.64406 43.9196C11.6073 44.9043 13.7488 45.4834 15.9407 45.6222C16.2993 45.6453 16.6563 45.6566 17.0119 45.6563C21.1748 45.6682 25.1831 44.08 28.2081 41.2201C31.3233 38.3035 33.1729 34.2835 33.3612 30.0203C33.5495 25.7571 32.0615 21.5896 29.2156 18.4098C29.1525 18.2794 29.0531 18.17 28.9293 18.0948C27.2883 16.3427 25.283 14.9718 23.0548 14.0788C25.986 13.3981 28.6008 11.7463 30.4746 9.39168C32.3484 7.03708 33.3709 4.11806 33.3761 1.10888C33.376 0.906061 33.2954 0.711583 33.1519 0.568167C33.0085 0.424751 32.814 0.344123 32.6112 0.343994H29.6198C26.8217 0.348593 24.0958 1.23272 21.8277 2.87134C19.5596 4.50997 17.8641 6.82015 16.9808 9.47519C16.1522 7.4977 14.7582 5.80885 12.9736 4.62036C11.189 3.43188 9.09333 2.79665 6.94923 2.79433H4.54179C4.33911 2.79429 4.14471 2.8747 4.00129 3.01791C3.85787 3.16112 3.77716 3.3554 3.7769 3.55808C3.77974 5.86359 4.51419 8.10872 5.87449 9.97017C7.2348 11.8316 9.15076 13.2133 11.3465 13.9163C11.222 13.9651 11.0865 14.0028 10.9641 14.0559C10.8505 14.1039 10.7406 14.1604 10.6355 14.2251ZM10.1896 16.0824C10.6744 16.88 11.4211 17.4844 12.3021 17.7923C13.4711 18.1403 14.7001 18.239 15.9096 18.082C17.0518 17.8987 18.222 18.0174 19.3041 18.4263C19.4589 18.4915 19.5949 18.5943 19.6999 18.7254C19.8049 18.8564 19.8755 19.0117 19.9054 19.1769C19.918 19.3165 19.9513 19.6435 19.2817 20.0751C18.8978 20.2972 18.4649 20.421 18.0217 20.4353C17.2596 20.5312 16.528 20.7941 15.8792 21.2051C15.2304 21.6162 14.6802 22.1653 14.2679 22.8134C13.5711 23.9385 13.0351 25.1556 12.6754 26.4291L12.4089 27.2194C12.0274 28.8047 11.0667 30.19 9.71579 31.1031C9.56131 31.1961 9.38474 31.2459 9.20446 31.2475C9.02418 31.249 8.84678 31.2022 8.69074 31.1119C8.36574 30.8859 8.34787 30.5812 8.37971 29.8321C8.39077 29.5909 8.40035 29.3481 8.38914 29.1123C8.33556 28.2788 8.02393 27.4827 7.49748 26.8342C6.97104 26.1858 6.25586 25.7173 5.45114 25.4936C5.14988 25.4167 4.84004 25.3785 4.52911 25.3799C3.85196 25.3861 3.18389 25.5364 2.56936 25.8209C3.06867 23.7469 4.00735 21.8042 5.32198 20.1242C6.63661 18.4441 8.29655 17.0658 10.1896 16.0824ZM12.7953 43.509C13.0697 43.2074 13.2995 42.8682 13.4778 42.5015C13.7716 41.961 13.8838 41.3402 13.7978 40.731C13.7118 40.1218 13.4322 39.5564 13.0002 39.1183C12.752 38.9121 12.4804 38.7358 12.191 38.5929C11.9196 38.4467 11.6625 38.3105 11.6006 38.1677C11.5387 38.0248 11.6356 37.6923 12.0894 37.179C12.4726 36.6996 12.9438 36.2977 13.4778 35.9952C13.6857 35.88 13.917 35.8137 14.1543 35.8013C14.3917 35.7889 14.6287 35.8308 14.8474 35.9237C15.2166 36.1804 15.5218 36.5187 15.7392 36.9123C16.0628 37.4565 16.4949 37.9281 17.0088 38.2978C17.605 38.63 18.2687 38.8228 18.95 38.8617C19.2129 38.8899 19.4741 38.9321 19.7325 38.988C20.0763 39.0683 20.3778 39.2744 20.5775 39.5656C20.5987 39.5949 20.6128 39.6287 20.6184 39.6644C20.6241 39.7001 20.6212 39.7367 20.61 39.771C20.5349 39.8748 20.438 39.961 20.3262 40.0235C20.2144 40.086 20.0903 40.1233 19.9626 40.1329C19.7944 40.1671 19.6213 40.1861 19.45 40.2051C19.0674 40.2356 18.6897 40.3112 18.3249 40.4305C17.8593 40.6033 17.4456 40.8921 17.1228 41.2695C16.7999 41.6468 16.5787 42.1003 16.48 42.587C16.3878 43.096 16.4349 43.6205 16.6165 44.1049C16.4228 44.1002 16.2309 44.1096 16.0357 44.0978C14.9369 44.024 13.8499 43.8265 12.7953 43.509ZM27.1603 40.1068C27.0445 40.2155 26.9182 40.3075 26.7993 40.4123C27.0822 38.5512 26.6847 36.6504 25.6796 35.0587C25.2178 34.3821 24.6991 33.746 24.1292 33.1575C23.7612 32.7559 23.3929 32.356 23.0645 31.9244C22.6956 31.5116 22.4211 31.0232 22.2602 30.4935C22.0993 29.9637 22.0559 29.4052 22.1329 28.8569C22.4186 27.8214 23.4329 27.1264 24.507 26.3908C24.8688 26.1417 25.2306 25.8942 25.5654 25.6331C27.2077 24.3339 28.3997 22.5509 28.9725 20.5367C31.1173 23.4554 32.1174 27.0593 31.7835 30.6659C31.4495 34.2725 29.8046 37.6315 27.1603 40.1068ZM27.7158 19.0305C27.4142 21.1572 26.3098 23.0878 24.6292 24.4255C24.3166 24.6685 23.98 24.8986 23.642 25.1287C22.2817 25.842 21.2234 27.0209 20.6603 28.45C20.5033 29.226 20.5291 30.028 20.7357 30.7923C20.9423 31.5567 21.3239 32.2624 21.8505 32.8537C22.208 33.3203 22.6043 33.7559 23.0026 34.1898C23.5136 34.7167 23.9801 35.285 24.3975 35.8888C24.9641 36.785 25.2948 37.81 25.3587 38.8684C25.4227 39.9268 25.2179 40.9841 24.7633 41.942C22.8168 43.1366 20.6175 43.8585 18.3418 44.0502C18.1849 43.8914 18.0706 43.6955 18.0096 43.4808C17.9485 43.2661 17.9426 43.0395 17.9925 42.8219C18.0423 42.6043 18.1463 42.4028 18.2947 42.2361C18.4431 42.0693 18.6313 41.9428 18.8416 41.8681C19.0964 41.7915 19.3588 41.7431 19.6241 41.7238C19.8366 41.6991 20.051 41.6738 20.2604 41.6317C20.6495 41.583 21.0191 41.4335 21.3326 41.198C21.6461 40.9626 21.8927 40.6493 22.0479 40.2893C22.1316 40.0525 22.1637 39.8006 22.142 39.5505C22.1204 39.3003 22.0455 39.0577 21.9225 38.8388C21.7222 38.5049 21.4569 38.2145 21.1423 37.985C20.8278 37.7555 20.4704 37.5914 20.0913 37.5025C19.778 37.4328 19.4612 37.3804 19.1423 37.3454C18.6867 37.325 18.2404 37.2101 17.8315 37.0082C17.4965 36.7442 17.2144 36.4193 17 36.0506C16.6515 35.4456 16.1572 34.9372 15.5622 34.5719C15.1309 34.364 14.6568 34.2602 14.1781 34.2689C13.6994 34.2776 13.2294 34.3985 12.8059 34.6219C12.0886 35.0096 11.455 35.5351 10.9412 36.1683C10.5729 36.4798 10.3056 36.8938 10.1731 37.3576C10.0406 37.8215 10.0489 38.3142 10.197 38.7733C10.4697 39.2999 10.92 39.713 11.468 39.9396C11.6512 40.0281 11.8246 40.1356 11.9854 40.2602C12.1619 40.4759 12.2686 40.7402 12.2912 41.018C12.3139 41.2957 12.2515 41.5738 12.1123 41.8153C11.9018 42.2639 11.5722 42.6461 11.1594 42.9203C8.2736 41.6952 5.85188 39.5844 4.24409 36.893C2.63629 34.2015 1.92564 31.0687 2.21479 27.9469C2.56548 27.5529 3.01192 27.256 3.51093 27.0851C4.00994 26.9141 4.54462 26.8749 5.06325 26.9711C5.55291 27.1128 5.98748 27.4009 6.30866 27.7968C6.62983 28.1927 6.82222 28.6773 6.86001 29.1856C6.86944 29.3753 6.86001 29.5696 6.85043 29.7648C6.7556 30.2455 6.79568 30.7431 6.96625 31.2025C7.13682 31.6618 7.43121 32.065 7.81681 32.3674C8.20218 32.6197 8.64948 32.7613 9.10987 32.7767C9.57026 32.7921 10.026 32.6807 10.4274 32.4546C12.1342 31.3751 13.3599 29.6799 13.8503 27.7209L14.1233 26.9108C14.4403 25.7723 14.9135 24.6831 15.5292 23.6743C15.8127 23.2148 16.1936 22.823 16.6449 22.5266C17.0962 22.2302 17.6071 22.0364 18.1414 21.9588C18.8374 21.9277 19.5142 21.7214 20.1091 21.359C20.5334 21.1428 20.8845 20.8064 21.1186 20.3918C21.3527 19.9771 21.4594 19.5027 21.4254 19.0278C21.3731 18.6034 21.2131 18.1996 20.9606 17.8546C20.7081 17.5096 20.3715 17.2349 19.9829 17.0568C18.6366 16.5145 17.1695 16.3435 15.7346 16.5617C14.76 16.6907 13.7693 16.6205 12.8226 16.3554C12.3292 16.1847 11.8981 15.8702 11.5849 15.4524C13.3032 14.7527 15.1448 14.406 17 14.4327C19.0045 14.433 20.988 14.8408 22.8301 15.6312C24.6721 16.4216 26.3344 17.5779 27.7158 19.0305ZM29.6198 1.87166H31.8225C31.625 4.86061 30.2994 7.66292 28.1139 9.71143C25.9284 11.7599 23.0463 12.9016 20.0508 12.9054H17.8481C18.0455 9.91644 19.3711 7.1141 21.5566 5.06559C23.7421 3.01708 26.6243 1.87541 29.6198 1.87166ZM5.3369 4.32264H6.94923C9.29488 4.32554 11.5539 5.20914 13.2791 6.79849C15.0042 8.38784 16.0696 10.567 16.2644 12.9046H14.6521C12.3064 12.9017 10.0473 12.0181 8.32222 10.4287C6.59709 8.8394 5.53166 6.6602 5.3369 4.32264Z" fill="#F5C231"/>
</svg>
