<svg width="179" height="179" viewBox="0 0 179 179" fill="none" xmlns="http://www.w3.org/2000/svg">
<path d="M117.499 162.006C110.115 160.674 105.209 153.608 106.541 146.224C107.873 138.84 114.938 133.934 122.322 135.266C129.706 136.598 134.612 143.664 133.28 151.048C131.948 158.432 124.883 163.338 117.499 162.006Z" fill="#575757"/>
<path d="M123.203 161.816C120.527 162.485 117.712 162.323 115.13 161.353C112.549 160.383 110.324 158.65 108.751 156.385C107.178 154.12 106.332 151.429 106.325 148.671C106.318 145.914 107.15 143.219 108.712 140.946C109.249 145.34 110.849 149.538 113.374 153.174C115.899 156.811 119.273 159.777 123.203 161.816Z" fill="#4A4A4A"/>
<path d="M119.222 152.456C117.112 152.075 115.71 150.056 116.091 147.947C116.471 145.837 118.49 144.435 120.6 144.816C122.709 145.196 124.111 147.215 123.731 149.325C123.35 151.435 121.331 152.836 119.222 152.456Z" fill="#6E6E6E"/>
<path d="M108.361 81.4722L106.982 89.1121L110.802 89.8012C111.815 89.9839 112.86 89.7567 113.705 89.1696C114.551 88.5824 115.129 87.6834 115.311 86.6703C115.494 85.6572 115.267 84.613 114.68 83.7674C114.093 82.9218 113.194 82.344 112.18 82.1613L108.361 81.4722Z" fill="#FDA5A3"/>
<path d="M79.7109 76.3041L108.361 81.4722L106.982 89.1121L78.3327 83.944L79.7109 76.3041Z" fill="#00659D"/>
<path d="M112.44 78.2636L123.618 80.28C125.032 80.5351 126.37 81.1049 127.534 81.9473C128.698 82.7897 129.658 83.8831 130.342 85.1465C131.393 87.0884 131.742 89.3339 131.328 91.5031C130.914 93.6723 129.764 95.632 128.071 97.0505L124.196 100.298C123.667 100.742 123.265 101.32 123.033 101.971C122.801 102.622 122.747 103.323 122.877 104.001L127.52 128.315L114.151 125.903L107.909 82.6378C107.821 82.0291 107.879 81.4082 108.078 80.8263C108.277 80.2444 108.612 79.7182 109.054 79.291C109.497 78.8638 110.035 78.5479 110.623 78.3692C111.212 78.1906 111.834 78.1544 112.44 78.2636Z" fill="#5CA4CC"/>
<path d="M88.6319 125.244L91.4968 125.761C92.7632 125.99 93.887 126.712 94.6209 127.769C95.3549 128.826 95.6389 130.131 95.4104 131.398C95.182 132.664 94.4598 133.788 93.4028 134.522C92.3458 135.256 91.0405 135.54 89.7742 135.311L82.1342 133.933C80.8678 133.705 79.7441 132.982 79.0101 131.925C78.2762 130.868 77.9922 129.563 78.2206 128.297L80.4601 115.882C80.7343 114.362 80.3935 112.796 79.5127 111.527C78.632 110.259 77.2835 109.392 75.7638 109.118L66.2139 107.396C65.2008 107.213 64.3018 106.635 63.7146 105.79C63.1275 104.944 62.9003 103.9 63.083 102.887L65.1502 91.4267L80.4301 94.183L79.741 98.003C79.5582 99.0161 79.7854 100.06 80.3726 100.906C80.9597 101.752 81.8588 102.329 82.8719 102.512L84.7819 102.857C86.8081 103.222 88.6061 104.377 89.7804 106.069C90.9547 107.76 91.4091 109.848 91.0436 111.875L88.6319 125.244Z" fill="#575757"/>
<path d="M71.2369 70.4929L71.7839 70.1131C72.2026 69.8224 72.5599 69.452 72.8355 69.0232C73.1111 68.5944 73.2995 68.1155 73.39 67.6138L76.2054 52.0063L95.3052 55.4517L94.171 61.739C93.8956 63.2659 93.169 64.6753 92.0849 65.7852C91.0008 66.8952 89.609 67.6549 88.089 67.9662L85.5735 68.4814C84.8135 68.6371 84.1176 69.017 83.5756 69.5719C83.0335 70.1269 82.6702 70.8316 82.5325 71.595L81.9654 74.7387L83.5308 76.9932L80.43 94.183L65.1502 91.4268L68.0247 75.4915C68.3902 73.4653 69.5457 71.6673 71.2369 70.4929Z" fill="#FDA5A3"/>
<path d="M78.4249 52.4064L90.6194 66.9554C89.8423 67.4391 88.9855 67.7813 88.089 67.966L86.649 68.2609L75.642 55.1289L76.2054 52.0061L78.4249 52.4064Z" fill="#F5C231"/>
<path d="M71.2369 70.4929L71.7841 70.1129C72.6296 69.5257 73.2073 68.6268 73.39 67.6137L73.4491 67.2861L75.6868 67.6897C76.1885 67.7802 76.6674 67.9686 77.0962 68.2442C77.525 68.5197 77.8954 68.8771 78.1861 69.2958L83.5309 76.9932L80.43 94.183L65.1502 91.4267L68.0247 75.4918C68.3902 73.4655 69.5456 71.6673 71.2369 70.4929Z" fill="#00659D"/>
<path d="M41.8558 67.5034L64.7756 71.6378C66.8853 72.0184 68.287 74.0372 67.9064 76.1469L63.0829 102.887C62.7024 104.996 60.6836 106.398 58.5739 106.017L35.6542 101.883C33.5445 101.502 32.1427 99.4837 32.5233 97.374L37.3468 70.6343C37.7274 68.5246 39.7461 67.1228 41.8558 67.5034Z" fill="#F5C231"/>
<path d="M67.2174 79.9668L36.6577 74.4542L37.3468 70.6343C37.5296 69.6212 38.1073 68.7221 38.9529 68.135C39.7985 67.5478 40.8427 67.3206 41.8558 67.5034L64.7756 71.6378C65.7887 71.8206 66.6877 72.3983 67.2749 73.2439C67.862 74.0895 68.0892 75.1337 67.9064 76.1469L67.2174 79.9668Z" fill="#F5C231"/>
<path d="M45.833 56.3882L61.1129 59.1445L60.4238 62.9645L45.144 60.2082L45.833 56.3882Z" fill="#CBE2EF"/>
<path d="M43.3913 48.0589L58.6711 50.8152L57.982 54.6351L42.7022 51.8789L43.3913 48.0589Z" fill="#CBE2EF"/>
<path d="M40.9494 39.7301L52.4093 41.7974L51.7202 45.6173L40.2604 43.5501L40.9494 39.7301Z" fill="#CBE2EF"/>
<path d="M79.0819 123.522L91.4968 125.761C92.7632 125.99 93.887 126.712 94.6209 127.769C95.3548 128.826 95.6388 130.131 95.4104 131.398C95.1819 132.664 94.4598 133.788 93.4028 134.522C92.3458 135.256 91.0405 135.54 89.7741 135.311L82.1342 133.933C80.8678 133.705 79.744 132.982 79.0101 131.925C78.2761 130.868 77.9921 129.563 78.2206 128.297L79.0819 123.522Z" fill="#00659D"/>
<path d="M37.5642 102.228L75.7638 109.118C76.5162 109.254 77.2346 109.537 77.8779 109.95C78.5211 110.363 79.0766 110.899 79.5127 111.527C79.9488 112.155 80.2569 112.863 80.4195 113.61C80.582 114.357 80.5958 115.129 80.4601 115.882L80.1156 117.792L30.4561 108.834L30.8007 106.924C30.9364 106.171 31.219 105.453 31.6324 104.81C32.0457 104.167 32.5818 103.611 33.2098 103.175C33.8379 102.739 34.5457 102.431 35.2928 102.268C36.0399 102.106 36.8118 102.092 37.5642 102.228Z" fill="#338DBF"/>
<path d="M48.994 82.5958L52.814 83.2849L51.7804 89.0148L47.9604 88.3258L48.994 82.5958Z" fill="#59CEA7"/>
<path d="M87.9586 83.3699C88.5401 84.2073 89.2808 84.922 90.1385 85.4732C90.9961 86.0243 91.9539 86.4011 92.9572 86.5821L112.712 90.1457C113.725 90.3284 114.625 90.9062 115.212 91.7518C115.799 92.5974 116.026 93.6416 115.843 94.6547C115.661 95.6678 115.083 96.5669 114.237 97.154C113.392 97.7412 112.347 97.9684 111.334 97.7856L87.7591 93.5329C86.7558 93.352 85.798 92.9751 84.9404 92.424C84.0827 91.8728 83.342 91.1582 82.7605 90.3208L73.0437 76.3268C72.7353 75.8827 72.5174 75.3822 72.4025 74.8539C72.2875 74.3256 72.2778 73.7798 72.3738 73.2477C73.0249 69.6381 77.7152 68.6176 79.8072 71.6304L87.9586 83.3699Z" fill="#0071AF"/>
<path d="M108.892 89.4566L107.514 97.0965L111.334 97.7856C112.347 97.9683 113.392 97.7411 114.237 97.154C115.083 96.5668 115.661 95.6678 115.843 94.6547C116.026 93.6416 115.799 92.5973 115.212 91.7517C114.625 90.9061 113.726 90.3284 112.712 90.1456L108.892 89.4566Z" fill="#FDA5A3"/>
<path d="M40.8523 94.932L41.1968 93.022C41.5623 90.9958 42.7178 89.1978 44.409 88.0235C46.1002 86.8492 48.1887 86.3948 50.2149 86.7603C52.2411 87.1258 54.0392 88.2812 55.2135 89.9725C56.3878 91.6637 56.8422 93.7521 56.4767 95.7783L56.1321 97.6883L40.8523 94.932Z" fill="#BDECDC"/>
<path d="M123.618 80.2799C125.032 80.535 126.37 81.1048 127.534 81.9472C128.698 82.7896 129.658 83.883 130.342 85.1464C131.337 86.9852 131.704 89.0991 131.385 91.1656C131.067 93.232 130.081 95.1376 128.578 96.5914L124.837 93.7939C124.021 93.1834 123.333 92.418 122.812 91.5415C122.292 90.665 121.949 89.6945 121.803 88.6854L120.51 79.7192L123.618 80.2799Z" fill="#CBE2EF"/>
<path d="M124.14 110.614L127.52 128.315L114.151 125.904L113.055 118.31L124.14 110.614Z" fill="#338DBF"/>
<path d="M80.1155 117.792L78.2206 128.297C77.9921 129.563 78.2761 130.868 79.0101 131.925C79.744 132.982 80.8678 133.704 82.1342 133.933L98.3132 136.851C98.9212 136.961 99.5466 136.924 100.137 136.743C100.728 136.563 101.267 136.244 101.71 135.812L110.701 127.058C111.177 126.594 111.757 126.251 112.393 126.057C113.028 125.862 113.701 125.822 114.355 125.94L128.339 128.463C129.054 128.592 129.723 128.905 130.28 129.372L138.315 136.107C139.141 136.787 139.681 137.754 139.825 138.814C139.969 139.875 139.707 140.951 139.091 141.827C138.741 142.31 138.29 142.712 137.771 143.007C137.252 143.301 136.675 143.48 136.08 143.533C135.486 143.586 134.887 143.51 134.324 143.311C133.761 143.113 133.247 142.796 132.817 142.382L129.509 139.197C128.957 138.665 128.26 138.309 127.506 138.173L116.849 136.251C116.241 136.141 115.616 136.178 115.025 136.359C114.434 136.54 113.895 136.859 113.452 137.29L106.062 144.486C105.619 144.917 105.08 145.236 104.489 145.417C103.898 145.598 103.273 145.635 102.665 145.525L53.0614 136.577C53.2441 135.564 53.0169 134.52 52.4298 133.674C51.8426 132.829 50.9436 132.251 49.9305 132.068C48.9174 131.885 47.8731 132.112 47.0275 132.7C46.1819 133.287 45.6042 134.186 45.4215 135.199L35.8716 133.476L37.5836 123.986C37.7901 122.84 37.6488 121.66 37.1779 120.596C36.7069 119.532 35.9279 118.633 34.9414 118.016L32.7646 116.654C31.778 116.037 30.999 115.139 30.528 114.075C30.057 113.01 29.9157 111.83 30.1223 110.684L30.4561 108.834L80.1155 117.792Z" fill="#5CA4CC"/>
<path d="M46.8297 149.258C39.4458 147.926 34.5397 140.86 35.8716 133.476C37.2036 126.092 44.2693 121.186 51.6532 122.518C59.0372 123.85 63.9433 130.916 62.6113 138.3C61.2793 145.684 54.2137 150.59 46.8297 149.258Z" fill="#575757"/>
<path d="M48.5523 139.708C46.4426 139.327 45.0409 137.309 45.4214 135.199C45.802 133.089 47.8208 131.687 49.9305 132.068C52.0402 132.449 53.4419 134.467 53.0614 136.577C52.6808 138.687 50.662 140.088 48.5523 139.708Z" fill="#6E6E6E"/>
<path d="M67.9065 76.147L63.083 102.887C62.9002 103.9 62.3225 104.799 61.4769 105.386C60.6313 105.973 59.5871 106.2 58.574 106.018L35.6542 101.883C35.3226 101.822 35.0003 101.718 34.6956 101.574C42.4038 102.234 50.0808 99.9929 56.2236 95.2899C62.3664 90.5869 66.5326 83.7604 67.9065 76.147Z" fill="#F5C231"/>
<path d="M77.6737 109.463L66.2138 107.396C65.2007 107.213 64.3017 106.635 63.7146 105.79C63.1274 104.944 62.9002 103.9 63.083 102.887L65.1502 91.4268C64.4192 95.4793 65.3279 99.6561 67.6765 103.039C70.0252 106.421 73.6212 108.732 77.6737 109.463Z" fill="#4A4A4A"/>
<path d="M80.4301 94.1829L65.1502 91.4266L67.9065 76.1468C67.1755 80.1992 68.0843 84.3761 70.4329 87.7585C72.7815 91.141 76.3776 93.4519 80.4301 94.1829Z" fill="#005686"/>
<path d="M86.9092 134.794L82.1342 133.933C81.5072 133.82 80.9085 133.584 80.3725 133.24C79.8364 132.895 79.3735 132.449 79.0101 131.925C78.6467 131.402 78.3899 130.812 78.2544 130.19C78.119 129.567 78.1075 128.924 78.2206 128.297L79.0819 123.522C78.6251 126.054 79.193 128.665 80.6609 130.779C82.1288 132.893 84.3764 134.337 86.9092 134.794Z" fill="#005686"/>
<path d="M52.5338 149.068C49.8583 149.737 47.0427 149.575 44.4612 148.605C41.8797 147.635 39.6546 145.902 38.0817 143.637C36.5088 141.372 35.6626 138.681 35.6556 135.924C35.6486 133.166 36.4812 130.471 38.0426 128.198C38.5796 132.593 40.18 136.79 42.7051 140.427C45.2302 144.063 48.6038 147.029 52.5338 149.068Z" fill="#4A4A4A"/>
<path d="M37.5642 102.228L62.3939 106.707C54.9513 105.353 47.2709 106.774 40.805 110.701L30.4561 108.834L30.8007 106.924C30.9364 106.171 31.219 105.453 31.6324 104.81C32.0457 104.167 32.5817 103.611 33.2098 103.175C33.8378 102.739 34.5456 102.431 35.2928 102.268C36.0399 102.106 36.8117 102.092 37.5642 102.228Z" fill="#2C78A3"/>
<path d="M33.3385 117.013L32.7646 116.654C31.778 116.037 30.999 115.139 30.528 114.075C30.0571 113.01 29.9158 111.83 30.1223 110.684L30.4562 108.834L40.8051 110.701C37.9999 112.399 35.4801 114.53 33.3385 117.013Z" fill="#4E8CAE"/>
<path d="M73.4491 67.2861L76.2054 52.0063L95.3052 55.4517L95.1851 56.1174C91.2065 56.3379 87.3364 57.4957 83.8905 59.4965C80.4445 61.4972 77.5203 64.2843 75.3564 67.6302L73.4491 67.2861Z" fill="#D78D8B"/>
<path d="M127.508 128.252L127.52 128.315L114.151 125.904L113.181 119.185C116.854 123.674 121.88 126.855 127.508 128.252Z" fill="#2C78A3"/>
<path d="M56.5756 95.0147C56.5552 95.2682 56.5228 95.5229 56.4767 95.7784L56.1321 97.6884L53.4218 97.1995C54.5168 96.5366 55.5701 95.8069 56.5756 95.0147Z" fill="#A1C9BC"/>
<path d="M78.4249 52.4066L84.2146 59.3141C83.0782 59.9526 81.9927 60.6776 80.9676 61.4828L75.6421 55.1291L76.2054 52.0062L78.4249 52.4066Z" fill="#F5C231"/>
<path d="M74.1081 41.7672C75.5517 40.7649 77.3342 40.377 79.0637 40.689L96.5813 43.849C98.3108 44.161 99.8455 45.1472 100.848 46.5907C101.85 48.0343 102.238 49.8169 101.926 51.5463L101.724 52.6652L105.544 53.3543L104.855 57.1742L86.5958 53.8805C85.733 53.7248 84.8479 53.7407 83.9912 53.9271C83.1345 54.1135 82.3228 54.4668 81.6027 54.9668C80.8825 55.4669 80.2678 56.1039 79.7939 56.8415C79.3199 57.5791 78.9958 58.4029 78.8401 59.2657C78.3731 61.8549 75.9619 63.6969 73.3578 63.3221C72.7123 63.2298 72.092 63.0083 71.5341 62.6709C70.9761 62.3335 70.4918 61.8871 70.1102 61.3584C69.7286 60.8296 69.4575 60.2294 69.3131 59.5935C69.1686 58.9577 69.1539 58.2992 69.2696 57.6575L71.3664 46.0338C71.6784 44.3043 72.6646 42.7696 74.1081 41.7672Z" fill="#0071AF"/>
<path d="M77.2391 46.2763L81.059 46.9653L80.3699 50.7853L76.55 50.0962L77.2391 46.2763Z" fill="#5CA4CC"/>
<path d="M78.704 59.8205C78.3775 60.9462 77.6591 61.918 76.6786 62.5602C75.6981 63.2024 74.5202 63.4727 73.3578 63.3221C72.7123 63.2298 72.092 63.0084 71.534 62.671C70.9761 62.3336 70.4918 61.8872 70.1102 61.3584C69.7286 60.8297 69.4575 60.2295 69.313 59.5936C69.1686 58.9577 69.1538 58.2993 69.2696 57.6575L71.3664 46.0338C71.5049 45.2678 71.7774 44.5321 72.1713 43.8606C72.2267 49.8205 74.5646 55.5323 78.704 59.8205Z" fill="#006095"/>
</svg>
