<svg width="590" height="49" viewBox="0 0 590 49" fill="none" xmlns="http://www.w3.org/2000/svg">
<g clip-path="url(#clip0_54_295)">
<path d="M315.622 24.0314C315.622 24.0314 313.736 22.1591 311.963 21.9461C311.807 22.3067 311.613 22.6597 311.341 22.9819C311.201 23.1741 310.848 23.5875 310.236 24.0591C310.426 24.212 310.61 24.3778 310.789 24.5563C311.033 24.8002 311.201 25.0047 311.272 25.0949C311.547 25.4126 311.749 25.7847 311.907 26.1444C313.696 25.9668 315.622 24.0314 315.622 24.0314ZM311.175 20.0541C310.381 19.4991 308.612 19.3927 307.295 20.0127C307.285 20.8033 307.137 21.7841 306.632 22.7471C306.512 22.9769 306.365 23.1893 306.204 23.3962H309.021C309.051 23.3753 309.073 23.3617 309.104 23.3408C310.005 22.7429 310.347 22.2084 310.347 22.2084C311.053 21.4125 311.175 20.0541 311.175 20.0541ZM305.928 18.7836C305.201 18.5631 303.937 18.7893 302.917 19.3912C302.979 20.2313 302.929 21.5248 302.282 22.7609C302.161 22.9903 302.014 23.2032 301.854 23.41L304.395 23.41C304.849 23.109 305.257 22.6846 305.527 22.1671C306.362 20.5739 305.928 18.7836 305.928 18.7836ZM309.932 25.4677C309.691 25.2239 309.339 24.9228 308.911 24.6667L306.287 24.6667C306.354 24.7635 306.423 24.8417 306.48 24.9429C307.048 25.8904 307.305 27.106 307.322 28.133C308.633 28.7186 310.354 28.5977 311.134 28.0502C311.134 28.0502 311.012 26.6912 310.305 25.8958C310.305 25.8958 310.174 25.7114 309.932 25.4677ZM301.577 18.7698C300.896 18.5625 299.728 18.7584 298.746 19.2808C298.821 20.116 298.799 21.4593 298.125 22.7471C298.005 22.9769 297.844 23.2032 297.683 23.41L300.031 23.41C300.485 23.1086 300.906 22.6979 301.177 22.1809C302.012 20.5877 301.577 18.7698 301.577 18.7698ZM305.03 25.0672C304.884 24.9133 304.709 24.7762 304.533 24.6529L301.95 24.6667C302.113 24.8859 302.246 25.1025 302.351 25.3434C302.743 26.2431 302.927 27.5813 302.903 28.6026C303.932 29.2292 305.229 29.4628 305.969 29.2378C305.969 29.2374 306.387 27.2009 305.403 25.5782C305.301 25.3954 305.175 25.2211 305.03 25.0672ZM297.407 18.7698C296.708 18.5572 295.518 18.7849 294.52 19.336C294.591 20.1734 294.549 21.493 293.885 22.7609C293.765 22.9911 293.618 23.2023 293.457 23.41L295.888 23.41C296.342 23.1095 296.735 22.6979 297.006 22.1809C297.841 20.5877 297.407 18.7698 297.407 18.7698ZM300.776 25.1777C300.593 24.9789 300.374 24.8037 300.141 24.6529L297.793 24.6529C297.956 24.8721 298.103 25.1025 298.208 25.3434C298.615 26.2776 298.786 27.6651 298.746 28.6992C299.738 29.2393 300.913 29.4482 301.605 29.2378C301.606 29.2378 301.852 27.2945 301.218 25.8405C301.113 25.5995 300.959 25.3765 300.776 25.1777ZM293.181 18.7698C292.476 18.5555 291.27 18.7734 290.267 19.336C290.335 20.1743 290.292 21.4983 289.632 22.7609C289.511 22.9907 289.364 23.2032 289.204 23.41L291.662 23.41C292.117 23.109 292.509 22.6993 292.78 22.1809C293.615 20.5869 293.181 18.7698 293.181 18.7698ZM296.33 24.9015C296.224 24.8136 296.101 24.7421 295.984 24.6667L293.568 24.6529C293.731 24.8725 293.877 25.1025 293.982 25.3434C294.493 26.5145 294.545 27.8571 294.52 28.6716C295.528 29.243 296.738 29.4682 297.448 29.2516C297.449 29.2525 297.681 27.2945 297.048 25.8405C296.89 25.4789 296.647 25.1649 296.33 24.9015ZM288.927 18.7698C287.911 18.4604 285.825 19.0373 284.853 20.2751C283.908 21.5838 283.978 22.77 284.329 23.3962L275.311 23.41C274.965 23.4104 274.69 23.6854 274.689 24.0314C274.69 24.2033 274.769 24.3602 274.883 24.4734C274.995 24.586 275.138 24.6529 275.311 24.6529L284.356 24.6667C284.014 25.3123 283.933 26.499 284.895 27.7463C285.867 28.9833 287.952 29.561 288.969 29.2516C288.969 29.2512 289.202 27.2945 288.568 25.8405C288.358 25.3584 287.957 24.956 287.491 24.6529L284.398 24.6529L285.019 24.0314L284.398 23.41L287.394 23.3962C287.849 23.0952 288.256 22.6988 288.527 22.1809C289.361 20.5873 288.927 18.7698 288.927 18.7698ZM292.104 24.9015C291.998 24.8137 291.875 24.7424 291.758 24.6667L289.3 24.6667C289.463 24.8859 289.596 25.1025 289.701 25.3434C290.014 26.0615 290.289 27.5132 290.253 28.6578C291.266 29.2438 292.504 29.4704 293.222 29.2516C293.222 29.2516 293.456 27.2945 292.822 25.8405C292.665 25.4786 292.421 25.1648 292.104 24.9015Z" fill="#9E9E9E"/>
</g>
<line x1="323.5" y1="23.5" x2="589.5" y2="23.5" stroke="#9E9E9E" stroke-linecap="round"/>
<line x1="0.5" y1="23.5" x2="266.5" y2="23.5" stroke="#9E9E9E" stroke-linecap="round"/>
<defs>
<clipPath id="clip0_54_295">
<rect width="33.9819" height="33.9819" fill="white" transform="translate(295.029) rotate(45)"/>
</clipPath>
</defs>
</svg>
