<svg width="40" height="46" viewBox="0 0 40 46" fill="none" xmlns="http://www.w3.org/2000/svg">
<path d="M19.1282 0.0347385C18.6081 0.129019 17.7491 0.556904 17.363 0.926771C17.2605 1.02105 16.9453 1.28938 16.6459 1.52871C16.3543 1.76804 16.0549 2.01461 15.984 2.07263C15.913 2.1379 15.6136 2.38448 15.3062 2.61655C15.0068 2.85588 14.7074 3.10246 14.6364 3.16048C14.4709 3.29827 13.6435 3.96548 12.5876 4.82125C12.1305 5.18387 11.6025 5.619 11.3976 5.79306C10.4441 6.60531 9.56155 7.3378 9.44335 7.40307C9.3015 7.48284 8.91537 7.79469 8.30071 8.32411C8.08006 8.51267 7.85942 8.67222 7.81213 8.67222C7.76485 8.67222 7.67817 8.72298 7.62301 8.781C7.44964 8.96956 7.3866 8.82451 7.3866 8.25158C7.3866 7.51185 7.26052 6.84464 7.11079 6.77212C7.04775 6.73586 6.99259 6.67058 6.99259 6.63432C6.99259 6.48928 6.50401 6.13391 6.09424 5.96711C5.12497 5.58274 4.06114 5.94536 3.46224 6.8664C3.29675 7.12023 3.28887 7.2 3.28887 9.68028C3.28887 11.4716 3.26523 12.2839 3.19431 12.3926C3.09975 12.5667 3.04459 12.6102 2.21716 13.2774C1.91771 13.5167 1.33457 14.0244 0.91692 14.4015L0.168296 15.0977L0.0579727 15.6127C-0.139033 16.5845 0.160416 17.2952 1.043 17.9479C1.22425 18.0784 1.91771 18.2452 2.3196 18.2452C3.04459 18.2452 3.43072 18.1074 4.10054 17.607C4.45515 17.346 4.8334 17.0414 4.94373 16.9398C5.2747 16.6425 6.48037 15.6489 7.00835 15.2428C7.54421 14.8367 8.00126 14.4668 8.545 14.0026C8.89173 13.6981 9.3015 13.3644 10.1132 12.719C10.7751 12.1823 11.0036 11.9938 12.0044 11.1743C12.4851 10.7754 13.0525 10.3185 13.2574 10.1589C13.4623 9.99939 13.7538 9.76731 13.8878 9.65128C14.4 9.21614 14.7625 8.91879 15.4639 8.35312C16.5986 7.43933 17.1581 6.98969 17.5206 6.67784C17.7018 6.51829 18.0565 6.22094 18.3086 6.02513C18.5529 5.82207 18.8996 5.54648 19.0809 5.40143C19.2543 5.25639 19.5379 5.08233 19.6955 5.01706C19.9714 4.89377 19.995 4.89377 20.326 5.03157C20.5151 5.11134 20.8067 5.30715 20.9879 5.45945C21.1613 5.61175 21.5474 5.93085 21.8469 6.17018C22.1384 6.4095 22.4773 6.68509 22.5955 6.78662C23.0683 7.19275 23.4308 7.48284 23.5884 7.58437C23.7302 7.67865 24.6601 8.44014 25.3536 9.03483C25.4718 9.13636 25.8106 9.41195 26.1022 9.65128C26.4016 9.8906 26.8508 10.246 27.0872 10.449C27.3315 10.6448 27.7964 11.022 28.1116 11.283C28.4347 11.5441 28.7499 11.8052 28.8209 11.8632C28.8918 11.9212 29.1755 12.1461 29.4513 12.3636C29.735 12.5812 30.0344 12.8278 30.129 12.9076C30.2236 12.9946 30.5388 13.2557 30.8303 13.495C31.1219 13.7343 31.4608 14.0099 31.579 14.1114C31.6972 14.213 31.9809 14.4378 32.2094 14.6191C32.7137 15.0107 34.1873 16.2146 34.5735 16.5482C34.7232 16.6787 35.0463 16.9471 35.2906 17.1356C35.5348 17.3242 35.9052 17.6215 36.118 17.7883C36.4253 18.0277 36.6066 18.1074 37.0006 18.18C37.5522 18.2742 38.3087 18.2235 38.7263 18.0639C39.1755 17.8899 39.6641 17.3532 39.8453 16.831C40.0502 16.2509 40.0502 15.9173 39.8532 15.3878C39.672 14.9019 39.4592 14.6481 38.7106 14.0607C38.4111 13.8141 38.0092 13.495 37.8359 13.3427C37.6546 13.1831 37.2843 12.8785 37.0084 12.661C36.7405 12.4434 36.4332 12.1896 36.3307 12.1025C36.2362 12.0155 36.0865 11.9067 36.0077 11.8487C35.8737 11.7617 35.062 11.1017 34.1085 10.2895C33.9115 10.1227 33.5333 9.81808 33.2732 9.60776C32.7531 9.19438 31.8311 8.4474 31.5002 8.16456C31.0273 7.75843 30.6491 7.45383 30.1211 7.0477C29.8217 6.81563 29.3331 6.42401 29.0494 6.17743C28.7657 5.9381 28.3008 5.55373 28.0328 5.33616C27.757 5.11859 27.4339 4.85751 27.3157 4.75598C27.1975 4.65445 27.0005 4.4949 26.8745 4.40062C26.512 4.11778 25.4166 3.22575 25.0778 2.9284C24.9044 2.78336 24.5498 2.49327 24.2897 2.2902C24.0297 2.08714 23.6593 1.78979 23.4623 1.63024C22.0517 0.455372 22.1857 0.549652 21.5553 0.274065C21.0982 0.0637493 20.9327 0.0347385 20.255 0.00572968C19.8295 -0.0087738 19.3252 0.00572968 19.1282 0.0347385Z" fill="black"/>
<path d="M11.1199 31.8859C8.96856 33.8657 7.09306 35.5628 6.94334 35.6643C6.56508 35.9181 5.85586 35.9181 5.44609 35.6571C5.28848 35.5555 4.04341 34.4387 2.66436 33.1768C1.2932 31.9149 0.134804 30.8778 0.0954023 30.8778C-0.00704085 30.8778 -0.00704085 38.8771 0.0954023 39.2179C0.134804 39.3557 0.229367 39.6676 0.292408 39.9069C0.473654 40.5161 0.98587 41.5532 1.24592 41.836C1.30896 41.894 1.35624 41.9738 1.35624 42.0028C1.35624 42.0391 1.4508 42.1696 1.57689 42.3002C1.69509 42.4307 1.86058 42.6193 1.94726 42.728C2.31763 43.1632 2.61708 43.4243 3.27114 43.8812C3.64939 44.1495 3.98824 44.3671 4.01976 44.3671C4.05917 44.3671 4.20101 44.4468 4.35074 44.5484C4.50046 44.6499 4.66595 44.7297 4.72899 44.7297C4.79203 44.7297 4.92599 44.7949 5.03632 44.8747C5.14664 44.9545 5.30424 45.0198 5.39093 45.0198C5.47761 45.0198 5.70614 45.085 5.91102 45.1648C6.11591 45.2446 6.65177 45.3679 7.10882 45.4331C7.86532 45.5492 8.93704 45.5564 19.8354 45.5564C30.8993 45.5637 31.7898 45.5492 32.562 45.4331C33.4761 45.2881 34.0593 45.1068 35.0837 44.6644C35.9269 44.2945 36.9434 43.5693 37.5423 42.9093C38.2594 42.1188 38.4643 41.836 38.7795 41.2123C38.9214 40.9295 39.079 40.6249 39.1341 40.5233C39.1893 40.4218 39.2602 40.2405 39.2917 40.1245C39.3233 40.0012 39.4257 39.6748 39.5203 39.3992C39.6779 38.9206 39.6936 38.7538 39.6936 36.6579V34.4314L36.3288 31.3419L32.9718 28.2452L29.0395 31.8641C26.8804 33.8512 24.997 35.5555 24.8473 35.6498C24.4532 35.9036 23.9174 35.9399 23.484 35.7441C23.2476 35.628 21.9237 34.4604 19.2129 31.9656C17.0616 29.9785 15.2334 28.3395 15.1624 28.325C15.0679 28.3032 13.8307 29.3911 11.1199 31.8859ZM16.1553 33.0317C16.439 33.1913 16.9591 33.6409 16.9591 33.7207C16.9591 33.757 17.0301 33.873 17.1167 33.9745C17.2428 34.1268 17.2743 34.2719 17.2743 34.7143C17.2743 35.2364 17.2586 35.2944 16.9828 35.6788C16.6124 36.1937 16.2026 36.4548 15.6116 36.5491C14.9024 36.6651 14.4138 36.5346 13.9095 36.1139C13.5785 35.8384 13.4603 35.6716 13.2869 35.2437L13.082 34.7215L13.2948 34.1921C13.4051 33.9093 13.5627 33.6119 13.6337 33.5321C13.941 33.2275 14.3744 32.9737 14.6896 32.9157C15.1309 32.8287 15.9268 32.8939 16.1553 33.0317ZM33.878 32.9084C34.9025 33.126 35.5723 34.1993 35.2965 35.1784C35.0128 36.1647 34.0277 36.7231 32.9087 36.5418C32.3808 36.4476 31.9237 36.1575 31.6006 35.7078C31.3563 35.3597 31.3406 35.3017 31.3406 34.7215C31.3406 34.1486 31.3563 34.0761 31.5927 33.7352C32.1128 32.9955 32.9087 32.7054 33.878 32.9084Z" fill="black"/>
</svg>
