<svg width="49" height="68" viewBox="0 0 49 68" fill="none" xmlns="http://www.w3.org/2000/svg">
<path d="M0.310703 6.244C0.516359 7.69301 6.11296 8.30709 8.19417 9.17321C17.8072 14.2642 26.2209 21.3513 32.8713 29.9596C38.3309 37.0966 41.2062 45.8755 41.0263 54.8595C40.9603 55.4219 34.9346 53.8675 34.589 54.5948C34.2433 55.3222 38.6066 67.4047 39.3184 67.7595C40.0302 68.1143 48.9666 56.3943 48.5145 56.0538C46.8374 55.6869 45.1315 55.4672 43.4162 55.397C43.7945 53.5127 43.9326 51.588 43.8271 49.669C43.722 45.9413 44.332 42.9643 34.1447 25.9422C23.9574 8.92007 4.45056 0.661426 2.61516 0.424996C0.779761 0.188567 0.0895188 4.80416 0.310703 6.244ZM38.0867 57.117C39.0004 57.3527 44.35 57.0865 44.4504 57.7182C43.1209 59.9881 41.5773 62.1256 39.8406 64.1014C39.4989 64.303 37.1016 56.9024 38.0867 57.117Z" fill="#F5C231"/>
</svg>
