<svg width="58" height="61" viewBox="0 0 58 61" fill="none" xmlns="http://www.w3.org/2000/svg">
<path d="M57.2394 6.76922C56.7719 8.15606 51.1575 7.73484 48.9529 8.20518C38.5701 11.4496 29.0008 16.8761 20.8865 24.1209C14.2121 30.1373 9.77778 38.2413 8.30932 47.1063C8.27128 47.6713 14.4797 47.2466 14.6863 48.0249C14.8929 48.8033 8.39074 59.8824 7.626 60.1008C6.86126 60.3193 0.222254 47.1609 0.729068 46.909C2.44498 46.8555 4.16229 46.9519 5.86145 47.197C5.83464 45.2753 6.05136 43.3579 6.50644 41.4906C7.29242 37.8452 7.23797 34.8069 20.3703 19.9382C33.5026 5.06958 54.1919 0.522915 56.0396 0.626604C57.8873 0.730292 57.7206 5.39423 57.2394 6.76922ZM10.7859 49.8639C9.84443 49.9283 4.63406 48.6869 4.41965 49.2896C5.31099 51.7645 6.43707 54.1485 7.7825 56.409C8.08153 56.6698 11.7935 49.8333 10.7859 49.8639Z" fill="#F5C231"/>
</svg>
